<svg xmlns="http://www.w3.org/2000/svg" viewBox="0 0 7.41 7.41"><defs><style>.cls-1{fill:#1a1e1e;}</style></defs><title>11Asset 14arrow-line-right-up</title><g id="Layer_2" data-name="Layer 2"><g id="Layer_1-2" data-name="Layer 1"><path class="cls-1" d="M7.09.15H1.71a.17.17,0,0,0-.17.17V.61a.17.17,0,0,0,.17.17H6.2l-6,6a.22.22,0,0,0,0,.31l.13.13a.22.22,0,0,0,.31,0l6-6V5.7a.17.17,0,0,0,.17.17H7.1a.17.17,0,0,0,.17-.17V.32A.17.17,0,0,0,7.09.15Z"/><path class="cls-1" d="M7.32,5.93h0A.32.32,0,0,1,7.1,6H6.81a.32.32,0,0,1-.32-.32V1.58L.76,7.31a.37.37,0,0,1-.53,0L.11,7.18a.37.37,0,0,1,0-.53L5.84.92H1.71A.32.32,0,0,1,1.39.61V.32A.32.32,0,0,1,1.71,0H7.09a.32.32,0,0,1,.32.32V5.7A.32.32,0,0,1,7.32,5.93Zm-7,.93a.07.07,0,0,0,0,.1l.13.13a.07.07,0,0,0,.1,0L6.79.85V5.7l0,0H7.1l0,0V.32h0l0,0H1.71l0,0V.61l0,0H6.56Z"/></g></g></svg>