<svg xmlns="http://www.w3.org/2000/svg" viewBox="0 0 8.25 10.11"><defs><style>.cls-1{fill:#1a1e1e;}</style></defs><title>11Asset 8down-arrow</title><g id="Layer_2" data-name="Layer 2"><g id="Layer_1-2" data-name="Layer 1"><path class="cls-1" d="M4.25,9.91,8.05,6.1a.17.17,0,0,0,0-.24l-.2-.2a.17.17,0,0,0-.24,0L4.44,8.83V.37A.22.22,0,0,0,4.22.15H4a.22.22,0,0,0-.22.22V8.83L.64,5.66a.17.17,0,0,0-.24,0l-.2.2a.17.17,0,0,0,0,.24L4,9.91a.17.17,0,0,0,.24,0Z"/><path class="cls-1" d="M0,6H0a.32.32,0,0,1,.09-.23l.2-.2a.32.32,0,0,1,.45,0L3.66,8.47V.37A.37.37,0,0,1,4,0h.18a.37.37,0,0,1,.37.37v8.1L7.51,5.55a.32.32,0,0,1,.45,0l.2.2a.32.32,0,0,1,0,.45L4.35,10a.32.32,0,0,1-.45,0L.09,6.21A.32.32,0,0,1,0,6ZM4.29.37A.07.07,0,0,0,4.22.3H4A.07.07,0,0,0,4,.37V9.2L.53,5.77h0L.31,6V6L4.11,9.8h0L7.95,6a0,0,0,0,0,0,0l-.2-.2h0L4.29,9.2Z"/></g></g></svg>