<?xml version="1.0" encoding="UTF-8"?>
<svg width="666px" height="137px" viewBox="0 0 666 137" version="1.1" xmlns="http://www.w3.org/2000/svg" xmlns:xlink="http://www.w3.org/1999/xlink">
    <!-- Generator: Sketch 50.2 (55047) - http://www.bohemiancoding.com/sketch -->
    <title>Group 2</title>
    <desc>Created with Sketch.</desc>
    <defs></defs>
    <g id="Page-1" stroke="none" stroke-width="1" fill="none" fill-rule="evenodd">
        <g id="splash_3.2_mobile-copy" transform="translate(-559.000000, -6084.000000)" fill="#20D2A2" fill-rule="nonzero">
            <g id="Group-2" transform="translate(559.000000, 6084.000000)">
                <path d="M265.93,69.48 C265.432944,69.48 265.03,69.0770563 265.03,68.58 C265.03,68.0829437 265.432944,67.68 265.93,67.68 C267.24,67.68 298.08,67.28 298.08,35.46 C298.08,1.83 331.82,1.46 332.16,1.46 C332.657056,1.46 333.06,1.86294373 333.06,2.36 C333.06,2.85705627 332.657056,3.26 332.16,3.26 C326.520334,3.47952939 320.987345,4.86533044 315.91,7.33 C305.27,12.66 299.91,22.13 299.91,35.47 C299.88,69.09 266.27,69.48 265.93,69.48 Z" id="Shape"></path>
                <path d="M298.98,69.54 C298.482944,69.54 298.08,69.1370563 298.08,68.64 C298.08,68.1429437 298.482944,67.74 298.98,67.74 C301.755903,67.6310918 304.479423,66.9502119 306.98,65.74 C312.14,63.15 314.76,58.56 314.76,52.1 C314.76,34.88 332,34.58 332.18,34.58 C332.677056,34.58 333.08,34.9829437 333.08,35.48 C333.08,35.9770563 332.677056,36.38 332.18,36.38 C331.54,36.38 316.55,36.69 316.55,52.1 C316.55,69.32 299.17,69.56 299,69.56 L298.98,69.54 Z" id="Shape"></path>
                <path d="M265.87,36.46 C265.372944,36.46 264.97,36.0570563 264.97,35.56 C264.97,35.0629437 265.372944,34.66 265.87,34.66 C268.645903,34.5510918 271.369423,33.8702119 273.87,32.66 C279.03,30.07 281.65,25.48 281.65,19.02 C281.65,1.8 298.89,1.5 299.07,1.5 C299.567056,1.5 299.97,1.90294373 299.97,2.4 C299.97,2.89705627 299.567056,3.3 299.07,3.3 C298.43,3.3 283.44,3.61 283.44,19.02 C283.44,36.24 266.06,36.48 265.89,36.48 L265.87,36.46 Z" id="Shape"></path>
                <path d="M437.42,56.91 C435.187225,56.8971301 433.064727,55.9376447 431.58,54.27 C430.095273,55.9376447 427.972775,56.8971301 425.74,56.91 C423.680685,56.8568437 421.758367,55.866224 420.52,54.22 C419.203143,52.4705894 418.644623,50.265336 418.97,48.1 C416.804551,48.4276776 414.598415,47.8689341 412.85,46.55 C411.203776,45.3116333 410.213156,43.3893154 410.16,41.33 C411.838508,39.8511428 412.800235,37.7220532 412.800235,35.485 C412.800235,33.2479468 411.838508,31.1188572 410.16,29.64 C410.213156,27.5806846 411.203776,25.6583667 412.85,24.42 C414.598415,23.1010659 416.804551,22.5423224 418.97,22.87 C418.644623,20.704664 419.203143,18.4994106 420.52,16.75 C421.758367,15.103776 423.680685,14.1131563 425.74,14.06 C427.972775,14.0728699 430.095273,15.0323553 431.58,16.7 C433.064727,15.0323553 435.187225,14.0728699 437.42,14.06 C439.479315,14.1131563 441.401633,15.103776 442.64,16.75 C443.956857,18.4994106 444.515377,20.704664 444.19,22.87 C446.355336,22.5446226 448.560589,23.1031427 450.31,24.42 C451.956224,25.6583667 452.946844,27.5806846 453,29.64 C451.321492,31.1188572 450.359765,33.2479468 450.359765,35.485 C450.359765,37.7220532 451.321492,39.8511428 453,41.33 C452.946844,43.3893154 451.956224,45.3116333 450.31,46.55 C448.562085,47.8699768 446.355506,48.4288326 444.19,48.1 C444.515377,50.265336 443.956857,52.4705894 442.64,54.22 C441.401633,55.866224 439.479315,56.8568437 437.42,56.91 Z M431.58,51.91 C431.873919,51.908232 432.150183,52.0500971 432.32,52.29 C433.458511,54.0063259 435.370607,55.0503076 437.43,55.08 C438.93303,55.0188991 440.328678,54.2843474 441.23,53.08 C442.470891,51.37168 442.840918,49.1811256 442.23,47.16 C442.154151,46.8538077 442.244145,46.5302541 442.467199,46.3071994 C442.690254,46.0841447 443.013808,45.994151 443.32,46.07 C445.341226,46.6793282 447.531063,46.3094232 449.24,45.07 C450.444347,44.1686784 451.178899,42.7730303 451.24,41.27 C451.212046,39.2101502 450.16765,37.297296 448.45,36.16 C448.211317,35.9913311 448.069399,35.717265 448.069399,35.425 C448.069399,35.132735 448.211317,34.8586689 448.45,34.69 C450.166326,33.5514888 451.210308,31.6393933 451.24,29.58 C451.178899,28.0769697 450.444347,26.6813216 449.24,25.78 C447.531063,24.5405768 445.341226,24.1706718 443.32,24.78 C443.013808,24.855849 442.690254,24.7658553 442.467199,24.5428006 C442.244145,24.3197459 442.154151,23.9961923 442.23,23.69 C442.840918,21.6688744 442.470891,19.47832 441.23,17.77 C440.328678,16.5656526 438.93303,15.8311009 437.43,15.77 C435.370607,15.7996924 433.458511,16.8436741 432.32,18.56 C432.143848,18.7872224 431.872506,18.9201974 431.585,18.9201974 C431.297494,18.9201974 431.026152,18.7872224 430.85,18.56 C429.711489,16.8436741 427.799393,15.7996924 425.74,15.77 C424.23697,15.8311009 422.841322,16.5656526 421.94,17.77 C420.699109,19.47832 420.329082,21.6688744 420.94,23.69 C421.015849,23.9961923 420.925855,24.3197459 420.702801,24.5428006 C420.479746,24.7658553 420.156192,24.855849 419.85,24.78 C417.828874,24.1690825 415.63832,24.5391085 413.93,25.78 C412.725653,26.6813216 411.991101,28.0769697 411.93,29.58 C411.959692,31.6393933 413.003674,33.5514888 414.72,34.69 C414.958683,34.8586689 415.100601,35.132735 415.100601,35.425 C415.100601,35.717265 414.958683,35.9913311 414.72,36.16 C413.00235,37.297296 411.957954,39.2101502 411.93,41.27 C411.991101,42.7730303 412.725653,44.1686784 413.93,45.07 C415.63832,46.3108915 417.828874,46.6809175 419.85,46.07 C420.156192,45.994151 420.479746,46.0841447 420.702801,46.3071994 C420.925855,46.5302541 421.015849,46.8538077 420.94,47.16 C420.329082,49.1811256 420.699109,51.37168 421.94,53.08 C422.841322,54.2843474 424.23697,55.0188991 425.74,55.08 C427.799393,55.0503076 429.711489,54.0063259 430.85,52.29 C431.022044,52.067138 431.288467,51.9376272 431.57,51.94 L431.58,51.91 Z" id="Shape"></path>
                <path d="M423.69,28.5 C423.450575,28.5019152 423.220256,28.408348 423.05,28.24 L397.79,3 C397.477803,2.64343225 397.495617,2.10585209 397.830735,1.77073465 C398.165852,1.4356172 398.703432,1.4178032 399.06,1.73 L424.32,27 C424.573321,27.2584353 424.647213,27.6434607 424.507562,27.9773136 C424.367911,28.3111665 424.041882,28.5289045 423.68,28.53 L423.69,28.5 Z" id="Shape"></path>
                <path d="M464.72,69.53 C464.480575,69.5319152 464.250256,69.438348 464.08,69.27 L438.82,44 C438.507803,43.6434323 438.525617,43.1058521 438.860735,42.7707346 C439.195852,42.4356172 439.733432,42.4178032 440.09,42.73 L465.36,68 C465.613321,68.2584353 465.687213,68.6434607 465.547562,68.9773136 C465.407911,69.3111665 465.081882,69.5289045 464.72,69.53 Z" id="Shape"></path>
                <path d="M439.46,28.5 C439.098118,28.4989045 438.772089,28.2811665 438.632438,27.9473136 C438.492787,27.6134607 438.566679,27.2284353 438.82,26.97 L464.05,1.7 C464.406568,1.3878032 464.944148,1.4056172 465.279265,1.74073465 C465.614383,2.07585209 465.632197,2.61343225 465.32,2.97 L440.05,28.24 C439.892191,28.3965547 439.682027,28.4891693 439.46,28.5 Z" id="Shape"></path>
                <path d="M398.43,69.53 C398.068118,69.5289045 397.742089,69.3111665 397.602438,68.9773136 C397.462787,68.6434607 397.536679,68.2584353 397.79,68 L423.05,42.74 C423.271195,42.4873677 423.614633,42.3788805 423.940815,42.4586043 C424.266996,42.5383282 424.521672,42.7930037 424.601396,43.1191853 C424.68112,43.4453669 424.572632,43.788805 424.32,44.01 L399.05,69.27 C398.884678,69.433502 398.662493,69.5266764 398.43,69.53 Z" id="Shape"></path>
                <path d="M397.91,136.41 C397.670575,136.411915 397.440256,136.318348 397.27,136.15 L330.97,69.85 C330.717368,69.628805 330.60888,69.2853669 330.688604,68.9591853 C330.768328,68.6330037 331.023004,68.3783282 331.349185,68.2986043 C331.675367,68.2188805 332.018805,68.3273677 332.24,68.58 L398.54,134.88 C398.793321,135.138435 398.867213,135.523461 398.727562,135.857314 C398.587911,136.191166 398.261882,136.408904 397.9,136.41 L397.91,136.41 Z" id="Shape"></path>
                <path d="M364.74,136.37 C364.498902,136.370402 364.267956,136.272972 364.1,136.1 L331.05,102.91 C330.797368,102.688805 330.68888,102.345367 330.768604,102.019185 C330.848328,101.693004 331.103004,101.438328 331.429185,101.358604 C331.755367,101.27888 332.098805,101.387368 332.32,101.64 L365.38,134.84 C365.633321,135.098435 365.707213,135.483461 365.567562,135.817314 C365.427911,136.151166 365.101882,136.368904 364.74,136.37 Z" id="Shape"></path>
                <path d="M397.91,103.18 C397.674036,103.179272 397.447796,103.085903 397.28,102.92 L364.11,69.85 C363.857368,69.628805 363.74888,69.2853669 363.828604,68.9591853 C363.908328,68.6330037 364.163004,68.3783282 364.489185,68.2986043 C364.815367,68.2188805 365.158805,68.3273677 365.38,68.58 L398.55,101.65 C398.809162,101.906231 398.888215,102.293464 398.750225,102.630774 C398.612235,102.968084 398.284442,103.188879 397.92,103.19 L397.91,103.18 Z" id="Shape"></path>
                <path d="M265.65,69.54 C265.410575,69.5419152 265.180256,69.448348 265.01,69.28 L198.71,2.98 C198.397803,2.62343225 198.415617,2.08585209 198.750735,1.75073465 C199.085852,1.4156172 199.623432,1.3978032 199.98,1.71 L266.28,68.01 C266.533321,68.2684353 266.607213,68.6534607 266.467562,68.9873136 C266.327911,69.3211665 266.001882,69.5389045 265.64,69.54 L265.65,69.54 Z" id="Shape"></path>
                <path d="M232.49,69.5 C232.248902,69.5004023 232.017956,69.402972 231.85,69.23 L198.79,36 C198.537368,35.778805 198.42888,35.4353669 198.508604,35.1091853 C198.588328,34.7830037 198.843004,34.5283282 199.169185,34.4486043 C199.495367,34.3688805 199.838805,34.4773677 200.06,34.73 L233.12,67.93 C233.373321,68.1884353 233.447213,68.5734607 233.307562,68.9073136 C233.167911,69.2411665 232.841882,69.4589045 232.48,69.46 L232.49,69.5 Z" id="Shape"></path>
                <path d="M265.65,36.31 C265.414036,36.3092722 265.187796,36.2159033 265.02,36.05 L231.85,3 C231.537803,2.64343225 231.555617,2.10585209 231.890735,1.77073465 C232.225852,1.4356172 232.763432,1.4178032 233.12,1.73 L266.29,34.8 C266.549162,35.0562312 266.628215,35.443464 266.490225,35.7807738 C266.352235,36.1180836 266.024442,36.3388794 265.66,36.34 L265.65,36.31 Z" id="Shape"></path>
                <path d="M166.18,42.68 C162.198027,42.68 158.97,39.451973 158.97,35.47 C158.97,31.488027 162.198027,28.26 166.18,28.26 C170.161973,28.26 173.39,31.488027 173.39,35.47 C173.384492,39.4496892 170.159689,42.6744918 166.18,42.68 Z M166.18,30.06 C163.19214,30.06 160.77,32.4821395 160.77,35.47 C160.77,38.4578605 163.19214,40.88 166.18,40.88 C169.16786,40.88 171.59,38.4578605 171.59,35.47 C171.584497,32.4844221 169.165578,30.0655034 166.18,30.06 Z" id="Shape"></path>
                <path d="M166.11,56.87 C165.870575,56.8719152 165.640256,56.778348 165.47,56.61 L144.9,36 C144.550386,35.6488499 144.550386,35.0811501 144.9,34.73 L165.47,14.16 C165.82115,13.8103855 166.38885,13.8103855 166.74,14.16 L187.31,34.73 C187.659614,35.0811501 187.659614,35.6488499 187.31,36 L166.74,56.57 C166.578888,56.7506514 166.351798,56.8587892 166.11,56.87 Z M146.81,35.4 L166.11,54.7 L185.41,35.4 L166.11,16.1 L146.81,35.4 Z" id="Shape"></path>
                <path d="M133.05,69.51 C132.688118,69.5089045 132.362089,69.2911665 132.222438,68.9573136 C132.082787,68.6234607 132.156679,68.2384353 132.41,67.98 L155.27,45.12 C155.626568,44.8078032 156.164148,44.8256172 156.499265,45.1607346 C156.834383,45.4958521 156.852197,46.0334323 156.54,46.39 L133.68,69.25 C133.512204,69.4159033 133.285964,69.5092722 133.05,69.51 Z" id="Shape"></path>
                <path d="M155.82,26 C155.580575,26.0019152 155.350256,25.908348 155.18,25.74 L132.39,3 C132.077803,2.64343225 132.095617,2.10585209 132.430735,1.77073465 C132.765852,1.4356172 133.303432,1.4178032 133.66,1.73 L156.45,24.52 C156.703321,24.7784353 156.777213,25.1634607 156.637562,25.4973136 C156.497911,25.8311665 156.171882,26.0489045 155.81,26.05 L155.82,26 Z" id="Shape"></path>
                <path d="M176.46,26.08 C176.098118,26.0789045 175.772089,25.8611665 175.632438,25.5273136 C175.492787,25.1934607 175.566679,24.8084353 175.82,24.55 L198.68,1.69 C198.901195,1.43736765 199.244633,1.32888046 199.570815,1.40860433 C199.896996,1.4883282 200.151672,1.74300366 200.231396,2.06918528 C200.31112,2.39536689 200.202632,2.73880498 199.95,2.96 L177.05,25.82 C176.892191,25.9765547 176.682027,26.0691693 176.46,26.08 Z" id="Shape"></path>
                <path d="M199.32,69.51 C199.080575,69.5119152 198.850256,69.418348 198.68,69.25 L175.75,46.32 C175.497368,46.098805 175.38888,45.7553669 175.468604,45.4291853 C175.548328,45.1030037 175.803004,44.8483282 176.129185,44.7686043 C176.455367,44.6888805 176.798805,44.7973677 177.02,45.05 L199.96,68 C200.213321,68.2584353 200.287213,68.6434607 200.147562,68.9773136 C200.007911,69.3111665 199.681882,69.5289045 199.32,69.53 L199.32,69.51 Z" id="Shape"></path>
                <path d="M28.58,81.31 C30.8127754,81.3228699 32.9352734,82.2823553 34.42,83.95 C35.9047266,82.2823553 38.0272246,81.3228699 40.26,81.31 C42.3193154,81.3631563 44.2416333,82.353776 45.48,84 C46.7968573,85.7494106 47.3553774,87.954664 47.03,90.12 C49.1954493,89.7923224 51.4015847,90.3510659 53.15,91.67 C54.796224,92.9083667 55.7868437,94.8306846 55.84,96.89 C54.1614922,98.3688572 53.1997646,100.497947 53.1997646,102.735 C53.1997646,104.972053 54.1614922,107.101143 55.84,108.58 C55.7868437,110.639315 54.796224,112.561633 53.15,113.8 C51.4005894,115.116857 49.195336,115.675377 47.03,115.35 C47.3553774,117.515336 46.7968573,119.720589 45.48,121.47 C44.2426105,123.117382 42.3196912,124.108312 40.26,124.16 C38.0272246,124.14713 35.9047266,123.187645 34.42,121.52 C32.9352734,123.187645 30.8127754,124.14713 28.58,124.16 C26.5203088,124.108312 24.5973895,123.117382 23.36,121.47 C22.0431427,119.720589 21.4846226,117.515336 21.81,115.35 C19.6446073,115.676526 17.4389138,115.117894 15.69,113.8 C14.043776,112.561633 13.0531563,110.639315 13,108.58 C14.6785078,107.101143 15.6402354,104.972053 15.6402354,102.735 C15.6402354,100.497947 14.6785078,98.3688572 13,96.89 C13.0531563,94.8306846 14.043776,92.9083667 15.69,91.67 C17.4379151,90.3500232 19.6444943,89.7911674 21.81,90.12 C21.4846226,87.954664 22.0431427,85.7494106 23.36,84 C24.5983667,82.353776 26.5206846,81.3631563 28.58,81.31 Z M34.42,86.31 C34.1260812,86.311768 33.8498175,86.1699029 33.68,85.93 C32.5414888,84.2136741 30.6293933,83.1696924 28.57,83.14 C27.0669697,83.2011009 25.6713216,83.9356526 24.77,85.14 C23.5291085,86.84832 23.1590825,89.0388744 23.77,91.06 C23.845849,91.3661923 23.7558553,91.6897459 23.5328006,91.9128006 C23.3097459,92.1358553 22.9861923,92.225849 22.68,92.15 C20.6587743,91.5406718 18.4689366,91.9105768 16.76,93.15 C15.5556526,94.0513216 14.8211009,95.4469697 14.76,96.95 C14.7896924,99.0093933 15.8336741,100.921489 17.55,102.06 C17.788683,102.228669 17.9306013,102.502735 17.9306013,102.795 C17.9306013,103.087265 17.788683,103.361331 17.55,103.53 C15.8336741,104.668511 14.7896924,106.580607 14.76,108.64 C14.8211009,110.14303 15.5556526,111.538678 16.76,112.44 C18.4689366,113.679423 20.6587743,114.049328 22.68,113.44 C22.9861923,113.364151 23.3097459,113.454145 23.5328006,113.677199 C23.7558553,113.900254 23.845849,114.223808 23.77,114.53 C23.1590825,116.551126 23.5291085,118.74168 24.77,120.45 C25.6713216,121.654347 27.0669697,122.388899 28.57,122.45 C30.6293933,122.420308 32.5414888,121.376326 33.68,119.66 C33.8561523,119.432778 34.1274941,119.299803 34.415,119.299803 C34.7025059,119.299803 34.9738477,119.432778 35.15,119.66 C36.2885112,121.376326 38.2006067,122.420308 40.26,122.45 C41.7630303,122.388899 43.1586784,121.654347 44.06,120.45 C45.3008915,118.74168 45.6709175,116.551126 45.06,114.53 C44.984151,114.223808 45.0741447,113.900254 45.2971994,113.677199 C45.5202541,113.454145 45.8438077,113.364151 46.15,113.44 C48.1711256,114.050918 50.36168,113.680891 52.07,112.44 C53.2743474,111.538678 54.0088991,110.14303 54.07,108.64 C54.0403076,106.580607 52.9963259,104.668511 51.28,103.53 C51.041317,103.361331 50.8993987,103.087265 50.8993987,102.795 C50.8993987,102.502735 51.041317,102.228669 51.28,102.06 C52.9963259,100.921489 54.0403076,99.0093933 54.07,96.95 C54.0088991,95.4469697 53.2743474,94.0513216 52.07,93.15 C50.3610634,91.9105768 48.1712257,91.5406718 46.15,92.15 C45.8291262,92.2412105 45.4841222,92.1474592 45.2535403,91.9063963 C45.0229583,91.6653333 44.9446255,91.3165053 45.05,91 C45.6609175,88.9788744 45.2908915,86.78832 44.05,85.08 C43.1486784,83.8756526 41.7530303,83.1411009 40.25,83.08 C38.1906067,83.1096924 36.2785112,84.1536741 35.14,85.87 C34.9809187,86.115583 34.7123794,86.2685013 34.42,86.28 L34.42,86.31 Z" id="Shape"></path>
                <path d="M42.31,109.72 C42.549425,109.718085 42.7797444,109.811652 42.95,109.98 L68.21,135.24 C68.4626323,135.461195 68.5711195,135.804633 68.4913957,136.130815 C68.4116718,136.456996 68.1569963,136.711672 67.8308147,136.791396 C67.5046331,136.87112 67.161195,136.762632 66.94,136.51 L41.68,111.25 C41.4266795,110.991565 41.3527869,110.606539 41.4924378,110.272686 C41.6320886,109.938834 41.9581175,109.721096 42.32,109.72 L42.31,109.72 Z" id="Shape"></path>
                <path d="M1.27,68.69 C1.50942502,68.6880848 1.73974442,68.781652 1.91,68.95 L27.17,94.21 C27.4821968,94.5665677 27.4643828,95.1041479 27.1292654,95.4392654 C26.7941479,95.7743828 26.2565677,95.7921968 25.9,95.48 L0.64,70.22 C0.386679463,69.9615647 0.312786874,69.5765393 0.452437751,69.2426864 C0.592088627,68.9088335 0.918117546,68.6910955 1.28,68.69 L1.27,68.69 Z" id="Shape"></path>
                <path d="M26.53,109.72 C26.8918825,109.721096 27.2179114,109.938834 27.3575622,110.272686 C27.4972131,110.606539 27.4233205,110.991565 27.17,111.25 L1.91,136.51 C1.55343225,136.822197 1.01585209,136.804383 0.680734646,136.469265 C0.345617203,136.134148 0.327803199,135.596568 0.64,135.24 L25.9,110 C26.064511,109.826746 26.2911596,109.726013 26.53,109.72 Z" id="Shape"></path>
                <path d="M67.57,68.69 C67.9318825,68.6910955 68.2579114,68.9088335 68.3975622,69.2426864 C68.5372131,69.5765393 68.4633205,69.9615647 68.21,70.22 L42.95,95.48 C42.5934323,95.7921968 42.0558521,95.7743828 41.7207346,95.4392654 C41.3856172,95.1041479 41.3678032,94.5665677 41.68,94.21 L66.93,69 C67.0917334,68.8131929 67.323157,68.7010971 67.57,68.69 Z" id="Shape"></path>
                <path d="M91.34,50.42 C90.3251994,50.3470004 89.5391941,49.5024228 89.5391941,48.485 C89.5391941,47.4675772 90.3251994,46.6229996 91.34,46.55 C91.8922847,46.55 92.34,46.9977153 92.34,47.55 C92.8922847,47.55 93.34,47.9977153 93.34,48.55 C93.3019823,49.6177073 92.4078517,50.4537194 91.34,50.42 Z" id="Shape"></path>
                <path d="M100.67,51.95 L99.93,51.95 C91.6651308,51.5271894 85.30416,44.4906912 85.7148428,36.2252105 C86.1255256,27.9597298 93.1526825,21.5884409 101.418757,21.9869951 C109.684831,22.3855492 116.066425,29.4033497 115.68,37.67 C115.27046,45.6643017 108.674778,51.9392081 100.67,51.95 Z M100.67,23.84 C93.5051458,24.0152054 87.8133688,29.9196394 87.900978,37.0861 C87.9885873,44.2525606 93.8230039,50.016088 100.99,50.016088 C108.156996,50.016088 113.991413,44.2525606 114.079022,37.0861 C114.166631,29.9196394 108.474854,24.0152054 101.31,23.84 L100.67,23.84 Z" id="Shape"></path>
                <path d="M88.79,45.69 L78.79,45.69 C78.2377153,45.69 77.79,45.2422847 77.79,44.69 L77.79,28.52 C77.79,27.9677153 78.2377153,27.52 78.79,27.52 L88.79,27.52 C89.3422847,27.52 89.79,27.9677153 89.79,28.52 C89.79,29.0722847 89.3422847,29.52 88.79,29.52 L79.79,29.52 L79.79,43.74 L88.79,43.74 C89.3422847,43.74 89.79,44.1877153 89.79,44.74 C89.79,45.2922847 89.3422847,45.74 88.79,45.74 L88.79,45.69 Z" id="Shape"></path>
                <path d="M122.64,45.69 L112.64,45.69 C112.087715,45.69 111.64,45.2422847 111.64,44.69 C111.64,44.1377153 112.087715,43.69 112.64,43.69 L121.64,43.69 L121.64,29.47 L112.64,29.47 C112.087715,29.47 111.64,29.0222847 111.64,28.47 C111.64,27.9177153 112.087715,27.47 112.64,27.47 L122.64,27.47 C123.192285,27.47 123.64,27.9177153 123.64,28.47 L123.64,44.64 C123.653706,44.9137686 123.554431,45.1811614 123.365389,45.379656 C123.176346,45.5781505 122.914111,45.6903429 122.64,45.69 Z" id="Shape"></path>
                <path d="M96.38,63.46 C96.1211318,63.4562966 95.8737887,63.3523408 95.69,63.17 L78.26,45.67 C78.0094065,45.2746903 78.0665311,44.7584478 78.3974895,44.4274895 C78.7284478,44.0965311 79.2446903,44.0394065 79.64,44.29 L96.36,61.08 L103.63,53.47 L101.89,51.68 C101.553166,51.4530523 101.387057,51.0449166 101.469679,50.6472532 C101.552301,50.2495897 101.867239,49.9414003 102.266599,49.8674104 C102.665958,49.7934205 103.070401,49.9683294 103.29,50.31 L105.69,52.77 C106.045717,53.1535532 106.045717,53.7464468 105.69,54.13 L97.07,63.13 C96.8853695,63.3184143 96.6337693,63.426243 96.37,63.43 L96.38,63.46 Z" id="Shape"></path>
                <path d="M122.69,29.52 C122.431132,29.5162966 122.183789,29.4123408 122,29.23 L106,13.15 L98.08,20.15 L99.76,21.87 C100.005118,22.2689344 99.9406106,22.7845375 99.604765,23.1107875 C99.2689194,23.4370375 98.7516634,23.4865757 98.36,23.23 L95.96,20.77 C95.7783946,20.5743433 95.6825571,20.3141972 95.6938266,20.0474856 C95.7050961,19.7807741 95.822537,19.5296397 96.02,19.35 L105.4,11.1 C105.780619,10.7564815 106.359381,10.7564815 106.74,11.1 L123.41,27.83 C123.669272,28.1162552 123.740525,28.5262238 123.593043,28.8831733 C123.44556,29.2401228 123.105711,29.4802348 122.72,29.5 L122.69,29.52 Z" id="Shape"></path>
                <path d="M96.65,55.74 C95.5785676,55.74 94.71,54.8714324 94.71,53.8 C94.71,52.7285676 95.5785676,51.86 96.65,51.86 C97.7214324,51.86 98.59,52.7285676 98.59,53.8 C98.59,54.8714324 97.7214324,55.74 96.65,55.74 Z" id="Shape"></path>
                <path d="M96.65,21 C96.3812937,20.9962642 96.1253993,20.8845357 95.94,20.69 L94.69,19.35 C92.8070714,17.2661065 92.3295176,14.268132 93.4717891,11.7023479 C94.6140606,9.1365638 97.1614399,7.48527116 99.97,7.49 C102.063996,7.41546629 104.087836,8.25052825 105.52,9.78 L106.76,11.11 C106.997866,11.5143778 106.922636,12.0297509 106.579103,12.3492607 C106.23557,12.6687706 105.716103,12.7065064 105.33,12.44 L104.07,11.09 C103.002608,9.98555684 101.514729,9.38895026 99.98,9.45 C97.9519966,9.45454849 96.1154727,10.6488684 95.2888177,12.5007484 C94.4621626,14.3526285 94.7993019,16.5172432 96.15,18.03 L97.39,19.36 C97.632576,19.6499815 97.690877,20.051974 97.5406747,20.3989201 C97.3904724,20.7458663 97.057449,20.9784439 96.68,21 L96.65,21 Z" id="Shape"></path>
                <path d="M101.2,16.54 C100.926321,16.5363614 100.666094,16.4207051 100.48,16.22 L94.62,9.78 C94.2937962,9.54011239 94.1444496,9.12718704 94.2417313,8.73413334 C94.3390131,8.34107964 94.6637206,8.04548389 95.0641577,7.98544175 C95.4645948,7.9253996 95.8617179,8.11276301 96.07,8.46 L101.93,14.9 C102.173419,15.1913758 102.230834,15.5954691 102.078208,15.9431158 C101.925583,16.2907625 101.589247,16.5219898 101.21,16.54 L101.2,16.54 Z" id="Shape"></path>
                <path d="M94.65,41.2 C94.2255786,41.1648057 93.8700139,40.8646688 93.7640736,40.4521778 C93.6581332,40.0396868 93.8250644,39.605357 94.18,39.37 L99.69,36.37 L99.69,27.29 C99.69,26.7377153 100.137715,26.29 100.69,26.29 C101.242285,26.29 101.69,26.7377153 101.69,27.29 L101.69,36.95 C101.685799,37.307179 101.491396,37.6349949 101.18,37.81 L95.18,41.12 C95.0139048,41.194399 94.830655,41.2220593 94.65,41.2 Z" id="Shape"></path>
                <circle id="Oval" cx="100.66" cy="36.91" r="1.38"></circle>
                <path d="M498.12,69.57 C497.617421,69.57 497.21,69.1625791 497.21,68.66 L497.21,1.86 C497.173575,1.51395978 497.337663,1.17744056 497.632733,0.993038641 C497.927804,0.808636727 498.302196,0.808636727 498.597267,0.993038641 C498.892337,1.17744056 499.056425,1.51395978 499.02,1.86 L499.02,68.66 C499.02003,69.1586996 498.61867,69.5645198 498.12,69.57 Z" id="Shape"></path>
                <path d="M531.52,36.17 L464.72,36.17 C464.256858,36.1212484 463.905263,35.7307005 463.905263,35.265 C463.905263,34.7992995 464.256858,34.4087516 464.72,34.36 L531.52,34.36 C531.983142,34.4087516 532.334737,34.7992995 532.334737,35.265 C532.334737,35.7307005 531.983142,36.1212484 531.52,36.17 Z" id="Shape"></path>
                <path d="M464.72,69.57 C464.339627,69.5886896 463.987847,69.3685458 463.838369,69.0182758 C463.68889,68.6680058 463.773333,68.261703 464.05,68 L530.85,1.2 C531.21194,0.90638935 531.737208,0.933690206 532.066759,1.26324115 C532.39631,1.59279209 532.423611,2.11806018 532.13,2.48 L465.33,69.28 C465.172026,69.4521924 464.953271,69.5561904 464.72,69.57 Z" id="Shape"></path>
                <path d="M531.54,69.59 C531.299132,69.5892687 531.068608,69.4920164 530.9,69.32 L464.05,2.49 C463.779953,2.27093399 463.658354,1.91712524 463.736674,1.57833115 C463.814993,1.23953707 464.079537,0.974993288 464.418331,0.896673846 C464.757125,0.818354404 465.110934,0.939952874 465.33,1.21 L532.18,68 C532.437364,68.2601239 532.513884,68.6491006 532.37423,68.987327 C532.234575,69.3255535 531.905914,69.5472294 531.54,69.55 L531.54,69.59 Z" id="Shape"></path>
                <path d="M477.91,116.48 C476.722958,116.488946 475.555413,116.178061 474.53,115.58 C469.2,112.47 470.58,101.2 473.12,96.1 C474.882973,92.296531 478.204805,89.4414329 482.23,88.27 C485.32,87.41 487.68,88 490.42,88.69 C495.448833,90.2018185 500.811167,90.2018185 505.84,88.69 C508.58,88 510.94,87.41 514.03,88.27 C518.055195,89.4414329 521.377027,92.296531 523.14,96.1 C525.67,101.2 527.06,112.48 521.73,115.58 C517.94,117.79 512.73,115.88 507.53,110.35 C504.39,107.03 501.32,105.42 498.13,105.42 C494.94,105.42 491.87,107.03 488.73,110.35 C484.92,114.38 481.14,116.48 477.91,116.48 Z M485.28,89.64 C484.407523,89.6405785 483.53931,89.7617244 482.7,90 C479.159783,91.0326675 476.241355,93.5498115 474.7,96.9 C473.349055,99.9201941 472.650509,103.191432 472.65,106.5 C472.65,108.71 472.99,112.62 475.41,114.03 C478.41,115.78 482.78,114.03 487.41,109.12 C490.91,105.42 494.41,103.63 498.12,103.63 C501.83,103.63 505.33,105.43 508.83,109.12 C513.44,113.99 517.83,115.79 520.83,114.03 C523.25,112.62 523.6,108.71 523.59,106.5 C523.588891,103.191495 522.890372,99.9203812 521.54,96.9 C519.998645,93.5498115 517.080217,91.0326675 513.54,90 C510.91,89.26 508.86,89.78 506.27,90.44 C500.955394,92.0231488 495.294606,92.0231488 489.98,90.44 C488.452129,89.9828953 486.873353,89.7175266 485.28,89.65 L485.28,89.64 Z" id="Shape"></path>
                <path d="M482.97,106.09 C481.4954,106.09 480.3,104.8946 480.3,103.42 L480.3,103.16 L480.05,103.16 C478.641467,103.073678 477.543325,101.906175 477.543325,100.495 C477.543325,99.0838248 478.641467,97.9163221 480.05,97.83 L480.31,97.83 L480.31,97.57 C480.396322,96.1614675 481.563825,95.0633248 482.975,95.0633248 C484.386175,95.0633248 485.553678,96.1614675 485.64,97.57 L485.64,97.83 L485.9,97.83 C487.308533,97.9163221 488.406675,99.0838248 488.406675,100.495 C488.406675,101.906175 487.308533,103.073678 485.9,103.16 L485.64,103.16 L485.64,103.42 C485.64,104.8946 484.4446,106.09 482.97,106.09 Z M480.05,99.63 C479.569512,99.63 479.18,100.019512 479.18,100.5 C479.18,100.980488 479.569512,101.37 480.05,101.37 L481.21,101.37 C481.707056,101.37 482.11,101.772944 482.11,102.27 L482.11,103.43 C482.11,103.910488 482.499512,104.3 482.98,104.3 C483.460488,104.3 483.85,103.910488 483.85,103.43 L483.85,102.27 C483.85,101.772944 484.252944,101.37 484.75,101.37 L485.91,101.37 C486.390488,101.37 486.78,100.980488 486.78,100.5 C486.78,100.019512 486.390488,99.63 485.91,99.63 L484.75,99.63 C484.252944,99.63 483.85,99.2270563 483.85,98.73 L483.85,97.57 C483.85,97.0895123 483.460488,96.7 482.98,96.7 C482.499512,96.7 482.11,97.0895123 482.11,97.57 L482.11,98.73 C482.11,99.2270563 481.707056,99.63 481.21,99.63 L480.05,99.63 Z" id="Shape"></path>
                <path d="M512.36,100 C510.968242,100 509.84,98.8717576 509.84,97.48 C509.84,96.0882424 510.968242,94.96 512.36,94.96 C513.751758,94.96 514.88,96.0882424 514.88,97.48 C514.88,98.8717576 513.751758,100 512.36,100 Z M512.36,96.76 C511.962355,96.76 511.64,97.082355 511.64,97.48 C511.64,97.877645 511.962355,98.2 512.36,98.2 C512.757645,98.2 513.08,97.877645 513.08,97.48 C513.093886,97.280539 513.024204,97.084286 512.887644,96.9382423 C512.751083,96.7921985 512.559943,96.7095173 512.36,96.71 L512.36,96.76 Z" id="Shape"></path>
                <path d="M512.36,107.17 C510.968242,107.17 509.84,106.041758 509.84,104.65 C509.84,103.258242 510.968242,102.13 512.36,102.13 C513.751758,102.13 514.88,103.258242 514.88,104.65 C514.88,105.318346 514.614501,105.959317 514.141909,106.431909 C513.669317,106.904501 513.028346,107.17 512.36,107.17 Z M512.36,103.93 C511.962355,103.93 511.64,104.252355 511.64,104.65 C511.64,105.047645 511.962355,105.37 512.36,105.37 C512.757645,105.37 513.08,105.047645 513.08,104.65 C513.08,104.252355 512.757645,103.93 512.36,103.93 Z" id="Shape"></path>
                <path d="M515.97,103.56 C514.578242,103.56 513.45,102.431758 513.45,101.04 C513.45,99.6482424 514.578242,98.52 515.97,98.52 C517.361758,98.52 518.49,99.6482424 518.49,101.04 C518.49,102.431758 517.361758,103.56 515.97,103.56 Z M515.97,100.32 C515.572355,100.32 515.25,100.642355 515.25,101.04 C515.25,101.437645 515.572355,101.76 515.97,101.76 C516.367645,101.76 516.69,101.437645 516.69,101.04 C516.69,100.849044 516.614143,100.665909 516.479117,100.530883 C516.344091,100.395857 516.160956,100.32 515.97,100.32 Z" id="Shape"></path>
                <path d="M508.75,103.56 C507.358242,103.56 506.23,102.431758 506.23,101.04 C506.23,99.6482424 507.358242,98.52 508.75,98.52 C510.141758,98.52 511.27,99.6482424 511.27,101.04 C511.27,102.431758 510.141758,103.56 508.75,103.56 Z M508.75,100.32 C508.352355,100.32 508.03,100.642355 508.03,101.04 C508.03,101.437645 508.352355,101.76 508.75,101.76 C509.147645,101.76 509.47,101.437645 509.47,101.04 C509.47,100.642355 509.147645,100.32 508.75,100.32 Z" id="Shape"></path>
                <path d="M498.12,91.63 C497.622944,91.63 497.22,91.2270563 497.22,90.73 L497.22,69 C497.22,68.5029437 497.622944,68.1 498.12,68.1 C498.617056,68.1 499.02,68.5029437 499.02,69 L499.02,90.7 C499.028133,90.9438492 498.936914,91.1805514 498.767242,91.3558794 C498.59757,91.5312074 498.363985,91.6301356 498.12,91.63 Z" id="Shape"></path>
                <path d="M598.38,69.59 C596.689729,69.6113143 595.065441,68.9348292 593.89,67.72 C589.05,62.88 589.07,49.42 589.08,35.16 C589.08,21.97 589.08,8.33 584.85,4.06 C584.101368,3.27791528 583.081358,2.81264739 582,2.76 C581.904719,2.79887514 581.802903,2.8192383 581.7,2.82 C580.505409,2.79824992 579.356105,3.27682441 578.53,4.14 C574.29,8.39 574.3,21.9 574.32,34.96 C574.32,49.08 574.32,62.42 569.53,67.24 C568.347722,68.4569125 566.716501,69.1332723 565.02,69.11 L564.89,69.11 C563.193499,69.1332723 561.562278,68.4569125 560.38,67.24 C555.56,62.42 555.58,49.08 555.59,34.96 C555.59,21.89 555.59,8.38 551.38,4.14 C550.553895,3.27682441 549.404591,2.79824992 548.21,2.82 C548.100573,2.81962017 547.992132,2.79928754 547.89,2.76 C546.815915,2.81865999 545.804276,3.28337049 545.06,4.06 C540.8,8.32 540.81,21.97 540.83,35.16 C540.83,49.41 540.83,62.88 536.02,67.72 C534.844559,68.9348292 533.220271,69.6113143 531.53,69.59 C531.18396,69.6264251 530.847441,69.4623373 530.663039,69.1672669 C530.478637,68.8721964 530.478637,68.4978036 530.663039,68.2027331 C530.847441,67.9076627 531.18396,67.7435749 531.53,67.78 C532.7353,67.8014425 533.894978,67.3194515 534.73,66.45 C539.03,62.14 539.02,48.45 539.01,35.17 C539.01,20.98 539.01,7.59 543.77,2.79 C544.930728,1.59345242 546.533108,0.927904126 548.2,0.95 C548.327578,0.950435584 548.453638,0.977691898 548.57,1.03 C550.114726,1.10124058 551.574024,1.75935531 552.65,2.87 C557.42,7.65 557.41,20.92 557.39,34.98 C557.39,48.11 557.39,61.69 561.65,65.98 C562.489453,66.8562319 563.656748,67.3420008 564.87,67.32 L565.05,67.32 C566.263252,67.3420008 567.430547,66.8562319 568.27,65.98 C572.56,61.69 572.54,48.11 572.53,34.98 C572.53,20.93 572.53,7.65 577.27,2.87 C578.353407,1.75238385 579.824756,1.09367768 581.38,1.03 C581.486057,0.978615819 581.602158,0.951298129 581.72,0.95 C583.386663,0.929090528 584.988592,1.59445169 586.15,2.79 C590.94,7.59 590.93,20.99 590.91,35.17 C590.91,48.43 590.91,62.17 595.19,66.45 C596.025022,67.3194515 597.1847,67.8014425 598.39,67.78 C598.73604,67.7435749 599.072559,67.9076627 599.256961,68.2027331 C599.441363,68.4978036 599.441363,68.8721964 599.256961,69.1672669 C599.072559,69.4623373 598.73604,69.6264251 598.39,69.59 L598.38,69.59 Z" id="Shape"></path>
                <path d="M134.05,87.65 L67.31,87.65 C66.8468583,87.6012484 66.4952628,87.2107005 66.4952628,86.745 C66.4952628,86.2792995 66.8468583,85.8887516 67.31,85.84 L134.05,85.84 C134.513142,85.8887516 134.864737,86.2792995 134.864737,86.745 C134.864737,87.2107005 134.513142,87.6012484 134.05,87.65 Z" id="Shape"></path>
                <path d="M134.05,104.27 L67.24,104.27 C66.7768583,104.221248 66.4252628,103.8307 66.4252628,103.365 C66.4252628,102.8993 66.7768583,102.508752 67.24,102.46 L134.05,102.46 C134.513142,102.508752 134.864737,102.8993 134.864737,103.365 C134.864737,103.8307 134.513142,104.221248 134.05,104.27 Z" id="Shape"></path>
                <path d="M134.05,121 L67.31,121 C66.8468583,120.951248 66.4952628,120.5607 66.4952628,120.095 C66.4952628,119.6293 66.8468583,119.238752 67.31,119.19 L134.05,119.19 C134.513142,119.238752 134.864737,119.6293 134.864737,120.095 C134.864737,120.5607 134.513142,120.951248 134.05,121 Z" id="Shape"></path>
                <path d="M599.28,68.75 C599.279269,68.9908685 599.182016,69.2213924 599.01,69.39 L532.17,136.23 C531.80806,136.523611 531.282792,136.49631 530.953241,136.166759 C530.62369,135.837208 530.596389,135.31194 530.89,134.95 L597.73,68.11 C597.990124,67.8526361 598.379101,67.7761156 598.717327,67.9157704 C599.055554,68.0554252 599.277229,68.3840862 599.28,68.75 Z" id="Shape"></path>
                <path d="M599.25,102.18 C599.249269,102.420868 599.152016,102.651392 598.98,102.82 L565.51,136.15 C565.14806,136.443611 564.622792,136.41631 564.293241,136.086759 C563.96369,135.757208 563.936389,135.23194 564.23,134.87 L597.7,101.54 C597.960124,101.282636 598.349101,101.206116 598.687327,101.34577 C599.025554,101.485425 599.247229,101.814086 599.25,102.18 Z" id="Shape"></path>
                <path d="M565.78,68.75 C565.781915,68.989425 565.688348,69.2197444 565.52,69.39 L532.19,102.82 C531.970934,103.090047 531.617125,103.211646 531.278331,103.133326 C530.939537,103.055007 530.674993,102.790463 530.596674,102.451669 C530.518354,102.112875 530.639953,101.759066 530.91,101.54 L564.24,68.11 C564.500124,67.8526361 564.889101,67.7761156 565.227327,67.9157704 C565.565554,68.0554252 565.787229,68.3840862 565.79,68.75 L565.78,68.75 Z" id="Shape"></path>
                <path d="M266.83,68.61 C266.829269,68.8508685 266.732016,69.0813924 266.56,69.25 L199.72,136.09 C199.35806,136.383611 198.832792,136.35631 198.503241,136.026759 C198.17369,135.697208 198.146389,135.17194 198.44,134.81 L265.28,68 C265.540124,67.7426361 265.929101,67.6661156 266.267327,67.8057704 C266.605554,67.9454252 266.827229,68.2740862 266.83,68.64 L266.83,68.61 Z" id="Shape"></path>
                <path d="M266.8,102 C266.799269,102.240868 266.702016,102.471392 266.53,102.64 L233.05,136 C232.830934,136.270047 232.477125,136.391646 232.138331,136.313326 C231.799537,136.235007 231.534993,135.970463 231.456674,135.631669 C231.378354,135.292875 231.499953,134.939066 231.77,134.72 L265.24,101.39 C265.500124,101.132636 265.889101,101.056116 266.227327,101.19577 C266.565554,101.335425 266.787229,101.664086 266.79,102.03 L266.8,102 Z" id="Shape"></path>
                <path d="M233.33,68.61 C233.331915,68.849425 233.238348,69.0797444 233.07,69.25 L199.74,102.68 C199.37806,102.973611 198.852792,102.94631 198.523241,102.616759 C198.19369,102.287208 198.166389,101.76194 198.46,101.4 L231.78,68 C232.040124,67.7426361 232.429101,67.6661156 232.767327,67.8057704 C233.105554,67.9454252 233.327229,68.2740862 233.33,68.64 L233.33,68.61 Z" id="Shape"></path>
                <path d="M399.36,2.34 C399.359269,2.58086849 399.262016,2.81139239 399.09,2.98 L332.25,69.82 C331.88806,70.1136106 331.362792,70.0863098 331.033241,69.7567589 C330.70369,69.4272079 330.676389,68.9019398 330.97,68.54 L397.81,1.7 C398.070124,1.44263614 398.459101,1.36611563 398.797327,1.50577044 C399.135554,1.64542524 399.357229,1.97408616 399.36,2.34 Z" id="Shape"></path>
                <path d="M399.33,35.78 C399.329269,36.0208685 399.232016,36.2513924 399.06,36.42 L365.59,69.75 C365.22806,70.0436106 364.702792,70.0163098 364.373241,69.6867589 C364.04369,69.3572079 364.016389,68.8319398 364.31,68.47 L397.78,35.14 C398.040124,34.8826361 398.429101,34.8061156 398.767327,34.9457704 C399.105554,35.0854252 399.327229,35.4140862 399.33,35.78 Z" id="Shape"></path>
                <path d="M365.86,2.34 C365.861915,2.57942502 365.768348,2.80974442 365.6,2.98 L332.27,36.41 C332.050934,36.6800471 331.697125,36.8016456 331.358331,36.7233262 C331.019537,36.6450067 330.754993,36.3804629 330.676674,36.0416688 C330.598354,35.7028748 330.719953,35.349066 330.99,35.13 L364.32,1.7 C364.580124,1.44263614 364.969101,1.36611563 365.307327,1.50577044 C365.645554,1.64542524 365.867229,1.97408616 365.87,2.34 L365.86,2.34 Z" id="Shape"></path>
                <path d="M299.05,131.14 C298.671546,131.139218 298.333082,130.904284 298.2,130.55 L288.26,104 C288.112523,103.688962 288.153176,103.321331 288.365048,103.05003 C288.57692,102.778729 288.923742,102.650201 289.261247,102.717909 C289.598752,102.785617 289.869164,103.037972 289.96,103.37 L299.05,127.68 L308.14,103.37 C308.230836,103.037972 308.501248,102.785617 308.838753,102.717909 C309.176258,102.650201 309.52308,102.778729 309.734952,103.05003 C309.946824,103.321331 309.987477,103.688962 309.84,104 L299.9,130.58 C299.757321,130.922492 299.421001,131.144068 299.05,131.14 Z" id="Shape"></path>
                <path d="M302.6,109.7 C301.318541,109.656734 300.30386,108.602175 300.31,107.32 L300.31,104.56 L285.91,104.56 C283.895357,104.586322 282.175598,103.110104 281.896348,101.114735 C281.617098,99.1193659 282.865532,97.2277518 284.81,96.7 C284.008688,94.8009346 283.593942,92.7611972 283.59,90.7 C283.582029,86.5954765 285.207646,82.6564786 288.108111,79.7522612 C291.008577,76.8480438 294.94547,75.2173356 299.05,75.22 L299.25,75.22 C304.390027,75.2959292 309.155647,77.9233864 311.963479,82.2293967 C314.77131,86.5354071 315.25356,91.955933 313.25,96.69 C315.194468,97.2177518 316.442902,99.1093659 316.163652,101.104735 C315.884402,103.100104 314.164643,104.576322 312.15,104.55 L304.9,104.55 L304.9,107.36 C304.9,108.652346 303.852346,109.7 302.56,109.7 L302.6,109.7 Z M285.92,98.35 C284.765143,98.4279935 283.86824,99.3875123 283.86824,100.545 C283.86824,101.702488 284.765143,102.662007 285.92,102.74 L300.55,102.74 C301.394996,102.74 302.08,103.425004 302.08,104.27 L302.08,107.27 C302.073568,107.564584 302.296516,107.813762 302.59,107.84 C302.729637,107.842686 302.864485,107.789088 302.964177,107.691277 C303.06387,107.593465 303.120026,107.459663 303.12,107.32 L303.12,104.23 C303.12,103.385004 303.805004,102.7 304.65,102.7 L312.18,102.7 C313.334857,102.622007 314.23176,101.662488 314.23176,100.505 C314.23176,99.3475123 313.334857,98.3879935 312.18,98.31 L311.92,98.31 C311.603307,98.3074718 311.310706,98.1404724 311.147464,97.8690821 C310.984221,97.5976917 310.973819,97.2609484 311.12,96.98 C313.335164,92.7781424 313.204865,87.726485 310.776031,83.6444115 C308.347197,79.562338 303.969655,77.0377907 299.22,76.98 L299.05,76.98 C294.270013,76.9787672 289.838157,79.4797742 287.36835,83.5722466 C284.898543,87.664719 284.751208,92.7514347 286.98,96.98 C287.126181,97.2609484 287.115779,97.5976917 286.952536,97.8690821 C286.789294,98.1404724 286.496693,98.3074718 286.18,98.31 L285.92,98.35 Z" id="Shape"></path>
                <path d="M292.88,95.77 C291.598541,95.726734 290.58386,94.6721749 290.59,93.39 L290.59,90.58 C290.172918,90.4359742 289.919261,90.0134831 289.988205,89.577654 C290.05715,89.1418248 290.428829,88.8182569 290.87,88.81 C291.714996,88.81 292.4,89.4950043 292.4,90.34 L292.4,93.34 C292.393568,93.6345843 292.616516,93.8837618 292.91,93.91 C293.049637,93.9126858 293.184485,93.8590883 293.284177,93.7612767 C293.38387,93.6634652 293.440026,93.5296628 293.44,93.39 L293.44,90.3 C293.44,89.4550043 294.125004,88.77 294.97,88.77 C295.411171,88.7782569 295.78285,89.1018248 295.851795,89.537654 C295.920739,89.9734831 295.667082,90.3959742 295.25,90.54 L295.25,93.39 C295.25,94.6823463 294.202346,95.73 292.91,95.73 L292.88,95.77 Z" id="Shape"></path>
                <path d="M448.05,108.72 C444.427012,108.72 441.49,105.782988 441.49,102.16 C441.49,98.537012 444.427012,95.6 448.05,95.6 C451.672988,95.6 454.61,98.537012 454.61,102.16 C454.61,105.782988 451.672988,108.72 448.05,108.72 Z M448.05,97.42 C446.132849,97.42 444.404473,98.5748639 443.670811,100.346081 C442.937149,102.117297 443.342683,104.156056 444.698314,105.511686 C446.053944,106.867317 448.092703,107.272851 449.863919,106.539189 C451.635136,105.805527 452.79,104.077151 452.79,102.16 C452.784499,99.5444521 450.665548,97.4255006 448.05,97.42 Z" id="Shape"></path>
                <path d="M415.05,108.72 C411.427012,108.72 408.49,105.782988 408.49,102.16 C408.49,98.537012 411.427012,95.6 415.05,95.6 C418.672988,95.6 421.61,98.537012 421.61,102.16 C421.61,105.782988 418.672988,108.72 415.05,108.72 Z M415.05,97.42 C413.132849,97.42 411.404473,98.5748639 410.670811,100.346081 C409.937149,102.117297 410.342683,104.156056 411.698314,105.511686 C413.053944,106.867317 415.092703,107.272851 416.863919,106.539189 C418.635136,105.805527 419.79,104.077151 419.79,102.16 C419.784499,99.5444521 417.665548,97.4255006 415.05,97.42 Z" id="Shape"></path>
                <path d="M431.57,125.21 C427.947012,125.21 425.01,122.272988 425.01,118.65 C425.01,115.027012 427.947012,112.09 431.57,112.09 C435.192988,112.09 438.13,115.027012 438.13,118.65 C438.13,120.38982 437.438859,122.058382 436.20862,123.28862 C434.978382,124.518859 433.30982,125.21 431.57,125.21 Z M431.57,113.91 C428.95217,113.91 426.83,116.03217 426.83,118.65 C426.83,121.26783 428.95217,123.39 431.57,123.39 C434.18783,123.39 436.31,121.26783 436.31,118.65 C436.304499,116.034452 434.185548,113.915501 431.57,113.91 Z" id="Shape"></path>
                <path d="M431.57,92.23 C427.947012,92.23 425.01,89.292988 425.01,85.67 C425.01,82.047012 427.947012,79.11 431.57,79.11 C435.192988,79.11 438.13,82.047012 438.13,85.67 C438.13,87.4098202 437.438859,89.0783818 436.20862,90.3086205 C434.978382,91.5388591 433.30982,92.23 431.57,92.23 Z M431.57,80.93 C428.95217,80.93 426.83,83.0521703 426.83,85.67 C426.83,88.2878297 428.95217,90.41 431.57,90.41 C434.18783,90.41 436.31,88.2878297 436.31,85.67 C436.304499,83.0544521 434.185548,80.9355006 431.57,80.93 Z" id="Shape"></path>
                <path d="M464.99,136.49 C464.744187,136.489349 464.509337,136.388183 464.34,136.21 L439.15,109.95 C434.96134,105.769339 428.17866,105.769339 423.99,109.95 L398.81,136.2 C398.45514,136.503561 397.9281,136.489243 397.590246,136.166862 C397.252391,135.844482 397.213397,135.318692 397.5,134.95 L422.69,108.69 C427.593549,103.793357 435.536451,103.793357 440.44,108.69 L465.65,135 C465.894833,135.262929 465.962052,135.645296 465.821573,135.975962 C465.681094,136.306629 465.359214,136.523692 465,136.53 L464.99,136.49 Z" id="Shape"></path>
                <path d="M431.57,99.31 C428.246191,99.3132795 425.057939,97.9926378 422.71,95.64 L397.51,69.37 C397.223397,69.0013084 397.262391,68.4755178 397.600246,68.1531375 C397.9381,67.8307573 398.46514,67.816439 398.82,68.12 L424.01,94.38 C428.19866,98.5606605 434.98134,98.5606605 439.17,94.38 L464.35,68.13 C464.70486,67.826439 465.2319,67.8407573 465.569754,68.1631375 C465.907609,68.4855178 465.946603,69.0113084 465.66,69.38 L440.47,95.64 C438.110397,97.9996627 434.907008,99.3206105 431.57,99.31 Z" id="Shape"></path>
                <path d="M166.24,110.77 C163.275292,110.77 160.602508,108.984103 159.467963,106.24507 C158.333418,103.506036 158.960542,100.353273 161.056907,98.2569073 C163.153273,96.160542 166.306036,95.5334183 169.04507,96.667963 C171.784103,97.8025078 173.57,100.475292 173.57,103.44 C173.564492,107.485963 170.285963,110.764492 166.24,110.77 Z M166.24,97.91 C163.191388,97.91 160.72,100.381388 160.72,103.43 C160.72,106.478612 163.191388,108.95 166.24,108.95 C169.288612,108.95 171.76,106.478612 171.76,103.43 C171.754496,100.383671 169.286329,97.9155038 166.24,97.91 Z" id="Shape"></path>
                <path d="M151.36,125.52 C147.311753,125.52 144.03,122.238247 144.03,118.19 C144.03,114.141753 147.311753,110.86 151.36,110.86 C155.408247,110.86 158.69,114.141753 158.69,118.19 C158.684492,122.235963 155.405963,125.514492 151.36,125.52 Z M151.36,112.67 C148.311388,112.67 145.84,115.141388 145.84,118.19 C145.84,121.238612 148.311388,123.71 151.36,123.71 C154.408612,123.71 156.88,121.238612 156.88,118.19 C156.880005,115.139766 154.410229,112.665516 151.36,112.66 L151.36,112.67 Z" id="Shape"></path>
                <path d="M180.99,95.88 C176.941753,95.88 173.66,92.5982472 173.66,88.55 C173.66,84.5017528 176.941753,81.22 180.99,81.22 C185.038247,81.22 188.32,84.5017528 188.32,88.55 C188.314492,92.5959633 185.035963,95.8744915 180.99,95.88 Z M180.99,83.03 C177.941388,83.03 175.47,85.5013882 175.47,88.55 C175.47,91.5986118 177.941388,94.07 180.99,94.07 C184.038612,94.07 186.51,91.5986118 186.51,88.55 C186.515313,87.0816219 185.936409,85.6714188 184.900919,84.6303019 C183.86543,83.5891849 182.458385,83.0026457 180.99,83 L180.99,83.03 Z" id="Shape"></path>
                <path d="M151.36,95.88 C147.311753,95.88 144.03,92.5982472 144.03,88.55 C144.03,84.5017528 147.311753,81.22 151.36,81.22 C155.408247,81.22 158.69,84.5017528 158.69,88.55 C158.684492,92.5959633 155.405963,95.8744915 151.36,95.88 Z M151.36,83.03 C148.311388,83.03 145.84,85.5013882 145.84,88.55 C145.84,91.5986118 148.311388,94.07 151.36,94.07 C154.408612,94.07 156.88,91.5986118 156.88,88.55 C156.885313,87.0816219 156.306409,85.6714188 155.270919,84.6303019 C154.23543,83.5891849 152.828385,83.0026457 151.36,83 L151.36,83.03 Z" id="Shape"></path>
                <path d="M180.99,125.25 C176.941753,125.25 173.66,121.968247 173.66,117.92 C173.66,113.871753 176.941753,110.59 180.99,110.59 C185.038247,110.59 188.32,113.871753 188.32,117.92 C188.314492,121.965963 185.035963,125.244492 180.99,125.25 Z M180.99,112.4 C177.941388,112.4 175.47,114.871388 175.47,117.92 C175.47,120.968612 177.941388,123.44 180.99,123.44 C184.038612,123.44 186.51,120.968612 186.51,117.92 C186.510005,114.869766 184.040229,112.395516 180.99,112.39 L180.99,112.4 Z" id="Shape"></path>
                <path d="M17.93,29.14 C21.552988,29.14 24.49,32.077012 24.49,35.7 C24.49,39.322988 21.552988,42.26 17.93,42.26 C14.307012,42.26 11.37,39.322988 11.37,35.7 C11.37,33.9601798 12.0611409,32.2916182 13.2913795,31.0613795 C14.5216182,29.8311409 16.1901798,29.14 17.93,29.14 Z M17.93,40.44 C19.847151,40.44 21.575527,39.2851361 22.309189,37.5139195 C23.0428509,35.7427029 22.6373166,33.7039444 21.2816861,32.3483139 C19.9260556,30.9926834 17.8872971,30.5871491 16.1160805,31.320811 C14.3448639,32.054473 13.19,33.782849 13.19,35.7 C13.1899942,38.3194523 15.3105535,40.4444854 17.93,40.45 L17.93,40.44 Z" id="Shape"></path>
                <path d="M50.91,29.14 C54.532988,29.14 57.47,32.077012 57.47,35.7 C57.47,39.322988 54.532988,42.26 50.91,42.26 C47.287012,42.26 44.35,39.322988 44.35,35.7 C44.35,33.9601798 45.0411409,32.2916182 46.2713795,31.0613795 C47.5016182,29.8311409 49.1701798,29.14 50.91,29.14 Z M50.91,40.44 C52.827151,40.44 54.555527,39.2851361 55.289189,37.5139195 C56.0228509,35.7427029 55.6173166,33.7039444 54.2616861,32.3483139 C52.9060556,30.9926834 50.8672971,30.5871491 49.0960805,31.320811 C47.3248639,32.054473 46.17,33.782849 46.17,35.7 C46.1699942,38.3194523 48.2905535,40.4444854 50.91,40.45 L50.91,40.44 Z" id="Shape"></path>
                <path d="M34.42,12.65 C38.042988,12.65 40.98,15.587012 40.98,19.21 C40.98,22.832988 38.042988,25.77 34.42,25.77 C30.797012,25.77 27.86,22.832988 27.86,19.21 C27.86,15.587012 30.797012,12.65 34.42,12.65 Z M34.42,23.95 C37.0378297,23.95 39.16,21.8278297 39.16,19.21 C39.16,16.5921703 37.0378297,14.47 34.42,14.47 C31.8021703,14.47 29.68,16.5921703 29.68,19.21 C29.6693446,20.4749631 30.1637083,21.691923 31.0534987,22.5910994 C31.9432892,23.4902758 33.1549947,23.9973817 34.42,24 L34.42,23.95 Z" id="Shape"></path>
                <path d="M34.42,45.64 C38.042988,45.64 40.98,48.577012 40.98,52.2 C40.98,55.822988 38.042988,58.76 34.42,58.76 C30.797012,58.76 27.86,55.822988 27.86,52.2 C27.86,48.577012 30.797012,45.64 34.42,45.64 Z M34.42,56.94 C36.337151,56.94 38.065527,55.7851361 38.799189,54.0139195 C39.5328509,52.2427029 39.1273166,50.2039444 37.7716861,48.8483139 C36.4160556,47.4926834 34.3772971,47.0871491 32.6060805,47.820811 C30.8348639,48.554473 29.68,50.282849 29.68,52.2 C29.6855006,54.8155479 31.8044521,56.9344994 34.42,56.94 Z" id="Shape"></path>
                <path d="M1.05,1.38 C1.29581271,1.38065093 1.53066262,1.48181704 1.7,1.66 L26.89,27.92 C31.0786604,32.1006605 37.8613396,32.1006605 42.05,27.92 L67.23,1.67 C67.5848597,1.366439 68.1118998,1.38075731 68.4497543,1.70313754 C68.7876087,2.02551778 68.8266028,2.55130836 68.54,2.92 L43.35,29.18 C38.4464507,34.0766428 30.5035493,34.0766428 25.6,29.18 L0.4,2.91 C0.155167371,2.64707074 0.0879478477,2.26470424 0.228427114,1.93403766 C0.368906381,1.60337108 0.690785549,1.38630795 1.05,1.38 Z" id="Shape"></path>
                <path d="M34.43,38.55 C37.7538094,38.5467205 40.9420615,39.8673622 43.29,42.22 L68.49,68.49 C68.7766028,68.8586916 68.7376087,69.3844822 68.3997543,69.7068625 C68.0618998,70.0292427 67.5348597,70.043561 67.18,69.74 L41.99,43.48 C37.8013396,39.2993395 31.0186604,39.2993395 26.83,43.48 L1.65,69.73 C1.29514032,70.033561 0.768100233,70.0192427 0.430245747,69.6968625 C0.0923912597,69.3744822 0.053397236,68.8486916 0.34,68.48 L25.53,42.22 C27.8896034,39.8603373 31.0929918,38.5393895 34.43,38.55 Z" id="Shape"></path>
                <path d="M665.6,2.39 C665.601915,2.62942502 665.508348,2.85974442 665.34,3.03 L599.04,69.33 C598.818805,69.5826323 598.475367,69.6911195 598.149185,69.6113957 C597.823004,69.5316718 597.568328,69.2769963 597.488604,68.9508147 C597.40888,68.6246331 597.517368,68.281195 597.77,68.06 L664.07,1.76 C664.328435,1.50667946 664.713461,1.43278687 665.047314,1.57243775 C665.381166,1.71208863 665.598904,2.03811755 665.6,2.4 L665.6,2.39 Z" id="Shape"></path>
                <path d="M665.56,35.56 C665.560402,35.8010982 665.462972,36.032044 665.29,36.2 L632.05,69.26 C631.828805,69.5126323 631.485367,69.6211195 631.159185,69.5413957 C630.833004,69.4616718 630.578328,69.2069963 630.498604,68.8808147 C630.41888,68.5546331 630.527368,68.211195 630.78,67.99 L663.98,34.93 C664.238435,34.6766795 664.623461,34.6027869 664.957314,34.7424378 C665.291166,34.8820886 665.508904,35.2081175 665.51,35.57 L665.56,35.56 Z" id="Shape"></path>
                <path d="M632.37,2.39 C632.369272,2.62596391 632.275903,2.85220376 632.11,3.02 L599.05,36.19 C598.693432,36.5021968 598.155852,36.4843828 597.820735,36.1492654 C597.485617,35.8141479 597.467803,35.2765677 597.78,34.92 L630.84,1.75 C631.096231,1.49083828 631.483464,1.41178474 631.820774,1.54977512 C632.158084,1.68776549 632.378879,2.01555797 632.38,2.38 L632.37,2.39 Z" id="Shape"></path>
                <path d="M655.47,119.37 L609.27,119.37 C608.717715,119.37 608.27,118.922285 608.27,118.37 L608.27,85.83 C608.27,85.2777153 608.717715,84.83 609.27,84.83 L655.47,84.83 C656.022285,84.83 656.47,85.2777153 656.47,85.83 L656.47,118.37 C656.47,118.922285 656.022285,119.37 655.47,119.37 Z M610.25,117.37 L654.5,117.37 L654.5,86.78 L610.24,86.78 L610.25,117.37 Z" id="Shape"></path>
                <path d="M651.42,112.32 L613.31,112.32 C612.757715,112.32 612.31,111.872285 612.31,111.32 L612.31,89.66 C612.31,89.1077153 612.757715,88.66 613.31,88.66 L651.42,88.66 C651.972285,88.66 652.42,89.1077153 652.42,89.66 L652.42,111.32 C652.42,111.872285 651.972285,112.32 651.42,112.32 Z M614.29,110.32 L650.44,110.32 L650.44,90.62 L614.29,90.62 L614.29,110.32 Z" id="Shape"></path>
                <path d="M627.2,127.31 C626.647715,127.31 626.2,126.862285 626.2,126.31 L626.2,120.16 C626.2,119.607715 626.647715,119.16 627.2,119.16 C627.752285,119.16 628.2,119.607715 628.2,120.16 L628.2,126.31 C628.2,126.862285 627.752285,127.31 627.2,127.31 Z" id="Shape"></path>
                <path d="M637.53,127.31 C636.977715,127.31 636.53,126.862285 636.53,126.31 L636.53,120.16 C636.53,119.607715 636.977715,119.16 637.53,119.16 C638.082285,119.16 638.53,119.607715 638.53,120.16 L638.53,126.31 C638.53,126.862285 638.082285,127.31 637.53,127.31 Z" id="Shape"></path>
                <path d="M644.23,127.31 L620.5,127.31 C619.947715,127.31 619.5,126.862285 619.5,126.31 C619.5,125.757715 619.947715,125.31 620.5,125.31 L644.23,125.31 C644.782285,125.31 645.23,125.757715 645.23,126.31 C645.23,126.862285 644.782285,127.31 644.23,127.31 Z" id="Shape"></path>
            </g>
        </g>
    </g>
</svg>