<?xml version="1.0" encoding="UTF-8"?>
<svg width="671px" height="137px" viewBox="0 0 671 137" version="1.1" xmlns="http://www.w3.org/2000/svg" xmlns:xlink="http://www.w3.org/1999/xlink">
    <!-- Generator: Sketch 50.2 (55047) - http://www.bohemiancoding.com/sketch -->
    <title>Group 4</title>
    <desc>Created with Sketch.</desc>
    <defs></defs>
    <g id="Page-1" stroke="none" stroke-width="1" fill="none" fill-rule="evenodd">
        <g id="splash_3.2_mobile-copy" transform="translate(-559.000000, -4589.000000)" fill="#20D2A2" fill-rule="nonzero">
            <g id="Group-4" transform="translate(559.000000, 4589.000000)">
                <g id="Group-3">
                    <path d="M234.9,62.82 C234.521546,62.8192177 234.183082,62.5842837 234.05,62.23 L224.11,35.65 C223.985544,35.1950824 224.229282,34.7204673 224.671526,34.5565771 C225.113769,34.3926869 225.607939,34.5938419 225.81,35.02 L234.9,59.33 L243.99,35.02 C244.192061,34.5938419 244.686231,34.3926869 245.128474,34.5565771 C245.570718,34.7204673 245.814456,35.1950824 245.69,35.65 L235.75,62.23 C235.616918,62.5842837 235.278454,62.8192177 234.9,62.82 Z" id="Shape"></path>
                    <path d="M238.45,41.37 C237.168541,41.326734 236.15386,40.2721749 236.16,38.99 L236.16,36.23 L221.77,36.23 C219.755357,36.2563223 218.035598,34.7801042 217.756348,32.784735 C217.477098,30.7893659 218.725532,28.8977518 220.67,28.37 C219.868688,26.4709346 219.453942,24.4311972 219.45,22.37 C219.45,13.8372006 226.367201,6.92 234.9,6.92 L235.1,6.92 C240.240027,6.99592916 245.005647,9.62338638 247.813479,13.9293967 C250.62131,18.2354071 251.10356,23.655933 249.1,28.39 C251.044468,28.9177518 252.292902,30.8093659 252.013652,32.804735 C251.734402,34.8001042 250.014643,36.2763223 248,36.25 L240.75,36.25 L240.75,39 C240.75,40.2923463 239.702346,41.34 238.41,41.34 L238.45,41.37 Z M221.77,30 C220.615143,30.0779935 219.71824,31.0375123 219.71824,32.195 C219.71824,33.3524877 220.615143,34.3120065 221.77,34.39 L236.4,34.39 C237.244996,34.39 237.93,35.0750043 237.93,35.92 L237.93,38.92 C237.923568,39.2145843 238.146516,39.4637618 238.44,39.49 C238.579637,39.4926858 238.714485,39.4390883 238.814177,39.3412767 C238.91387,39.2434652 238.970026,39.1096628 238.97,38.97 L238.97,35.88 C238.97,35.0350043 239.655004,34.35 240.5,34.35 L248.05,34.35 C248.86956,34.4053491 249.651693,33.9995096 250.078291,33.2975441 C250.504889,32.5955786 250.504889,31.7144214 250.078291,31.0124559 C249.651693,30.3104904 248.86956,29.9046509 248.05,29.96 L247.79,29.96 C247.473307,29.9574718 247.180706,29.7904724 247.017464,29.5190821 C246.854221,29.2476917 246.843819,28.9109484 246.99,28.63 C249.205164,24.4281424 249.074865,19.376485 246.646031,15.2944115 C244.217197,11.212338 239.839655,8.6877907 235.09,8.63 L234.91,8.63 C230.130013,8.62876725 225.698157,11.1297742 223.22835,15.2222466 C220.758543,19.314719 220.611208,24.4014347 222.84,28.63 C222.986181,28.9109484 222.975779,29.2476917 222.812536,29.5190821 C222.649294,29.7904724 222.356693,29.9574718 222.04,29.96 L221.77,30 Z" id="Shape"></path>
                    <path d="M228.74,27.44 C227.458541,27.396734 226.44386,26.3421749 226.45,25.06 L226.45,22.25 C226.032918,22.1059742 225.779261,21.6834831 225.848205,21.247654 C225.91715,20.8118248 226.288829,20.4882569 226.73,20.48 C227.574996,20.48 228.26,21.1650043 228.26,22.01 L228.26,25.01 C228.253568,25.3045843 228.476516,25.5537618 228.77,25.58 C228.909637,25.5826858 229.044485,25.5290883 229.144177,25.4312767 C229.24387,25.3334652 229.300026,25.1996628 229.3,25.06 L229.3,22 C229.3,21.1550043 229.985004,20.47 230.83,20.47 C231.271171,20.4782569 231.64285,20.8018248 231.711795,21.237654 C231.780739,21.6734831 231.527082,22.0959742 231.11,22.24 L231.11,25.09 C231.11,26.3823463 230.062346,27.43 228.77,27.43 L228.74,27.44 Z" id="Shape"></path>
                    <path d="M0.05,68.26 C0.0507313403,68.0191315 0.147983611,67.7886076 0.32,67.62 L67.14,0.8 C67.5019398,0.50638935 68.0272079,0.533690206 68.3567589,0.863241149 C68.6863098,1.19279209 68.7136106,1.71806018 68.42,2.08 L1.64,68.9 C1.37987608,69.1573639 0.99089943,69.2338844 0.652672955,69.0942296 C0.31444648,68.9545748 0.0927705513,68.6259138 0.09,68.26 L0.05,68.26 Z" id="Shape"></path>
                    <path d="M0.13,34.84 C0.13073134,34.5991315 0.227983611,34.3686076 0.4,34.2 L33.86,0.87 C34.2219398,0.57638935 34.7472079,0.603690206 35.0767589,0.933241149 C35.4063098,1.26279209 35.4336106,1.78806018 35.14,2.15 L1.68,35.48 C1.41987608,35.7373639 1.03089943,35.8138844 0.692672955,35.6742296 C0.35444648,35.5345748 0.132770551,35.2059138 0.13,34.84 Z" id="Shape"></path>
                    <path d="M33.59,68.26 C33.5880848,68.020575 33.681652,67.7902556 33.85,67.62 L67.18,34.19 C67.5419398,33.8963894 68.0672079,33.9236902 68.3967589,34.2532411 C68.7263098,34.5827921 68.7536106,35.1080602 68.46,35.47 L35.14,68.9 C34.8798761,69.1573639 34.4908994,69.2338844 34.152673,69.0942296 C33.8144465,68.9545748 33.5927706,68.6259138 33.59,68.26 Z" id="Shape"></path>
                    <path d="M67.82,136 C67.5791315,135.999269 67.3486076,135.902016 67.18,135.73 L0.36,69 C0.0899528738,68.780934 -0.0316455957,68.4271252 0.0466738464,68.0883312 C0.124993288,67.7495371 0.389537069,67.4849933 0.728331153,67.4066738 C1.06712524,67.3283544 1.42093399,67.4499529 1.64,67.72 L68.46,134.54 C68.7173639,134.800124 68.7938844,135.189101 68.6542296,135.527327 C68.5145748,135.865554 68.1859138,136.087229 67.82,136.09 L67.82,136 Z" id="Shape"></path>
                    <path d="M34.4,136 C34.1591315,135.999269 33.9286076,135.902016 33.76,135.73 L0.43,102.27 C0.13638935,101.90806 0.163690206,101.382792 0.493241149,101.053241 C0.822792093,100.72369 1.34806018,100.696389 1.71,100.99 L35.05,134.46 C35.3073639,134.720124 35.3838844,135.109101 35.2442296,135.447327 C35.1045748,135.785554 34.7759138,136.007229 34.41,136.01 L34.4,136 Z" id="Shape"></path>
                    <path d="M67.82,102.55 C67.580575,102.551915 67.3502556,102.458348 67.18,102.29 L33.76,69 C33.4899529,68.780934 33.3683544,68.4271252 33.4466738,68.0883312 C33.5249933,67.7495371 33.7895371,67.4849933 34.1283312,67.4066738 C34.4671252,67.3283544 34.820934,67.4499529 35.04,67.72 L68.46,101 C68.7173639,101.260124 68.7938844,101.649101 68.6542296,101.987327 C68.5145748,102.325554 68.1859138,102.547229 67.82,102.55 Z" id="Shape"></path>
                    <path d="M201.46,136 C201.219132,135.999269 200.988608,135.902016 200.82,135.73 L134,69 C133.729953,68.780934 133.608354,68.4271252 133.686674,68.0883312 C133.764993,67.7495371 134.029537,67.4849933 134.368331,67.4066738 C134.707125,67.3283544 135.060934,67.4499529 135.28,67.72 L202.05,134.49 C202.307364,134.750124 202.383884,135.139101 202.24423,135.477327 C202.104575,135.815554 201.775914,136.037229 201.41,136.04 L201.46,136 Z" id="Shape"></path>
                    <path d="M168.05,136 C167.809132,135.999269 167.578608,135.902016 167.41,135.73 L134.05,102.28 C133.756389,101.91806 133.78369,101.392792 134.113241,101.063241 C134.442792,100.73369 134.96806,100.706389 135.33,101 L168.66,134.46 C168.90736,134.716931 168.981827,135.094677 168.850484,135.426263 C168.719142,135.757849 168.406204,135.982143 168.05,136 Z" id="Shape"></path>
                    <path d="M201.46,102.55 C201.220575,102.551915 200.990256,102.458348 200.82,102.29 L167.39,69 C167.119953,68.780934 166.998354,68.4271252 167.076674,68.0883312 C167.154993,67.7495371 167.419537,67.4849933 167.758331,67.4066738 C168.097125,67.3283544 168.450934,67.4499529 168.67,67.72 L202.05,101 C202.307364,101.260124 202.383884,101.649101 202.24423,101.987327 C202.104575,102.325554 201.775914,102.547229 201.41,102.55 L201.46,102.55 Z" id="Shape"></path>
                    <path d="M84.51,52.43 C84.0074209,52.43 83.6,52.0225791 83.6,51.52 L83.6,18.11 C83.6487516,17.6468583 84.0392995,17.2952628 84.505,17.2952628 C84.9707005,17.2952628 85.3612484,17.6468583 85.41,18.11 L85.41,51.52 C85.4100301,52.0186996 85.0086695,52.4245198 84.51,52.43 Z" id="Shape"></path>
                    <path d="M101.15,69.17 C100.647421,69.17 100.24,68.7625791 100.24,68.26 L100.24,1.44 C100.203575,1.09395978 100.367663,0.757440556 100.662733,0.573038641 C100.957804,0.388636727 101.332196,0.388636727 101.627267,0.573038641 C101.922337,0.757440556 102.086425,1.09395978 102.05,1.44 L102.05,68.26 C102.05003,68.7586996 101.64867,69.1645198 101.15,69.17 Z" id="Shape"></path>
                    <path d="M117.92,52.43 C117.417421,52.43 117.01,52.0225791 117.01,51.52 L117.01,18.11 C117.058752,17.6468583 117.4493,17.2952628 117.915,17.2952628 C118.3807,17.2952628 118.771248,17.6468583 118.82,18.11 L118.82,51.52 C118.82003,52.0186996 118.41867,52.4245198 117.92,52.43 Z" id="Shape"></path>
                    <path d="M301.69,136 C301.448653,136 301.217191,135.904125 301.046533,135.733467 C300.875875,135.562809 300.78,135.331347 300.78,135.09 L300.78,68.3 C300.828752,67.8368583 301.2193,67.4852628 301.685,67.4852628 C302.1507,67.4852628 302.541248,67.8368583 302.59,68.3 L302.59,135.09 C302.59003,135.5887 302.18867,135.99452 301.69,136 Z" id="Shape"></path>
                    <path d="M335.05,102.63 L268.29,102.63 C267.94396,102.666425 267.607441,102.502337 267.423039,102.207267 C267.238637,101.912196 267.238637,101.537804 267.423039,101.242733 C267.607441,100.947663 267.94396,100.783575 268.29,100.82 L335.05,100.82 C335.39604,100.783575 335.732559,100.947663 335.916961,101.242733 C336.101363,101.537804 336.101363,101.912196 335.916961,102.207267 C335.732559,102.502337 335.39604,102.666425 335.05,102.63 Z" id="Shape"></path>
                    <path d="M268.29,136 C267.924086,135.997229 267.595425,135.775554 267.45577,135.437327 C267.316116,135.099101 267.392636,134.710124 267.65,134.45 L334.44,67.66 C334.80194,67.3663894 335.327208,67.3936902 335.656759,67.7232411 C335.98631,68.0527921 336.013611,68.5780602 335.72,68.94 L268.93,135.73 C268.761392,135.902016 268.530868,135.999269 268.29,136 Z" id="Shape"></path>
                    <path d="M335.05,136 C334.809132,135.999269 334.578608,135.902016 334.41,135.73 L267.64,69 C267.369953,68.780934 267.248354,68.4271252 267.326674,68.0883312 C267.404993,67.7495371 267.669537,67.4849933 268.008331,67.4066738 C268.347125,67.3283544 268.700934,67.4499529 268.92,67.72 L335.74,134.54 C335.945452,134.810309 335.983334,135.172515 335.838259,135.479485 C335.693184,135.786456 335.389282,135.987133 335.05,136 Z" id="Shape"></path>
                    <path d="M670.05,68.31 C670.049269,68.5508685 669.952016,68.7813924 669.78,68.95 L603.05,135.77 C602.830934,136.040047 602.477125,136.161646 602.138331,136.083326 C601.799537,136.005007 601.534993,135.740463 601.456674,135.401669 C601.378354,135.062875 601.499953,134.709066 601.77,134.49 L668.59,67.67 C668.850124,67.4126361 669.239101,67.3361156 669.577327,67.4757704 C669.915554,67.6154252 670.137229,67.9440862 670.14,68.31 L670.05,68.31 Z" id="Shape"></path>
                    <path d="M670.05,101.74 C670.049269,101.980868 669.952016,102.211392 669.78,102.38 L636.32,135.71 C635.95806,136.003611 635.432792,135.97631 635.103241,135.646759 C634.77369,135.317208 634.746389,134.79194 635.04,134.43 L668.5,101.1 C668.760124,100.842636 669.149101,100.766116 669.487327,100.90577 C669.825554,101.045425 670.047229,101.374086 670.05,101.74 Z" id="Shape"></path>
                    <path d="M636.6,68.31 C636.601915,68.549425 636.508348,68.7797444 636.34,68.95 L603.05,102.38 C602.830934,102.650047 602.477125,102.771646 602.138331,102.693326 C601.799537,102.615007 601.534993,102.350463 601.456674,102.011669 C601.378354,101.672875 601.499953,101.319066 601.77,101.1 L635.05,67.67 C635.310124,67.4126361 635.699101,67.3361156 636.037327,67.4757704 C636.375554,67.6154252 636.597229,67.9440862 636.6,68.31 Z" id="Shape"></path>
                    <path d="M468.6,135.83 C469.063142,135.781248 469.414737,135.3907 469.414737,134.925 C469.414737,134.4593 469.063142,134.068752 468.6,134.02 C467.28,134.02 436.2,133.61 436.2,101.55 C436.2,67.66 402.2,67.27 401.85,67.27 C401.386858,67.3187516 401.035263,67.7092995 401.035263,68.175 C401.035263,68.6407005 401.386858,69.0312484 401.85,69.08 C407.531233,69.3016612 413.104975,70.6976503 418.22,73.18 C428.95,78.56 434.38,88.1 434.38,101.55 C434.38,135.44 468.25,135.83 468.6,135.83 Z" id="Shape"></path>
                    <path d="M435.29,135.9 C435.753142,135.851248 436.104737,135.4607 436.104737,134.995 C436.104737,134.5293 435.753142,134.138752 435.29,134.09 C432.514748,133.976554 429.792138,133.295902 427.29,132.09 C422.09,129.48 419.45,124.85 419.45,118.34 C419.45,100.99 402.07,100.68 401.89,100.68 C401.426858,100.728752 401.075263,101.1193 401.075263,101.585 C401.075263,102.0507 401.426858,102.441248 401.89,102.49 C402.53,102.49 417.65,102.8 417.65,118.34 C417.65,135.7 435.17,135.93 435.34,135.93 L435.29,135.9 Z" id="Shape"></path>
                    <path d="M468.66,102.56 C469.123142,102.511248 469.474737,102.1207 469.474737,101.655 C469.474737,101.1893 469.123142,100.798752 468.66,100.75 C465.884748,100.636554 463.162138,99.9559018 460.66,98.75 C455.46,96.14 452.82,91.51 452.82,85 C452.82,67.65 435.44,67.34 435.27,67.34 C434.806858,67.3887516 434.455263,67.7792995 434.455263,68.245 C434.455263,68.7107005 434.806858,69.1012484 435.27,69.15 C435.91,69.15 451.02,69.46 451.02,85 C451.02,102.36 468.54,102.59 468.71,102.59 L468.66,102.56 Z" id="Shape"></path>
                    <path d="M268.31,85.94 L201.56,85.94 C201.096858,85.8912484 200.745263,85.5007005 200.745263,85.035 C200.745263,84.5692995 201.096858,84.1787516 201.56,84.13 L268.31,84.13 C268.773142,84.1787516 269.124737,84.5692995 269.124737,85.035 C269.124737,85.5007005 268.773142,85.8912484 268.31,85.94 Z" id="Shape"></path>
                    <path d="M268.24,102.56 L201.49,102.56 C201.026858,102.511248 200.675263,102.1207 200.675263,101.655 C200.675263,101.1893 201.026858,100.798752 201.49,100.75 L268.24,100.75 C268.703142,100.798752 269.054737,101.1893 269.054737,101.655 C269.054737,102.1207 268.703142,102.511248 268.24,102.56 Z" id="Shape"></path>
                    <path d="M268.31,119.32 L201.56,119.32 C201.21396,119.356425 200.877441,119.192337 200.693039,118.897267 C200.508637,118.602196 200.508637,118.227804 200.693039,117.932733 C200.877441,117.637663 201.21396,117.473575 201.56,117.51 L268.31,117.51 C268.65604,117.473575 268.992559,117.637663 269.176961,117.932733 C269.361363,118.227804 269.361363,118.602196 269.176961,118.897267 C268.992559,119.192337 268.65604,119.356425 268.31,119.32 Z" id="Shape"></path>
                    <path d="M552.26,119.3 C551.757421,119.3 551.35,118.892579 551.35,118.39 L551.35,85 C551.398752,84.5368583 551.7893,84.1852628 552.255,84.1852628 C552.7207,84.1852628 553.111248,84.5368583 553.16,85 L553.16,118.41 C553.149237,118.90089 552.750979,119.294722 552.26,119.3 Z" id="Shape"></path>
                    <path d="M568.9,136 C568.397421,136 567.99,135.592579 567.99,135.09 L567.99,68.27 C568.038752,67.8068583 568.4293,67.4552628 568.895,67.4552628 C569.3607,67.4552628 569.751248,67.8068583 569.8,68.27 L569.8,135.09 C569.80003,135.5887 569.39867,135.99452 568.9,136 Z" id="Shape"></path>
                    <path d="M585.67,119.3 C585.167421,119.3 584.76,118.892579 584.76,118.39 L584.76,85 C584.808752,84.5368583 585.1993,84.1852628 585.665,84.1852628 C586.1307,84.1852628 586.521248,84.5368583 586.57,85 L586.57,118.41 C586.559237,118.90089 586.160979,119.294722 585.67,119.3 Z" id="Shape"></path>
                    <path d="M401.92,69.17 C400.229729,69.1913143 398.605441,68.5148292 397.43,67.3 C392.6,62.46 392.61,49 392.62,34.75 C392.62,21.56 392.62,7.92 388.39,3.66 C387.641368,2.87791528 386.621358,2.41264739 385.54,2.36 C385.444719,2.39887514 385.342903,2.4192383 385.24,2.42 C384.045409,2.39824992 382.896105,2.87682441 382.07,3.74 C377.83,7.98 377.84,21.49 377.86,34.56 C377.86,48.68 377.86,62.01 373.07,66.83 C371.890121,68.0443726 370.263043,68.7205142 368.57,68.7 L368.44,68.7 C366.746957,68.7205142 365.119879,68.0443726 363.94,66.83 C359.12,62.01 359.14,48.67 359.15,34.56 C359.15,21.5 359.15,7.99 354.94,3.74 C354.113895,2.87682441 352.964591,2.39824992 351.77,2.42 C351.660573,2.41962017 351.552132,2.39928754 351.45,2.36 C350.375915,2.41865999 349.364276,2.88337049 348.62,3.66 C344.36,7.92 344.38,21.56 344.39,34.75 C344.39,49 344.39,62.46 339.58,67.3 C338.404559,68.5148292 336.780271,69.1913143 335.09,69.17 C334.74396,69.2064251 334.407441,69.0423373 334.223039,68.7472669 C334.038637,68.4521964 334.038637,68.0778036 334.223039,67.7827331 C334.407441,67.4876627 334.74396,67.3235749 335.09,67.36 C336.2953,67.3814425 337.454978,66.8994515 338.29,66.03 C342.59,61.72 342.58,48.03 342.57,34.76 C342.57,20.58 342.57,7.18 347.33,2.39 C348.490728,1.19345242 350.093108,0.527904126 351.76,0.55 C351.887578,0.550435584 352.013638,0.577691898 352.13,0.63 C353.674726,0.701240576 355.134024,1.35935531 356.21,2.47 C360.98,7.25 360.97,20.47 360.95,34.57 C360.95,47.7 360.95,61.27 365.21,65.57 C366.049453,66.4462319 367.216748,66.9320008 368.43,66.91 L368.56,66.91 C369.773252,66.9320008 370.940547,66.4462319 371.78,65.57 C376.07,61.28 376.05,47.71 376.04,34.57 C376.04,20.52 376.04,7.25 380.78,2.47 C381.863407,1.35238385 383.334756,0.693677676 384.89,0.63 C384.996057,0.578615819 385.112158,0.551298129 385.23,0.55 C386.896663,0.529090528 388.498592,1.19445169 389.66,2.39 C394.45,7.18 394.44,20.58 394.42,34.76 C394.42,48.01 394.42,61.76 398.7,66.03 C399.535022,66.8994515 400.6947,67.3814425 401.9,67.36 C402.24604,67.3235749 402.582559,67.4876627 402.766961,67.7827331 C402.951363,68.0778036 402.951363,68.4521964 402.766961,68.7472669 C402.582559,69.0423373 402.24604,69.2064251 401.9,69.17 L401.92,69.17 Z" id="Shape"></path>
                    <path d="M184.54,41.41 C181.885821,41.414046 179.49074,39.8183211 178.472225,37.3673402 C177.45371,34.9163592 178.012485,32.0931476 179.887843,30.2149267 C181.7632,28.3367058 184.585556,27.7736248 187.038088,28.7883994 C189.49062,29.8031741 191.089997,32.1958183 191.09,34.85 C191.090004,38.4690863 188.159082,41.4044831 184.54,41.41 Z M184.54,30.11 C181.92217,30.11 179.8,32.2321703 179.8,34.85 C179.8,37.4678297 181.92217,39.59 184.54,39.59 C187.15783,39.59 189.28,37.4678297 189.28,34.85 C189.274499,32.2344521 187.155548,30.1155006 184.54,30.11 Z" id="Shape"></path>
                    <path d="M151.56,41.41 C147.937012,41.41 145,38.472988 145,34.85 C145,31.227012 147.937012,28.29 151.56,28.29 C155.182988,28.29 158.12,31.227012 158.12,34.85 C158.12,36.5898202 157.428859,38.2583818 156.19862,39.4886205 C154.968382,40.7188591 153.29982,41.41 151.56,41.41 Z M151.56,30.11 C148.94217,30.11 146.82,32.2321703 146.82,34.85 C146.82,37.4678297 148.94217,39.59 151.56,39.59 C154.17783,39.59 156.3,37.4678297 156.3,34.85 C156.294499,32.2344521 154.175548,30.1155006 151.56,30.11 Z" id="Shape"></path>
                    <path d="M168.05,57.89 C165.396728,57.89 163.004714,56.2917073 161.98935,53.8404033 C160.973987,51.3890993 161.535233,48.5675264 163.41138,46.6913795 C165.287526,44.8152327 168.109099,44.2539869 170.560403,45.2693503 C173.011707,46.2847136 174.61,48.6767277 174.61,51.33 C174.61,53.0698202 173.918859,54.7383818 172.68862,55.9686205 C171.458382,57.1988591 169.78982,57.89 168.05,57.89 Z M168.05,46.59 C165.43217,46.59 163.31,48.7121703 163.31,51.33 C163.31,53.9478297 165.43217,56.07 168.05,56.07 C170.66783,56.07 172.79,53.9478297 172.79,51.33 C172.779009,48.7183582 170.661659,46.6054751 168.05,46.6 L168.05,46.59 Z" id="Shape"></path>
                    <path d="M168.05,24.92 C165.396728,24.92 163.004714,23.3217073 161.98935,20.8704033 C160.973987,18.4190993 161.535233,15.5975264 163.41138,13.7213795 C165.287526,11.8452327 168.109099,11.2839869 170.560403,12.2993503 C173.011707,13.3147136 174.61,15.7067277 174.61,18.36 C174.61,20.0998202 173.918859,21.7683818 172.68862,22.9986205 C171.458382,24.2288591 169.78982,24.92 168.05,24.92 Z M168.05,13.62 C165.43217,13.62 163.31,15.7421703 163.31,18.36 C163.31,20.9778297 165.43217,23.1 168.05,23.1 C170.66783,23.1 172.79,20.9778297 172.79,18.36 C172.784499,15.7444521 170.665548,13.6255006 168.05,13.62 Z" id="Shape"></path>
                    <path d="M201.46,69.17 C201.214187,69.1693491 200.979337,69.068183 200.81,68.89 L175.63,42.64 C171.44134,38.4593395 164.65866,38.4593395 160.47,42.64 L135.3,68.88 C134.94514,69.183561 134.4181,69.1692427 134.080246,68.8468625 C133.742391,68.5244822 133.703397,67.9986916 133.99,67.63 L159.17,41.38 C164.073549,36.4833572 172.016451,36.4833572 176.92,41.38 L202.12,67.65 C202.364833,67.9129293 202.432052,68.2952958 202.291573,68.6259623 C202.151094,68.9566289 201.829214,69.173692 201.47,69.18 L201.46,69.17 Z" id="Shape"></path>
                    <path d="M168.05,32 C164.727411,32.0070349 161.538954,30.6899073 159.19,28.34 L133.99,2.07 C133.703397,1.70130836 133.742391,1.17551778 134.080246,0.853137542 C134.4181,0.530757307 134.94514,0.516439002 135.3,0.82 L160.48,27.07 C164.670932,31.2451644 171.449068,31.2451644 175.64,27.07 L200.81,0.83 C201.16486,0.526439002 201.6919,0.540757307 202.029754,0.863137542 C202.367609,1.18551778 202.406603,1.71130836 202.12,2.08 L176.94,28.33 C174.582843,30.6872015 171.383545,32.0079464 168.05,32 Z" id="Shape"></path>
                    <path d="M101.29,109.12 C97.2417528,109.12 93.96,105.838247 93.96,101.79 C93.96,97.7417528 97.2417528,94.46 101.29,94.46 C105.338247,94.46 108.62,97.7417528 108.62,101.79 C108.614492,105.835963 105.335963,109.114492 101.29,109.12 Z M101.29,96.27 C98.2413882,96.27 95.77,98.7413882 95.77,101.79 C95.77,104.838612 98.2413882,107.31 101.29,107.31 C104.338612,107.31 106.81,104.838612 106.81,101.79 C106.804496,98.7436708 104.336329,96.2755038 101.29,96.27 Z" id="Shape"></path>
                    <path d="M86.4,123.87 C82.3517528,123.87 79.07,120.588247 79.07,116.54 C79.07,112.491753 82.3517528,109.21 86.4,109.21 C90.4482472,109.21 93.73,112.491753 93.73,116.54 C93.7244915,120.585963 90.4459633,123.864492 86.4,123.87 Z M86.4,111.02 C83.3513882,111.02 80.88,113.491388 80.88,116.54 C80.88,119.588612 83.3513882,122.06 86.4,122.06 C89.4486118,122.06 91.92,119.588612 91.92,116.54 C91.9253169,115.072543 91.3460952,113.663366 90.3103176,112.623835 C89.2745399,111.584305 87.8674668,110.99999 86.4,111 L86.4,111.02 Z" id="Shape"></path>
                    <path d="M116.05,94.24 C112.001753,94.24 108.72,90.9582472 108.72,86.91 C108.72,82.8617528 112.001753,79.58 116.05,79.58 C120.098247,79.58 123.38,82.8617528 123.38,86.91 C123.374492,90.9559633 120.095963,94.2344915 116.05,94.24 Z M116.05,81.39 C113.001388,81.39 110.53,83.8613882 110.53,86.91 C110.53,89.9586118 113.001388,92.43 116.05,92.43 C119.098612,92.43 121.57,89.9586118 121.57,86.91 C121.57,85.446005 120.98843,84.0419714 119.953229,83.0067706 C118.918029,81.9715698 117.513995,81.39 116.05,81.39 Z" id="Shape"></path>
                    <path d="M86.4,94.24 C82.3517528,94.24 79.07,90.9582472 79.07,86.91 C79.07,82.8617528 82.3517528,79.58 86.4,79.58 C90.4482472,79.58 93.73,82.8617528 93.73,86.91 C93.7244915,90.9559633 90.4459633,94.2344915 86.4,94.24 Z M86.4,81.39 C83.3513882,81.39 80.88,83.8613882 80.88,86.91 C80.88,89.9586118 83.3513882,92.43 86.4,92.43 C89.4486118,92.43 91.92,89.9586118 91.92,86.91 C91.92,83.8613882 89.4486118,81.39 86.4,81.39 Z" id="Shape"></path>
                    <path d="M116.05,123.6 C112.001753,123.6 108.72,120.318247 108.72,116.27 C108.72,112.221753 112.001753,108.94 116.05,108.94 C120.098247,108.94 123.38,112.221753 123.38,116.27 C123.374492,120.315963 120.095963,123.594492 116.05,123.6 Z M116.05,110.75 C113.001388,110.75 110.53,113.221388 110.53,116.27 C110.53,119.318612 113.001388,121.79 116.05,121.79 C119.098612,121.79 121.57,119.318612 121.57,116.27 C121.57,114.806005 120.98843,113.401971 119.953229,112.366771 C118.918029,111.33157 117.513995,110.75 116.05,110.75 Z" id="Shape"></path>
                    <path d="M535.55,69.17 C535.309132,69.1692687 535.078608,69.0720164 534.91,68.9 L468.05,2.08 C467.779953,1.86093399 467.658354,1.50712524 467.736674,1.16833115 C467.814993,0.829537069 468.079537,0.564993288 468.418331,0.486673846 C468.757125,0.408354404 469.110934,0.529952874 469.33,0.8 L536.15,67.62 C536.407364,67.8801239 536.483884,68.2691006 536.34423,68.607327 C536.204575,68.9455535 535.875914,69.1672294 535.51,69.17 L535.55,69.17 Z" id="Shape"></path>
                    <path d="M502.13,69.14 C501.889132,69.1392687 501.658608,69.0420164 501.49,68.87 L468.16,35.41 C467.889953,35.190934 467.768354,34.8371252 467.846674,34.4983312 C467.924993,34.1595371 468.189537,33.8949933 468.528331,33.8166738 C468.867125,33.7383544 469.220934,33.8599529 469.44,34.13 L502.77,67.59 C503.027364,67.8501239 503.103884,68.2391006 502.96423,68.577327 C502.824575,68.9155535 502.495914,69.1372294 502.13,69.14 Z" id="Shape"></path>
                    <path d="M535.55,35.68 C535.310575,35.6819152 535.080256,35.588348 534.91,35.42 L501.48,2.09 C501.209953,1.87093399 501.088354,1.51712524 501.166674,1.17833115 C501.244993,0.839537069 501.509537,0.574993288 501.848331,0.496673846 C502.187125,0.418354404 502.540934,0.539952874 502.76,0.81 L536.19,34.14 C536.447364,34.4001239 536.523884,34.7891006 536.38423,35.127327 C536.244575,35.4655535 535.915914,35.6872294 535.55,35.69 L535.55,35.68 Z" id="Shape"></path>
                    <path d="M435.32,42.12 C431.30489,42.12 428.05,38.8651101 428.05,34.85 C428.05,30.8348899 431.30489,27.58 435.32,27.58 C439.33511,27.58 442.59,30.8348899 442.59,34.85 C442.584492,38.8628263 439.332826,42.1144917 435.32,42.12 Z M435.32,29.4 C433.115681,29.4 431.128413,30.7278499 430.284857,32.7643753 C429.4413,34.8009007 429.907579,37.1450429 431.466268,38.703732 C433.024957,40.262421 435.369099,40.7286999 437.405625,39.8851435 C439.44215,39.041587 440.77,37.0543192 440.77,34.85 C440.764496,31.8423307 438.327669,29.4055035 435.32,29.4 Z" id="Shape"></path>
                    <path d="M435.26,56.43 C435.019358,56.4281642 434.789241,56.3310834 434.62,56.16 L413.88,35.42 C413.529221,35.0654305 413.529221,34.4945695 413.88,34.14 L434.62,13.4 C434.974569,13.049221 435.545431,13.049221 435.9,13.4 L456.64,34.14 C456.990779,34.4945695 456.990779,35.0654305 456.64,35.42 L435.9,56.16 C435.730759,56.3310834 435.500642,56.4281642 435.26,56.43 Z M415.8,34.79 L435.26,54.25 L454.71,34.79 L435.26,15.34 L415.8,34.79 Z" id="Shape"></path>
                    <path d="M401.92,69.17 C401.554086,69.1672294 401.225425,68.9455535 401.08577,68.607327 C400.946116,68.2691006 401.022636,67.8801239 401.28,67.62 L424.28,44.62 C424.499066,44.3499529 424.852875,44.2283544 425.191669,44.3066738 C425.530463,44.3849933 425.795007,44.6495371 425.873326,44.9883312 C425.951646,45.3271252 425.830047,45.680934 425.56,45.9 L402.56,68.9 C402.391392,69.0720164 402.160868,69.1692687 401.92,69.17 Z" id="Shape"></path>
                    <path d="M424.89,25.32 C424.649132,25.3192687 424.418608,25.2220164 424.25,25.05 L401.25,2.05 C400.979953,1.83093399 400.858354,1.47712524 400.936674,1.13833115 C401.014993,0.799537069 401.279537,0.534993288 401.618331,0.456673846 C401.957125,0.378354404 402.310934,0.499952874 402.53,0.77 L425.53,23.77 C425.787364,24.0301239 425.863884,24.4191006 425.72423,24.757327 C425.584575,25.0955535 425.255914,25.3172294 424.89,25.32 Z" id="Shape"></path>
                    <path d="M445.69,25.39 C445.324086,25.3872294 444.995425,25.1655535 444.85577,24.827327 C444.716116,24.4891006 444.792636,24.1001239 445.05,23.84 L468.05,0.84 C468.269066,0.569952874 468.622875,0.448354404 468.961669,0.526673846 C469.300463,0.604993288 469.565007,0.869537069 469.643326,1.20833115 C469.721646,1.54712524 469.600047,1.90093399 469.33,2.12 L446.33,25.12 C446.161392,25.2920164 445.930868,25.3892687 445.69,25.39 Z" id="Shape"></path>
                    <path d="M468.73,69.17 C468.489132,69.1692687 468.258608,69.0720164 468.09,68.9 L444.98,45.79 C444.709953,45.570934 444.588354,45.2171252 444.666674,44.8783312 C444.744993,44.5395371 445.009537,44.2749933 445.348331,44.1966738 C445.687125,44.1183544 446.040934,44.2399529 446.26,44.51 L469.37,67.62 C469.627364,67.8801239 469.703884,68.2691006 469.56423,68.607327 C469.424575,68.9455535 469.095914,69.1672294 468.73,69.17 Z" id="Shape"></path>
                    <path d="M569.05,42.25 C565.001753,42.25 561.72,38.9682472 561.72,34.92 C561.72,30.8717528 565.001753,27.59 569.05,27.59 C573.098247,27.59 576.38,30.8717528 576.38,34.92 C576.374492,38.9659633 573.095963,42.2444915 569.05,42.25 Z M569.05,29.4 C566.001388,29.4 563.53,31.8713882 563.53,34.92 C563.53,37.9686118 566.001388,40.44 569.05,40.44 C572.098612,40.44 574.57,37.9686118 574.57,34.92 C574.57,33.456005 573.98843,32.0519714 572.953229,31.0167706 C571.918029,29.9815698 570.513995,29.4 569.05,29.4 Z" id="Shape"></path>
                    <path d="M554.15,57 C550.101753,57 546.82,53.7182472 546.82,49.67 C546.82,45.6217528 550.101753,42.34 554.15,42.34 C558.198247,42.34 561.48,45.6217528 561.48,49.67 C561.474492,53.7159633 558.195963,56.9944915 554.15,57 Z M554.15,44.15 C551.101388,44.15 548.63,46.6213882 548.63,49.67 C548.63,52.7186118 551.101388,55.19 554.15,55.19 C557.198612,55.19 559.67,52.7186118 559.67,49.67 C559.664496,46.6236708 557.196329,44.1555038 554.15,44.15 Z" id="Shape"></path>
                    <path d="M583.78,27.37 C579.731753,27.37 576.45,24.0882472 576.45,20.04 C576.45,15.9917528 579.731753,12.71 583.78,12.71 C587.828247,12.71 591.11,15.9917528 591.11,20.04 C591.104492,24.0859633 587.825963,27.3644915 583.78,27.37 Z M583.78,14.52 C580.731388,14.52 578.26,16.9913882 578.26,20.04 C578.26,23.0886118 580.731388,25.56 583.78,25.56 C586.828612,25.56 589.3,23.0886118 589.3,20.04 C589.3,18.576005 588.71843,17.1719714 587.683229,16.1367706 C586.648029,15.1015698 585.243995,14.52 583.78,14.52 Z" id="Shape"></path>
                    <path d="M554.15,27.37 C550.101753,27.37 546.82,24.0882472 546.82,20.04 C546.82,15.9917528 550.101753,12.71 554.15,12.71 C558.198247,12.71 561.48,15.9917528 561.48,20.04 C561.474492,24.0859633 558.195963,27.3644915 554.15,27.37 Z M554.15,14.52 C551.101388,14.52 548.63,16.9913882 548.63,20.04 C548.63,23.0886118 551.101388,25.56 554.15,25.56 C557.198612,25.56 559.67,23.0886118 559.67,20.04 C559.664496,16.9936708 557.196329,14.5255038 554.15,14.52 Z" id="Shape"></path>
                    <path d="M583.78,56.73 C579.731753,56.73 576.45,53.4482472 576.45,49.4 C576.45,45.3517528 579.731753,42.07 583.78,42.07 C587.828247,42.07 591.11,45.3517528 591.11,49.4 C591.104492,53.4459633 587.825963,56.7244915 583.78,56.73 Z M583.78,43.88 C580.731388,43.88 578.26,46.3513882 578.26,49.4 C578.26,52.4486118 580.731388,54.92 583.78,54.92 C586.828612,54.92 589.3,52.4486118 589.3,49.4 C589.3,47.936005 588.71843,46.5319714 587.683229,45.4967706 C586.648029,44.4615698 585.243995,43.88 583.78,43.88 Z" id="Shape"></path>
                    <path d="M307.58,56.45 C305.328308,56.4386236 303.187337,55.4717335 301.69,53.79 C300.192663,55.4717335 298.051692,56.4386236 295.8,56.45 C293.724945,56.3968354 291.787813,55.3988071 290.54,53.74 C289.209105,51.9777293 288.643277,49.7540632 288.97,47.57 C286.785937,47.8967226 284.562271,47.3308951 282.8,46 C281.141193,44.752187 280.143165,42.8150547 280.09,40.74 C281.781423,39.2497529 282.750549,37.1042732 282.750549,34.85 C282.750549,32.5957268 281.781423,30.4502471 280.09,28.96 C280.143165,26.8849453 281.141193,24.947813 282.8,23.7 C284.560767,22.3659797 286.785764,21.7998137 288.97,22.13 C288.643277,19.9459368 289.209105,17.7222707 290.54,15.96 C291.787813,14.3011929 293.724945,13.3031646 295.8,13.25 C298.051692,13.2613764 300.192663,14.2282665 301.69,15.91 C303.187337,14.2282665 305.328308,13.2613764 307.58,13.25 C309.655055,13.3031646 311.592187,14.3011929 312.84,15.96 C314.170895,17.7222707 314.736723,19.9459368 314.41,22.13 C316.594236,21.7998137 318.819233,22.3659797 320.58,23.7 C322.238807,24.947813 323.236835,26.8849453 323.29,28.96 C321.598577,30.4502471 320.629451,32.5957268 320.629451,34.85 C320.629451,37.1042732 321.598577,39.2497529 323.29,40.74 C323.236835,42.8150547 322.238807,44.752187 320.58,46 C318.817729,47.3308951 316.594063,47.8967226 314.41,47.57 C314.736723,49.7540632 314.170895,51.9777293 312.84,53.74 C311.592187,55.3988071 309.655055,56.3968354 307.58,56.45 Z M301.69,51.45 C301.985765,51.4505105 302.2624,51.5963049 302.43,51.84 C303.576767,53.5702311 305.50443,54.6220235 307.58,54.65 C309.09369,54.5978304 310.502146,53.8623444 311.41,52.65 C312.669139,50.9188808 313.039633,48.6959145 312.41,46.65 C312.334533,46.3411621 312.425717,46.0153305 312.650524,45.7905238 C312.87533,45.5657172 313.201162,45.4745335 313.51,45.55 C315.556022,46.1780222 317.778257,45.8076497 319.51,44.55 C320.722344,43.6421456 321.45783,42.2336899 321.51,40.72 C321.480287,38.6448854 320.428908,36.7179811 318.7,35.57 C318.457159,35.4018982 318.31225,35.1253472 318.31225,34.83 C318.31225,34.5346528 318.457159,34.2581018 318.7,34.09 C320.428908,32.9420189 321.480287,31.0151146 321.51,28.94 C321.45783,27.4263101 320.722344,26.0178544 319.51,25.11 C317.778257,23.8523503 315.556022,23.4819778 313.51,24.11 C313.201162,24.1854665 312.87533,24.0942828 312.650524,23.8694762 C312.425717,23.6446695 312.334533,23.3188379 312.41,23.01 C313.039633,20.9640855 312.669139,18.7411192 311.41,17.01 C310.502146,15.7976556 309.09369,15.0621696 307.58,15.01 C305.50443,15.0379765 303.576767,16.0897689 302.43,17.82 C302.251825,18.0474625 301.978939,18.1803449 301.69,18.1803449 C301.401061,18.1803449 301.128175,18.0474625 300.95,17.82 C299.802019,16.091092 297.875115,15.0397131 295.8,15.01 C294.28631,15.0621696 292.877854,15.7976556 291.97,17.01 C290.710861,18.7411192 290.340367,20.9640855 290.97,23.01 C291.045467,23.3188379 290.954283,23.6446695 290.729476,23.8694762 C290.50467,24.0942828 290.178838,24.1854665 289.87,24.11 C287.823978,23.4819778 285.601743,23.8523503 283.87,25.11 C282.657656,26.0178544 281.92217,27.4263101 281.87,28.94 C281.899713,31.0151146 282.951092,32.9420189 284.68,34.09 C284.922841,34.2581018 285.06775,34.5346528 285.06775,34.83 C285.06775,35.1253472 284.922841,35.4018982 284.68,35.57 C282.951092,36.7179811 281.899713,38.6448854 281.87,40.72 C281.92217,42.2336899 282.657656,43.6421456 283.87,44.55 C285.601119,45.8091389 287.824085,46.1796333 289.87,45.55 C290.178838,45.4745335 290.50467,45.5657172 290.729476,45.7905238 C290.954283,46.0153305 291.045467,46.3411621 290.97,46.65 C290.340367,48.6959145 290.710861,50.9188808 291.97,52.65 C292.877854,53.8623444 294.28631,54.5978304 295.8,54.65 C297.875115,54.6202869 299.802019,53.568908 300.95,51.84 C301.115347,51.5925036 301.392365,51.442764 301.69,51.44 L301.69,51.45 Z" id="Shape"></path>
                    <path d="M293.74,27.81 C293.499132,27.8092687 293.268608,27.7120164 293.1,27.54 L267.64,2.08 C267.369953,1.86093399 267.248354,1.50712524 267.326674,1.16833115 C267.404993,0.829537069 267.669537,0.564993288 268.008331,0.486673846 C268.347125,0.408354404 268.700934,0.529952874 268.92,0.8 L294.38,26.26 C294.637364,26.5201239 294.713884,26.9091006 294.57423,27.247327 C294.434575,27.5855535 294.105914,27.8072294 293.74,27.81 Z" id="Shape"></path>
                    <path d="M335.05,69.17 C334.809132,69.1692687 334.578608,69.0720164 334.41,68.9 L308.95,43.44 C308.679953,43.220934 308.558354,42.8671252 308.636674,42.5283312 C308.714993,42.1895371 308.979537,41.9249933 309.318331,41.8466738 C309.657125,41.7683544 310.010934,41.8899529 310.23,42.16 L335.69,67.62 C335.947364,67.8801239 336.023884,68.2691006 335.88423,68.607327 C335.744575,68.9455535 335.415914,69.1672294 335.05,69.17 Z" id="Shape"></path>
                    <path d="M309.64,27.81 C309.274086,27.8072294 308.945425,27.5855535 308.80577,27.247327 C308.666116,26.9091006 308.742636,26.5201239 309,26.26 L334.46,0.8 C334.679066,0.529952874 335.032875,0.408354404 335.371669,0.486673846 C335.710463,0.564993288 335.975007,0.829537069 336.053326,1.16833115 C336.131646,1.50712524 336.010047,1.86093399 335.74,2.08 L310.28,27.54 C310.111392,27.7120164 309.880868,27.8092687 309.64,27.81 Z" id="Shape"></path>
                    <path d="M268.28,69.17 C267.914086,69.1672294 267.585425,68.9455535 267.44577,68.607327 C267.306116,68.2691006 267.382636,67.8801239 267.64,67.62 L293.05,42.16 C293.269066,41.8899529 293.622875,41.7683544 293.961669,41.8466738 C294.300463,41.9249933 294.565007,42.1895371 294.643326,42.5283312 C294.721646,42.8671252 294.600047,43.220934 294.33,43.44 L268.87,68.9 C268.713745,69.0602277 268.503397,69.1564888 268.28,69.17 Z" id="Shape"></path>
                </g>
                <path d="M384.05,132.58 L352.98,132.58 C350.980729,132.58 349.36,130.959271 349.36,128.96 L349.36,80.83 C349.36,78.8307292 350.980729,77.21 352.98,77.21 L384.05,77.21 C386.049271,77.21 387.67,78.8307292 387.67,80.83 L387.67,129 C387.64808,130.983632 386.033753,132.580121 384.05,132.58 Z M352.98,79 C351.977114,79.0054654 351.165465,79.8171143 351.16,80.82 L351.16,129 C351.165465,130.002886 351.977114,130.814535 352.98,130.82 L384.05,130.82 C385.052886,130.814535 385.864535,130.002886 385.87,129 L385.87,80.87 C385.880731,80.3794904 385.69405,79.905215 385.351857,79.5536207 C385.009663,79.2020265 384.54062,79.0025637 384.05,79 L352.98,79 Z" id="Shape"></path>
                <path d="M368.47,128.25 C366.295197,128.222469 364.551843,126.441989 364.57014,124.267088 C364.588436,122.092188 366.361497,120.34129 368.536456,120.350351 C370.711415,120.359412 372.469826,122.125022 372.47,124.3 C372.442628,126.489588 370.659759,128.250171 368.47,128.25 Z M368.47,122.15 C367.283905,122.155517 366.326337,123.120534 366.33001,124.306636 C366.333684,125.492738 367.297212,126.451805 368.483318,126.449974 C369.669424,126.448144 370.629987,125.486108 370.63,124.3 C370.624495,123.110972 369.659041,122.149987 368.47,122.15 Z" id="Shape"></path>
                <path d="M602.37,0.47 C602.610868,0.47073134 602.841392,0.567983611 603.01,0.74 L669.83,67.56 C670.123611,67.9219398 670.09631,68.4472079 669.766759,68.7767589 C669.437208,69.1063098 668.91194,69.1336106 668.55,68.84 L601.73,2 C601.472636,1.73987608 601.396116,1.35089943 601.53577,1.01267295 C601.675425,0.67444648 602.004086,0.452770551 602.37,0.45 L602.37,0.47 Z" id="Shape"></path>
                <path d="M635.8,0.5 C636.040868,0.50073134 636.271392,0.597983611 636.44,0.77 L669.77,34.23 C670.063611,34.5919398 670.03631,35.1172079 669.706759,35.4467589 C669.377208,35.7763098 668.85194,35.8036106 668.49,35.51 L635.16,2 C634.902636,1.73987608 634.826116,1.35089943 634.96577,1.01267295 C635.105425,0.67444648 635.434086,0.452770551 635.8,0.45 L635.8,0.5 Z" id="Shape"></path>
                <path d="M602.37,34 C602.609425,33.9980848 602.839744,34.091652 603.01,34.26 L636.44,67.59 C636.710047,67.809066 636.831646,68.1628748 636.753326,68.5016688 C636.675007,68.8404629 636.410463,69.1050067 636.071669,69.1833262 C635.732875,69.2616456 635.379066,69.1400471 635.16,68.87 L601.73,35.54 C601.472636,35.2798761 601.396116,34.8908994 601.53577,34.552673 C601.675425,34.2144465 602.004086,33.9927706 602.37,33.99 L602.37,34 Z" id="Shape"></path>
                <path d="M518.63,108.11 C515.975821,108.114046 513.58074,106.518321 512.562225,104.06734 C511.54371,101.616359 512.102485,98.7931476 513.977843,96.9149267 C515.8532,95.0367058 518.675556,94.4736248 521.128088,95.4883994 C523.58062,96.5031741 525.179997,98.8958183 525.18,101.55 C525.180004,105.169086 522.249082,108.104483 518.63,108.11 Z M518.63,96.81 C516.01217,96.81 513.89,98.9321703 513.89,101.55 C513.89,104.16783 516.01217,106.29 518.63,106.29 C521.24783,106.29 523.37,104.16783 523.37,101.55 C523.364499,98.9344521 521.245548,96.8155006 518.63,96.81 Z" id="Shape"></path>
                <path d="M485.66,108.11 C482.037012,108.11 479.1,105.172988 479.1,101.55 C479.1,97.927012 482.037012,94.99 485.66,94.99 C489.282988,94.99 492.22,97.927012 492.22,101.55 C492.22,105.172988 489.282988,108.11 485.66,108.11 Z M485.66,96.81 C483.04217,96.81 480.92,98.9321703 480.92,101.55 C480.92,104.16783 483.04217,106.29 485.66,106.29 C488.27783,106.29 490.4,104.16783 490.4,101.55 C490.394499,98.9344521 488.275548,96.8155006 485.66,96.81 Z" id="Shape"></path>
                <path d="M502.14,124.59 C499.486728,124.59 497.094714,122.991707 496.07935,120.540403 C495.063987,118.089099 495.625233,115.267526 497.50138,113.39138 C499.377526,111.515233 502.199099,110.953987 504.650403,111.96935 C507.101707,112.984714 508.7,115.376728 508.7,118.03 C508.7,119.76982 508.008859,121.438382 506.77862,122.66862 C505.548382,123.898859 503.87982,124.59 502.14,124.59 Z M502.14,113.29 C500.222849,113.29 498.494473,114.444864 497.760811,116.216081 C497.027149,117.987297 497.432683,120.026056 498.788314,121.381686 C500.143944,122.737317 502.182703,123.142851 503.953919,122.409189 C505.725136,121.675527 506.88,119.947151 506.88,118.03 C506.874499,115.414452 504.755548,113.295501 502.14,113.29 Z" id="Shape"></path>
                <path d="M502.14,91.62 C499.486728,91.62 497.094714,90.0217073 496.07935,87.5704033 C495.063987,85.1190993 495.625233,82.2975264 497.50138,80.4213795 C499.377526,78.5452327 502.199099,77.9839869 504.650403,78.9993503 C507.101707,80.0147136 508.7,82.4067277 508.7,85.06 C508.7,86.7998202 508.008859,88.4683818 506.77862,89.6986205 C505.548382,90.9288591 503.87982,91.62 502.14,91.62 Z M502.14,80.32 C499.52217,80.32 497.4,82.4421703 497.4,85.06 C497.4,87.6778297 499.52217,89.8 502.14,89.8 C504.75783,89.8 506.88,87.6778297 506.88,85.06 C506.874499,82.4444521 504.755548,80.3255006 502.14,80.32 Z" id="Shape"></path>
                <path d="M535.55,135.87 C535.304187,135.869349 535.069337,135.768183 534.9,135.59 L509.72,109.34 C505.53134,105.159339 498.74866,105.159339 494.56,109.34 L469.39,135.58 C469.03514,135.883561 468.5081,135.869243 468.170246,135.546862 C467.832391,135.224482 467.793397,134.698692 468.08,134.33 L493.26,108.08 C498.163549,103.183357 506.106451,103.183357 511.01,108.08 L536.21,134.35 C536.454833,134.612929 536.522052,134.995296 536.381573,135.325962 C536.241094,135.656629 535.919214,135.873692 535.56,135.88 L535.55,135.87 Z" id="Shape"></path>
                <path d="M502.14,98.7 C498.817411,98.7070349 495.628954,97.3899073 493.28,95.04 L468.05,68.77 C467.763397,68.4013084 467.802391,67.8755178 468.140246,67.5531375 C468.4781,67.2307573 469.00514,67.216439 469.36,67.52 L494.54,93.77 C498.730932,97.9451644 505.509068,97.9451644 509.7,93.77 L534.87,67.53 C535.22486,67.226439 535.7519,67.2407573 536.089754,67.5631375 C536.427609,67.8855178 536.466603,68.4113084 536.18,68.78 L511.05,95 C508.692892,97.3731311 505.484799,98.7053361 502.14,98.7 Z" id="Shape"></path>
            </g>
        </g>
    </g>
</svg>