<svg xmlns="http://www.w3.org/2000/svg" viewBox="0 0 1196.22 1063.34"><defs><style>.cls-1{fill:#20d2a2;}</style></defs><title>11Asset 10shape</title><g id="Layer_2" data-name="Layer 2"><g id="Layer_1-2" data-name="Layer 1"><path class="cls-1" d="M1.9,399.65a.9.9,0,0,1,0-1.8c1.31,0,32.15-.4,32.15-32.22,0-33.63,33.74-34,34.08-34a.9.9,0,0,1,0,1.8,40.85,40.85,0,0,0-16.25,4.07c-10.64,5.33-16,14.8-16,28.14C35.85,399.27,2.24,399.65,1.9,399.65Z"/><path class="cls-1" d="M34.95,399.72a.9.9,0,0,1,0-1.8,20.18,20.18,0,0,0,8-2c5.16-2.59,7.78-7.18,7.78-13.64,0-17.22,17.24-17.52,17.42-17.52h0a.9.9,0,0,1,0,1.8c-.64,0-15.63.31-15.63,15.72,0,17.22-17.38,17.46-17.55,17.46Z"/><path class="cls-1" d="M1.83,366.64a.9.9,0,0,1,0-1.8,20.18,20.18,0,0,0,8-2c5.16-2.59,7.78-7.18,7.78-13.64,0-17.22,17.24-17.52,17.42-17.52h0a.9.9,0,0,1,0,1.8c-.64,0-15.63.31-15.63,15.72,0,17.22-17.38,17.46-17.55,17.46Z"/><path class="cls-1" d="M167.57,128.14a27.74,27.74,0,1,1,27.74-27.74A27.78,27.78,0,0,1,167.57,128.14Zm0-53.69a25.95,25.95,0,1,0,25.95,25.94A26,26,0,0,0,167.57,74.45Z"/><path class="cls-1" d="M167.57,108.81a8.42,8.42,0,1,1,8.42-8.42A8.43,8.43,0,0,1,167.57,108.81Zm0-15a6.62,6.62,0,1,0,6.62,6.62A6.63,6.63,0,0,0,167.57,93.77Z"/><path class="cls-1" d="M168.75,120.6a8.43,8.43,0,0,1-1.83-.22,6.9,6.9,0,0,1-4.12-2.87c-.91-1.14-1.57-2-3.4-2-4,0-5.33-1.38-6.6-2.71a7.16,7.16,0,0,0-2.63-2,4.35,4.35,0,0,0-3.49-.18,4.52,4.52,0,0,0-2.12,2.32.9.9,0,0,1-1.69-.6A6.29,6.29,0,0,1,146,109a6.08,6.08,0,0,1,4.9.16,8.87,8.87,0,0,1,3.24,2.39c1.15,1.2,2.05,2.15,5.3,2.15,2.7,0,3.82,1.4,4.81,2.63a5.12,5.12,0,0,0,3.11,2.24c2.54.57,3.57-.34,4.88-1.48a7.1,7.1,0,0,1,3.89-2.07,7,7,0,0,1,4.34.81,5.75,5.75,0,0,0,3.49.72,9.82,9.82,0,0,0,6.55-4,.9.9,0,0,1,1.5,1,11.48,11.48,0,0,1-7.87,4.77,7.48,7.48,0,0,1-4.43-.88,5.22,5.22,0,0,0-3.34-.65,5.4,5.4,0,0,0-2.95,1.64A6.54,6.54,0,0,1,168.75,120.6Z"/><path class="cls-1" d="M1044.79,194.49h-31.12a3.62,3.62,0,0,1-3.62-3.62V142.74a3.62,3.62,0,0,1,3.62-3.62h31.12a3.62,3.62,0,0,1,3.62,3.62v48.13A3.62,3.62,0,0,1,1044.79,194.49Zm-31.12-53.57a1.83,1.83,0,0,0-1.82,1.82v48.13a1.83,1.83,0,0,0,1.82,1.82h31.12a1.83,1.83,0,0,0,1.82-1.82V142.74a1.83,1.83,0,0,0-1.82-1.82Z"/><path class="cls-1" d="M1029.16,190.17a3.95,3.95,0,1,1,4-3.95A4,4,0,0,1,1029.16,190.17Zm0-6.1a2.15,2.15,0,1,0,2.16,2.15A2.16,2.16,0,0,0,1029.16,184.07Z"/><path class="cls-1" d="M499.09,61.79h0a.9.9,0,0,1-.84-.58l-9.86-26.38a.9.9,0,1,1,1.68-.63l9,24.12,9-24.12a.9.9,0,0,1,1.68.63l-9.86,26.38A.9.9,0,0,1,499.09,61.79Z"/><path class="cls-1" d="M502.61,40.52h0a2.35,2.35,0,0,1-2.28-2.37V35.42H486.06a4,4,0,0,1-1.09-7.8,15.39,15.39,0,0,1-1.21-6A15.33,15.33,0,0,1,499.09,6.3h.2a15.33,15.33,0,0,1,13.92,21.31,4,4,0,0,1-1.09,7.8h-7.19V38.2a2.32,2.32,0,0,1-2.32,2.32ZM486.06,29.26a2.18,2.18,0,0,0,0,4.36h14.52a1.52,1.52,0,0,1,1.52,1.51v3a.55.55,0,0,0,.51.57h0a.52.52,0,0,0,.52-.52V35.13a1.52,1.52,0,0,1,1.51-1.51h7.48a2.18,2.18,0,1,0,0-4.36h-.26a.9.9,0,0,1-.8-1.32A13.53,13.53,0,0,0,499.26,8.1h-.18a13.53,13.53,0,0,0-12,19.84.9.9,0,0,1-.8,1.32Z"/><path class="cls-1" d="M493,26.69h0a2.35,2.35,0,0,1-2.28-2.37V21.54a.9.9,0,0,1,.28-1.75,1.52,1.52,0,0,1,1.52,1.51v3a.55.55,0,0,0,.51.57h0a.52.52,0,0,0,.52-.52V21.31A1.52,1.52,0,0,1,495,19.79a.9.9,0,0,1,.28,1.75v2.83A2.32,2.32,0,0,1,493,26.69Zm2-5.1h0Zm-4.07,0h0Z"/><path class="cls-1" d="M1162,393.41a.9.9,0,0,1-.84-.58l-9.86-26.38a.9.9,0,1,1,1.68-.63l9,24.12,9-24.12a.9.9,0,1,1,1.68.63l-9.86,26.38A.9.9,0,0,1,1162,393.41Z"/><path class="cls-1" d="M1165.54,372.14h0a2.35,2.35,0,0,1-2.28-2.37V367H1149a4,4,0,0,1-1.09-7.8,15.33,15.33,0,0,1,3.35-16.89,15.22,15.22,0,0,1,10.77-4.42h.2a15.33,15.33,0,0,1,13.92,21.31,4,4,0,0,1-1.09,7.8h-7.19v2.78a2.32,2.32,0,0,1-2.32,2.32ZM1149,360.88a2.18,2.18,0,1,0,0,4.36h14.52a1.52,1.52,0,0,1,1.52,1.52v3a.55.55,0,0,0,.51.57h0a.52.52,0,0,0,.52-.52v-3.07a1.52,1.52,0,0,1,1.51-1.52h7.48a2.18,2.18,0,1,0,0-4.36h-.26a.9.9,0,0,1-.8-1.32,13.54,13.54,0,0,0-11.8-19.84H1162a13.54,13.54,0,0,0-12,19.84.9.9,0,0,1-.8,1.32Z"/><path class="cls-1" d="M1155.9,358.32h0a2.35,2.35,0,0,1-2.28-2.37v-2.78a.9.9,0,0,1,.28-1.75,1.52,1.52,0,0,1,1.52,1.52v3a.55.55,0,0,0,.51.57.4.4,0,0,0,.38-.15.52.52,0,0,0,.16-.37v-3.07a1.52,1.52,0,0,1,1.52-1.52.9.9,0,0,1,.28,1.75V356a2.32,2.32,0,0,1-2.32,2.32Zm2-5.1h0Zm-4.07,0h0Z"/><path class="cls-1" d="M213.66,247.26a6.61,6.61,0,0,1-3.38-.9c-5.33-3.11-3.95-14.38-1.41-19.48A14.51,14.51,0,0,1,218,219c3.09-.86,5.45-.27,8.19.42a26.8,26.8,0,0,0,15.41,0c2.74-.69,5.11-1.28,8.19-.42a14.51,14.51,0,0,1,9.11,7.83h0c2.53,5.1,3.92,16.38-1.41,19.48-3.79,2.21-9,.3-14.2-5.23-3.14-3.32-6.21-4.93-9.4-4.93s-6.26,1.61-9.4,4.93C220.66,245.15,216.89,247.26,213.66,247.26ZM221,220.42a9.47,9.47,0,0,0-2.58.36,12.74,12.74,0,0,0-8,6.9,23.52,23.52,0,0,0-2.05,9.6c0,2.21.34,6.12,2.76,7.53,3,1.75,7.37,0,12-4.91,3.5-3.7,7-5.49,10.71-5.49s7.21,1.8,10.71,5.49c4.61,4.87,9,6.66,12,4.91,2.42-1.41,2.77-5.33,2.76-7.53a23.54,23.54,0,0,0-2.05-9.6,12.74,12.74,0,0,0-8-6.9c-2.63-.73-4.68-.22-7.28.44a28.53,28.53,0,0,1-16.29,0A19.24,19.24,0,0,0,221,220.42Z"/><path class="cls-1" d="M218.72,236.86A2.67,2.67,0,0,1,216,234.2v-.26h-.26a2.67,2.67,0,1,1,0-5.33H216v-.26a2.67,2.67,0,1,1,5.33,0v.26h.26a2.67,2.67,0,0,1,0,5.33h-.26v.26A2.67,2.67,0,0,1,218.72,236.86Zm-2.92-6.46a.87.87,0,0,0,0,1.74h1.16a.9.9,0,0,1,.9.9v1.16a.87.87,0,0,0,1.74,0V233a.9.9,0,0,1,.9-.9h1.16a.87.87,0,1,0,0-1.74h-1.16a.9.9,0,0,1-.9-.9v-1.16a.87.87,0,0,0-1.74,0v1.16a.9.9,0,0,1-.9.9Z"/><path class="cls-1" d="M248.11,230.72a2.52,2.52,0,1,1,2.52-2.52A2.52,2.52,0,0,1,248.11,230.72Zm0-3.24a.72.72,0,1,0,.72.72A.72.72,0,0,0,248.11,227.48Z"/><path class="cls-1" d="M248.11,237.94a2.52,2.52,0,1,1,2.52-2.52A2.52,2.52,0,0,1,248.11,237.94Zm0-3.24a.72.72,0,1,0,.72.72A.72.72,0,0,0,248.11,234.7Z"/><path class="cls-1" d="M251.72,234.33a2.52,2.52,0,1,1,2.52-2.52A2.52,2.52,0,0,1,251.72,234.33Zm0-3.24a.72.72,0,1,0,.72.72A.72.72,0,0,0,251.72,231.09Z"/><path class="cls-1" d="M244.5,234.33a2.52,2.52,0,1,1,2.52-2.52A2.52,2.52,0,0,1,244.5,234.33Zm0-3.24a.72.72,0,1,0,.72.72A.72.72,0,0,0,244.5,231.09Z"/><path class="cls-1" d="M233.87,222.4a.9.9,0,0,1-.9-.9V199.8a.9.9,0,1,1,1.8,0v21.7A.9.9,0,0,1,233.87,222.4Z"/><path class="cls-1" d="M233.87,200.84a.9.9,0,0,1-.9-.9V133.68a.9.9,0,1,1,1.8,0v66.26A.9.9,0,0,1,233.87,200.84Z"/><path class="cls-1" d="M267,167.71H200.74a.9.9,0,1,1,0-1.8H267a.9.9,0,1,1,0,1.8Z"/><path class="cls-1" d="M200.74,200.84a.9.9,0,0,1-.64-1.53L266.37,133a.9.9,0,0,1,1.27,1.27l-66.26,66.26A.9.9,0,0,1,200.74,200.84Z"/><path class="cls-1" d="M267,200.86a.9.9,0,0,1-.64-.26l-66.3-66.3a.9.9,0,0,1,1.27-1.27l66.3,66.3a.9.9,0,0,1-.64,1.53Z"/><path class="cls-1" d="M266.12,67.2a.9.9,0,0,1,.26-.64L332.68.26A.9.9,0,0,1,334,1.53l-66.3,66.3a.9.9,0,0,1-1.53-.64Z"/><path class="cls-1" d="M266.15,34a.89.89,0,0,1,.27-.64L299.62.33a.9.9,0,1,1,1.27,1.27l-33.2,33.07a.9.9,0,0,1-1.53-.64Z"/><path class="cls-1" d="M299.35,67.2a.9.9,0,0,1,.26-.63L332.68,33.4A.9.9,0,0,1,334,34.67L300.89,67.83a.9.9,0,0,1-1.54-.63Z"/><path class="cls-1" d="M333.32,134.44a.9.9,0,0,1-.64-.26l-66.3-66.3a.9.9,0,0,1,1.27-1.27l66.3,66.3a.9.9,0,0,1-.64,1.53Z"/><path class="cls-1" d="M300.15,134.41a.89.89,0,0,1-.64-.27l-33.07-33.2a.9.9,0,0,1,1.27-1.27l33.07,33.2a.9.9,0,0,1-.64,1.53Z"/><path class="cls-1" d="M333.32,101.21a.9.9,0,0,1-.63-.26L299.52,67.88a.9.9,0,0,1,1.27-1.27L334,99.67a.9.9,0,0,1-.63,1.54Z"/><path class="cls-1" d="M465.91,134.44a.9.9,0,0,1-.64-.26L399,67.88a.9.9,0,1,1,1.27-1.27l66.3,66.3a.9.9,0,0,1-.64,1.53Z"/><path class="cls-1" d="M432.74,134.41a.89.89,0,0,1-.64-.27L399,100.95a.9.9,0,1,1,1.27-1.27l33.06,33.2a.9.9,0,0,1-.64,1.53Z"/><path class="cls-1" d="M465.91,101.21a.9.9,0,0,1-.63-.26L432.11,67.88a.9.9,0,0,1,1.27-1.27l33.17,33.07a.9.9,0,0,1-.63,1.54Z"/><path class="cls-1" d="M233.87,41.26A7.21,7.21,0,1,1,241.08,34,7.22,7.22,0,0,1,233.87,41.26Zm0-12.62A5.41,5.41,0,1,0,239.28,34,5.42,5.42,0,0,0,233.87,28.64Z"/><path class="cls-1" d="M233.8,55.45a.9.9,0,0,1-.64-.26L212.59,34.62a.9.9,0,0,1,0-1.27l20.57-20.57a.9.9,0,0,1,1.27,0L255,33.34a.9.9,0,0,1,0,1.27L234.44,55.19A.9.9,0,0,1,233.8,55.45ZM214.5,34l19.3,19.3L253.11,34l-19.3-19.3Z"/><path class="cls-1" d="M200.72,68.09a.9.9,0,0,1-.64-1.53L222.95,43.7A.9.9,0,0,1,224.22,45L201.36,67.83A.9.9,0,0,1,200.72,68.09Z"/><path class="cls-1" d="M223.52,24.59a.9.9,0,0,1-.64-.26L200.09,1.54A.9.9,0,0,1,201.36.26l22.79,22.79a.9.9,0,0,1-.64,1.53Z"/><path class="cls-1" d="M244.16,24.66a.9.9,0,0,1-.64-1.53L266.38.26a.9.9,0,1,1,1.27,1.27L244.79,24.4A.9.9,0,0,1,244.16,24.66Z"/><path class="cls-1" d="M267,68.09a.9.9,0,0,1-.64-.26L243.46,44.9a.9.9,0,1,1,1.27-1.27l22.93,22.93a.9.9,0,0,1-.64,1.53Z"/><path class="cls-1" d="M200.79,134.38a.9.9,0,0,1,0-1.8c1.31,0,32.15-.4,32.15-32.22,0-33.63,33.74-34,34.08-34a.9.9,0,0,1,0,1.8,40.85,40.85,0,0,0-16.25,4.07c-10.64,5.33-16,14.8-16,28.14C234.74,134,201.13,134.38,200.79,134.38Z"/><path class="cls-1" d="M233.84,134.44a.9.9,0,0,1,0-1.8,20.18,20.18,0,0,0,8-2C247,128,249.6,123.45,249.6,117c0-17.22,17.24-17.52,17.42-17.52h0a.9.9,0,0,1,0,1.8c-.64,0-15.63.31-15.63,15.72,0,17.22-17.38,17.46-17.55,17.46Z"/><path class="cls-1" d="M200.72,101.36a.9.9,0,0,1,0-1.8,20.18,20.18,0,0,0,8-2c5.16-2.59,7.78-7.18,7.78-13.64,0-17.22,17.24-17.52,17.42-17.52h0a.9.9,0,0,1,0,1.8c-.64,0-15.63.31-15.63,15.73,0,17.22-17.38,17.45-17.55,17.46Z"/><path class="cls-1" d="M200.72,151.15H134.49a.9.9,0,0,1,0-1.8h66.23a.9.9,0,1,1,0,1.8Z"/><path class="cls-1" d="M200.66,167.64H134.43a.9.9,0,0,1,0-1.8h66.23a.9.9,0,0,1,0,1.8Z"/><path class="cls-1" d="M200.72,184.27H134.49a.9.9,0,0,1,0-1.8h66.23a.9.9,0,0,1,0,1.8Z"/><path class="cls-1" d="M349.88,51.49a.9.9,0,0,1-.9-.9V17.44a.9.9,0,0,1,1.8,0V50.59A.9.9,0,0,1,349.88,51.49Z"/><path class="cls-1" d="M366.38,68.09a.9.9,0,0,1-.9-.9V.9a.9.9,0,0,1,1.8,0V67.2A.9.9,0,0,1,366.38,68.09Z"/><path class="cls-1" d="M383,51.49a.9.9,0,0,1-.9-.9V17.44a.9.9,0,1,1,1.8,0V50.59A.9.9,0,0,1,383,51.49Z"/><path class="cls-1" d="M963.14,134.43a.9.9,0,0,1-.9-.9V67.26a.9.9,0,1,1,1.8,0v66.26A.9.9,0,0,1,963.14,134.43Z"/><path class="cls-1" d="M996.27,101.29H930a.9.9,0,1,1,0-1.8h66.26a.9.9,0,1,1,0,1.8Z"/><path class="cls-1" d="M930,134.43a.9.9,0,0,1-.64-1.53l66.26-66.26a.9.9,0,0,1,1.27,1.27l-66.26,66.26A.9.9,0,0,1,930,134.43Z"/><path class="cls-1" d="M996.29,134.44a.9.9,0,0,1-.64-.26l-66.3-66.3a.9.9,0,1,1,1.27-1.27l66.3,66.3a.9.9,0,0,1-.64,1.53Z"/><path class="cls-1" d="M565.35,134.43a.9.9,0,0,1-.9-.9V67.26a.9.9,0,0,1,1.8,0v66.26A.9.9,0,0,1,565.35,134.43Z"/><path class="cls-1" d="M598.48,101.29H532.22a.9.9,0,0,1,0-1.8h66.26a.9.9,0,0,1,0,1.8Z"/><path class="cls-1" d="M532.22,134.43a.9.9,0,0,1-.64-1.53l66.26-66.26a.9.9,0,0,1,1.27,1.27l-66.26,66.26A.9.9,0,0,1,532.22,134.43Z"/><path class="cls-1" d="M598.5,134.44a.9.9,0,0,1-.64-.26l-66.3-66.3a.9.9,0,1,1,1.27-1.27l66.3,66.3a.9.9,0,0,1-.64,1.53Z"/><path class="cls-1" d="M731.09,134.44a.9.9,0,0,0,.64-.26L798,67.88a.9.9,0,1,0-1.27-1.27l-66.3,66.3a.9.9,0,0,0,.64,1.53Z"/><path class="cls-1" d="M764.26,134.41a.89.89,0,0,0,.64-.27L798,100.95a.9.9,0,0,0-1.27-1.27l-33.07,33.2a.9.9,0,0,0,.64,1.53Z"/><path class="cls-1" d="M731.09,101.21a.9.9,0,0,0,.63-.26l33.16-33.07a.9.9,0,0,0-1.27-1.27L730.46,99.67a.9.9,0,0,0,.63,1.54Z"/><path class="cls-1" d="M930,134.44a.9.9,0,0,1-.64-.26l-66.3-66.3a.9.9,0,1,1,1.27-1.27l66.3,66.3a.9.9,0,0,1-.64,1.53Z"/><path class="cls-1" d="M896.82,134.41a.89.89,0,0,1-.64-.27l-33.06-33.2a.9.9,0,0,1,1.27-1.27l33.06,33.2a.9.9,0,0,1-.64,1.53Z"/><path class="cls-1" d="M930,101.21a.9.9,0,0,1-.63-.26L896.18,67.88a.9.9,0,0,1,1.27-1.27l33.17,33.07a.9.9,0,0,1-.63,1.54Z"/><path class="cls-1" d="M731,134.24a.9.9,0,0,0,0-1.8c-1.31,0-32.15-.4-32.15-32.22,0-33.63-33.74-34-34.08-34a.9.9,0,0,0,0,1.8A40.85,40.85,0,0,1,681,72.08c10.64,5.33,16,14.8,16,28.14C697,133.85,730.62,134.24,731,134.24Z"/><path class="cls-1" d="M697.91,134.3a.9.9,0,0,0,0-1.8,20.18,20.18,0,0,1-8-2c-5.16-2.59-7.78-7.18-7.78-13.64,0-17.22-17.24-17.52-17.42-17.52h0a.9.9,0,0,0,0,1.8c.64,0,15.63.31,15.63,15.72,0,17.22,17.38,17.46,17.55,17.46Z"/><path class="cls-1" d="M731,101.22a.9.9,0,0,0,0-1.8,20.18,20.18,0,0,1-8-2c-5.16-2.59-7.78-7.18-7.78-13.64,0-17.22-17.24-17.52-17.42-17.52h0a.9.9,0,0,0,0,1.8c.64,0,15.63.31,15.63,15.73,0,17.22,17.38,17.45,17.55,17.46Z"/><path class="cls-1" d="M996.29,200.85a.9.9,0,0,1-.9-.9,40.85,40.85,0,0,0-4.07-16.25c-5.33-10.64-14.8-16-28.14-16-33.62,0-34-33.61-34-33.95a.9.9,0,0,1,.9-.9h0a.9.9,0,0,1,.9.9c0,1.31.4,32.15,32.22,32.15,33.63,0,34,33.74,34,34.08a.9.9,0,0,1-.9.9Z"/><path class="cls-1" d="M963.17,200.85a.9.9,0,0,1-.9-.89c0-.64-.31-15.63-15.72-15.63-17.22,0-17.46-17.38-17.46-17.55a.9.9,0,0,1,.9-.9h0a.9.9,0,0,1,.9.9,20.18,20.18,0,0,0,2,8c2.59,5.16,7.18,7.78,13.64,7.78,17.22,0,17.52,17.24,17.52,17.42a.9.9,0,0,1-.89.9Z"/><path class="cls-1" d="M996.25,167.74a.9.9,0,0,1-.9-.89c0-.64-.31-15.63-15.72-15.63-17.22,0-17.46-17.38-17.46-17.55a.9.9,0,0,1,.9-.9h0a.9.9,0,0,1,.9.9,20.18,20.18,0,0,0,2,8c2.59,5.16,7.18,7.78,13.64,7.78,17.22,0,17.52,17.24,17.52,17.42a.9.9,0,0,1-.89.9Z"/><path class="cls-1" d="M1062.55,84.74H996.32a.9.9,0,1,1,0-1.8h66.23a.9.9,0,1,1,0,1.8Z"/><path class="cls-1" d="M1062.48,101.23H996.25a.9.9,0,0,1,0-1.8h66.23a.9.9,0,1,1,0,1.8Z"/><path class="cls-1" d="M1062.55,117.85H996.32a.9.9,0,0,1,0-1.8h66.23a.9.9,0,1,1,0,1.8Z"/><path class="cls-1" d="M664.8,84.74H598.57a.9.9,0,0,1,0-1.8H664.8a.9.9,0,1,1,0,1.8Z"/><path class="cls-1" d="M664.73,101.23H598.5a.9.9,0,1,1,0-1.8h66.23a.9.9,0,1,1,0,1.8Z"/><path class="cls-1" d="M664.8,117.85H598.57a.9.9,0,0,1,0-1.8H664.8a.9.9,0,1,1,0,1.8Z"/><path class="cls-1" d="M532.24,84.74H466a.9.9,0,0,1,0-1.8h66.23a.9.9,0,1,1,0,1.8Z"/><path class="cls-1" d="M532.17,101.23H465.94a.9.9,0,1,1,0-1.8h66.23a.9.9,0,1,1,0,1.8Z"/><path class="cls-1" d="M532.24,117.85H466a.9.9,0,0,1,0-1.8h66.23a.9.9,0,1,1,0,1.8Z"/><path class="cls-1" d="M814,117.83a.9.9,0,0,1-.9-.9V83.79a.9.9,0,0,1,1.8,0v33.15A.9.9,0,0,1,814,117.83Z"/><path class="cls-1" d="M830.47,134.44a.9.9,0,0,1-.9-.9V67.25a.9.9,0,1,1,1.8,0v66.3A.9.9,0,0,1,830.47,134.44Z"/><path class="cls-1" d="M847.11,117.83a.9.9,0,0,1-.9-.9V83.79a.9.9,0,1,1,1.8,0v33.15A.9.9,0,0,1,847.11,117.83Z"/><path class="cls-1" d="M200.72,68.09a6.09,6.09,0,0,1-4.45-1.85c-4.8-4.8-4.78-18.16-4.77-32.3,0-13.09,0-26.62-4.2-30.85a4.2,4.2,0,0,0-2.83-1.29.8.8,0,0,1-.3.06A4.25,4.25,0,0,0,181,3.17c-4.21,4.21-4.19,17.61-4.18,30.57,0,14,0,27.24-4.75,32a6.12,6.12,0,0,1-4.47,1.86h-.13A6.12,6.12,0,0,1,163,65.77c-4.78-4.78-4.76-18-4.75-32,0-13,0-26.36-4.18-30.57A4.25,4.25,0,0,0,151,1.87a.89.89,0,0,1-.32-.06,4.2,4.2,0,0,0-2.81,1.29c-4.22,4.23-4.21,17.76-4.2,30.85,0,14.14,0,27.5-4.77,32.3a6.09,6.09,0,0,1-4.45,1.85.9.9,0,1,1,0-1.8A4.29,4.29,0,0,0,137.6,65c4.27-4.27,4.26-17.87,4.24-31,0-14.07,0-27.36,4.72-32.12A6,6,0,0,1,151,0a.9.9,0,0,1,.36.08,6,6,0,0,1,4.05,1.83c4.73,4.74,4.72,17.91,4.71,31.85,0,13,0,26.49,4.22,30.75a4.32,4.32,0,0,0,3.2,1.33h.13a4.32,4.32,0,0,0,3.2-1.33c4.25-4.26,4.24-17.72,4.22-30.75,0-13.94,0-27.11,4.71-31.85A6,6,0,0,1,183.84.08a.79.79,0,0,1,.34-.08,6,6,0,0,1,4.39,1.83c4.75,4.76,4.74,18,4.72,32.12,0,13.15,0,26.75,4.24,31a4.29,4.29,0,0,0,3.18,1.32.9.9,0,1,1,0,1.8Z"/><path class="cls-1" d="M664.8,68.09a6.09,6.09,0,0,1-4.45-1.85c-4.8-4.8-4.78-18.16-4.77-32.3,0-13.09,0-26.62-4.2-30.85a4.2,4.2,0,0,0-2.83-1.29.8.8,0,0,1-.3.06,4.25,4.25,0,0,0-3.14,1.31c-4.21,4.21-4.19,17.61-4.18,30.57,0,14,0,27.24-4.75,32a6.12,6.12,0,0,1-4.47,1.86h-.13a6.12,6.12,0,0,1-4.47-1.86c-4.78-4.78-4.76-18-4.75-32,0-13,0-26.36-4.18-30.57A4.25,4.25,0,0,0,615,1.87a.89.89,0,0,1-.32-.06,4.2,4.2,0,0,0-2.81,1.29c-4.22,4.23-4.21,17.76-4.2,30.85,0,14.14,0,27.49-4.77,32.3a6.09,6.09,0,0,1-4.45,1.85.9.9,0,1,1,0-1.8A4.29,4.29,0,0,0,601.68,65c4.27-4.27,4.26-17.87,4.24-31,0-14.07,0-27.36,4.73-32.12A6,6,0,0,1,615,0a.9.9,0,0,1,.36.08,6,6,0,0,1,4.05,1.83c4.73,4.74,4.72,17.91,4.71,31.85,0,13,0,26.49,4.22,30.75a4.32,4.32,0,0,0,3.2,1.33h.13a4.32,4.32,0,0,0,3.2-1.33c4.25-4.26,4.24-17.72,4.22-30.75,0-13.94,0-27.11,4.71-31.85A6,6,0,0,1,647.92.08a.79.79,0,0,1,.34-.08,6,6,0,0,1,4.4,1.83c4.75,4.76,4.74,18,4.72,32.12,0,13.15,0,26.75,4.24,31a4.29,4.29,0,0,0,3.18,1.32.9.9,0,1,1,0,1.8Z"/><path class="cls-1" d="M183.93,239.59a6.5,6.5,0,1,1,6.5-6.5A6.51,6.51,0,0,1,183.93,239.59Zm0-11.21a4.71,4.71,0,1,0,4.71,4.71A4.71,4.71,0,0,0,183.93,228.38Z"/><path class="cls-1" d="M151.22,239.59a6.5,6.5,0,1,1,6.5-6.5A6.51,6.51,0,0,1,151.22,239.59Zm0-11.21a4.71,4.71,0,1,0,4.71,4.71A4.71,4.71,0,0,0,151.22,228.38Z"/><path class="cls-1" d="M167.57,256a6.5,6.5,0,1,1,6.5-6.5A6.51,6.51,0,0,1,167.57,256Zm0-11.21a4.71,4.71,0,1,0,4.7,4.71A4.71,4.71,0,0,0,167.57,244.74Z"/><path class="cls-1" d="M167.57,223.24a6.5,6.5,0,1,1,6.5-6.5A6.51,6.51,0,0,1,167.57,223.24Zm0-11.21a4.71,4.71,0,1,0,4.7,4.7A4.71,4.71,0,0,0,167.57,212Z"/><path class="cls-1" d="M200.72,267.14a.9.9,0,0,1-.65-.28l-25-26a10.64,10.64,0,0,0-15,0l-25,26a.9.9,0,0,1-1.3-1.24l25-26a12.44,12.44,0,0,1,17.61,0l25,26.06a.9.9,0,0,1-.65,1.52Z"/><path class="cls-1" d="M167.57,230.27a12.36,12.36,0,0,1-8.8-3.64l-25-26.06a.9.9,0,0,1,1.3-1.24l25,26a10.64,10.64,0,0,0,15,0l25-26a.9.9,0,0,1,1.3,1.24l-25,26A12.37,12.37,0,0,1,167.57,230.27Z"/><path class="cls-1" d="M449.12,40.55a6.5,6.5,0,1,1,6.5-6.5A6.51,6.51,0,0,1,449.12,40.55Zm0-11.21a4.71,4.71,0,1,0,4.7,4.71A4.71,4.71,0,0,0,449.12,29.34Z"/><path class="cls-1" d="M416.4,40.55a6.5,6.5,0,1,1,6.5-6.5A6.51,6.51,0,0,1,416.4,40.55Zm0-11.21A4.71,4.71,0,1,0,421.11,34,4.71,4.71,0,0,0,416.4,29.34Z"/><path class="cls-1" d="M432.76,56.91a6.5,6.5,0,1,1,6.5-6.5A6.51,6.51,0,0,1,432.76,56.91Zm0-11.21a4.71,4.71,0,1,0,4.71,4.71A4.71,4.71,0,0,0,432.76,45.7Z"/><path class="cls-1" d="M432.76,24.19a6.5,6.5,0,1,1,6.5-6.5A6.51,6.51,0,0,1,432.76,24.19Zm0-11.21a4.71,4.71,0,1,0,4.71,4.7A4.71,4.71,0,0,0,432.76,13Z"/><path class="cls-1" d="M465.91,68.09a.9.9,0,0,1-.65-.28l-25-26a10.65,10.65,0,0,0-15,0l-25,26a.9.9,0,0,1-1.3-1.24l25-26a12.46,12.46,0,0,1,17.61,0l25,26.06a.9.9,0,0,1-.65,1.52Z"/><path class="cls-1" d="M432.76,31.22A12.4,12.4,0,0,1,424,27.58L399,1.52a.9.9,0,0,1,1.3-1.24l25,26a10.65,10.65,0,0,0,15,0l25-26a.9.9,0,0,1,1.3,1.24l-25,26A12.43,12.43,0,0,1,432.76,31.22Z"/><path class="cls-1" d="M366.52,107.74a7.28,7.28,0,1,1,7.27-7.28A7.28,7.28,0,0,1,366.52,107.74Zm0-12.75a5.48,5.48,0,1,0,5.48,5.48A5.48,5.48,0,0,0,366.52,95Z"/><path class="cls-1" d="M351.75,122.37a7.27,7.27,0,1,1,7.27-7.27A7.28,7.28,0,0,1,351.75,122.37Zm0-12.75a5.48,5.48,0,1,0,5.48,5.48A5.48,5.48,0,0,0,351.75,109.62Z"/><path class="cls-1" d="M381.15,93a7.27,7.27,0,1,1,7.28-7.27A7.28,7.28,0,0,1,381.15,93Zm0-12.75a5.48,5.48,0,1,0,5.48,5.48A5.48,5.48,0,0,0,381.15,80.22Z"/><path class="cls-1" d="M351.75,93A7.27,7.27,0,1,1,359,85.7,7.28,7.28,0,0,1,351.75,93Zm0-12.75a5.48,5.48,0,1,0,5.48,5.48A5.48,5.48,0,0,0,351.75,80.22Z"/><path class="cls-1" d="M381.15,122.1a7.27,7.27,0,1,1,7.28-7.27A7.28,7.28,0,0,1,381.15,122.1Zm0-12.75a5.48,5.48,0,1,0,5.48,5.48A5.48,5.48,0,0,0,381.15,109.35Z"/><path class="cls-1" d="M797.39,68.09a.9.9,0,0,1-.64-.26l-66.3-66.3A.9.9,0,0,1,731.73.26L798,66.56a.9.9,0,0,1-.64,1.53Z"/><path class="cls-1" d="M764.23,68.06a.89.89,0,0,1-.64-.27L730.52,34.6a.9.9,0,0,1,1.27-1.27l33.07,33.2a.9.9,0,0,1-.64,1.53Z"/><path class="cls-1" d="M797.39,34.86a.9.9,0,0,1-.63-.26L763.59,1.54A.9.9,0,0,1,764.86.26L798,33.33a.9.9,0,0,1-.63,1.54Z"/><path class="cls-1" d="M697.95,41.26A7.21,7.21,0,1,1,705.16,34,7.22,7.22,0,0,1,697.95,41.26Zm0-12.62A5.41,5.41,0,1,0,703.36,34,5.42,5.42,0,0,0,697.95,28.64Z"/><path class="cls-1" d="M697.88,55.45a.9.9,0,0,1-.64-.26L676.67,34.62a.9.9,0,0,1,0-1.27l20.57-20.57a.9.9,0,0,1,1.27,0l20.57,20.57a.9.9,0,0,1,0,1.27L698.52,55.19A.9.9,0,0,1,697.88,55.45ZM678.58,34l19.3,19.3L717.18,34l-19.3-19.3Z"/><path class="cls-1" d="M664.8,68.09a.9.9,0,0,1-.64-1.53L687,43.7A.9.9,0,0,1,688.29,45L665.43,67.83A.9.9,0,0,1,664.8,68.09Z"/><path class="cls-1" d="M687.59,24.59a.9.9,0,0,1-.64-.26L664.16,1.54A.9.9,0,1,1,665.43.26l22.79,22.79a.9.9,0,0,1-.64,1.53Z"/><path class="cls-1" d="M708.23,24.66a.9.9,0,0,1-.64-1.53L730.46.26a.9.9,0,1,1,1.27,1.27L708.87,24.4A.9.9,0,0,1,708.23,24.66Z"/><path class="cls-1" d="M731.09,68.09a.9.9,0,0,1-.64-.26L707.53,44.9a.9.9,0,0,1,1.27-1.27l22.93,22.93a.9.9,0,0,1-.64,1.53Z"/><path class="cls-1" d="M913.19,40.55a6.5,6.5,0,1,1,6.5-6.5A6.51,6.51,0,0,1,913.19,40.55Zm0-11.21A4.71,4.71,0,1,0,917.9,34,4.71,4.71,0,0,0,913.19,29.34Z"/><path class="cls-1" d="M880.48,40.55A6.5,6.5,0,1,1,887,34,6.51,6.51,0,0,1,880.48,40.55Zm0-11.21A4.71,4.71,0,1,0,885.18,34,4.71,4.71,0,0,0,880.48,29.34Z"/><path class="cls-1" d="M896.84,56.91a6.5,6.5,0,1,1,6.5-6.5A6.51,6.51,0,0,1,896.84,56.91Zm0-11.21a4.71,4.71,0,1,0,4.7,4.71A4.71,4.71,0,0,0,896.84,45.7Z"/><path class="cls-1" d="M896.84,24.19a6.5,6.5,0,1,1,6.5-6.5A6.51,6.51,0,0,1,896.84,24.19Zm0-11.21a4.71,4.71,0,1,0,4.7,4.7A4.71,4.71,0,0,0,896.84,13Z"/><path class="cls-1" d="M930,68.09a.9.9,0,0,1-.65-.28l-25-26a10.64,10.64,0,0,0-15,0l-25,26a.9.9,0,0,1-1.3-1.24l25-26a12.46,12.46,0,0,1,17.61,0l25,26.06a.9.9,0,0,1-.65,1.52Z"/><path class="cls-1" d="M896.83,31.22A12.4,12.4,0,0,1,888,27.58L863,1.52a.9.9,0,0,1,1.3-1.24l25,26a10.64,10.64,0,0,0,15,0l25-26a.9.9,0,0,1,1.3,1.24l-25,26A12.43,12.43,0,0,1,896.83,31.22Z"/><path class="cls-1" d="M830.61,41.39a7.28,7.28,0,1,1,7.27-7.28A7.28,7.28,0,0,1,830.61,41.39Zm0-12.75a5.48,5.48,0,1,0,5.48,5.48A5.48,5.48,0,0,0,830.61,28.64Z"/><path class="cls-1" d="M815.84,56a7.27,7.27,0,1,1,7.27-7.27A7.28,7.28,0,0,1,815.84,56Zm0-12.75a5.48,5.48,0,1,0,5.48,5.48A5.48,5.48,0,0,0,815.84,43.27Z"/><path class="cls-1" d="M845.24,26.62a7.27,7.27,0,1,1,7.27-7.27A7.28,7.28,0,0,1,845.24,26.62Zm0-12.75a5.48,5.48,0,1,0,5.48,5.48A5.48,5.48,0,0,0,845.24,13.87Z"/><path class="cls-1" d="M815.84,26.62a7.27,7.27,0,1,1,7.27-7.27A7.28,7.28,0,0,1,815.84,26.62Zm0-12.75a5.48,5.48,0,1,0,5.48,5.48A5.48,5.48,0,0,0,815.84,13.87Z"/><path class="cls-1" d="M845.24,55.75a7.27,7.27,0,1,1,7.27-7.27A7.28,7.28,0,0,1,845.24,55.75Zm0-12.75a5.48,5.48,0,1,0,5.48,5.48A5.48,5.48,0,0,0,845.24,43Z"/><path class="cls-1" d="M571.2,55.47a7.87,7.87,0,0,1-5.84-2.64,7.88,7.88,0,0,1-5.84,2.64,6.75,6.75,0,0,1-5.22-2.69,8.16,8.16,0,0,1-1.55-6.12,8.15,8.15,0,0,1-6.12-1.55,6.75,6.75,0,0,1-2.69-5.22A7.88,7.88,0,0,1,546.57,34a7.88,7.88,0,0,1-2.64-5.84A6.75,6.75,0,0,1,546.61,23a8.12,8.12,0,0,1,6.12-1.55,8.16,8.16,0,0,1,1.55-6.12,6.75,6.75,0,0,1,5.22-2.69,7.88,7.88,0,0,1,5.84,2.64,7.87,7.87,0,0,1,5.84-2.64,6.75,6.75,0,0,1,5.22,2.69A8.16,8.16,0,0,1,578,21.43,8.13,8.13,0,0,1,584.09,23a6.75,6.75,0,0,1,2.69,5.22A7.88,7.88,0,0,1,584.14,34a7.88,7.88,0,0,1,2.64,5.84,6.75,6.75,0,0,1-2.69,5.22A8.16,8.16,0,0,1,578,46.67a8.16,8.16,0,0,1-1.55,6.12A6.75,6.75,0,0,1,571.2,55.47Zm-5.84-5h0a.9.9,0,0,1,.74.38,6.23,6.23,0,0,0,5.11,2.79,5,5,0,0,0,3.8-2,6.75,6.75,0,0,0,1-5.92.9.9,0,0,1,1.09-1.09,6.76,6.76,0,0,0,5.92-1,5,5,0,0,0,2-3.8,6.24,6.24,0,0,0-2.79-5.11.9.9,0,0,1,0-1.47A6.24,6.24,0,0,0,585,28.2a5,5,0,0,0-2-3.8,6.76,6.76,0,0,0-5.92-1A.9.9,0,0,1,576,22.33a6.75,6.75,0,0,0-1-5.92,5,5,0,0,0-3.8-2,6.23,6.23,0,0,0-5.11,2.79.93.93,0,0,1-1.47,0,6.24,6.24,0,0,0-5.11-2.79,5,5,0,0,0-3.8,2,6.75,6.75,0,0,0-1,5.92.9.9,0,0,1-1.09,1.09,6.76,6.76,0,0,0-5.92,1,5,5,0,0,0-2,3.8,6.24,6.24,0,0,0,2.79,5.11.9.9,0,0,1,0,1.47,6.24,6.24,0,0,0-2.79,5.11,5,5,0,0,0,2,3.8,6.75,6.75,0,0,0,5.92,1,.9.9,0,0,1,1.09,1.09,6.75,6.75,0,0,0,1,5.92,5,5,0,0,0,3.8,2,6.24,6.24,0,0,0,5.11-2.79A.9.9,0,0,1,565.35,50.5Z"/><path class="cls-1" d="M557.47,27.06a.9.9,0,0,1-.64-.26L531.57,1.54A.9.9,0,0,1,532.84.26L558.1,25.53a.9.9,0,0,1-.64,1.53Z"/><path class="cls-1" d="M598.5,68.09a.9.9,0,0,1-.64-.26L572.6,42.57a.9.9,0,1,1,1.27-1.27l25.26,25.26a.9.9,0,0,1-.64,1.53Z"/><path class="cls-1" d="M573.24,27.06a.9.9,0,0,1-.64-1.53L597.87.26a.9.9,0,0,1,1.27,1.27L573.87,26.8A.9.9,0,0,1,573.24,27.06Z"/><path class="cls-1" d="M532.2,68.09a.9.9,0,0,1-.64-1.53L556.83,41.3a.9.9,0,1,1,1.27,1.27L532.84,67.83A.9.9,0,0,1,532.2,68.09Z"/><path class="cls-1" d="M1062.52,267a.9.9,0,0,1-.64-.26l-66.3-66.3a.9.9,0,1,1,1.27-1.27l66.3,66.3a.9.9,0,0,1-.64,1.53Z"/><path class="cls-1" d="M1029.35,267a.89.89,0,0,1-.64-.27l-33.06-33.2a.9.9,0,1,1,1.27-1.27l33.06,33.2a.9.9,0,0,1-.64,1.53Z"/><path class="cls-1" d="M1062.52,233.77a.9.9,0,0,1-.63-.26l-33.17-33.06a.9.9,0,0,1,1.27-1.27l33.17,33.06a.9.9,0,0,1-.63,1.54Z"/><path class="cls-1" d="M963.14,240.16a7.21,7.21,0,1,1,7.21-7.21A7.22,7.22,0,0,1,963.14,240.16Zm0-12.62a5.41,5.41,0,1,0,5.41,5.41A5.42,5.42,0,0,0,963.14,227.54Z"/><path class="cls-1" d="M963.07,254.36a.9.9,0,0,1-.64-.26l-20.57-20.57a.9.9,0,0,1,0-1.27l20.57-20.57a.9.9,0,0,1,1.27,0l20.57,20.57a.9.9,0,0,1,0,1.27l-20.57,20.57A.9.9,0,0,1,963.07,254.36Zm-19.3-21.47,19.3,19.3,19.3-19.3-19.3-19.3Z"/><path class="cls-1" d="M930,267a.9.9,0,0,1-.64-1.53l22.86-22.86a.9.9,0,0,1,1.27,1.27l-22.86,22.86A.9.9,0,0,1,930,267Z"/><path class="cls-1" d="M952.79,223.5a.9.9,0,0,1-.64-.26l-22.79-22.79a.9.9,0,1,1,1.27-1.27L953.42,222a.9.9,0,0,1-.64,1.53Z"/><path class="cls-1" d="M973.43,223.56a.9.9,0,0,1-.64-1.53l22.86-22.86a.9.9,0,0,1,1.27,1.27L974.06,223.3A.9.9,0,0,1,973.43,223.56Z"/><path class="cls-1" d="M996.29,267a.9.9,0,0,1-.64-.26l-22.93-22.93a.9.9,0,0,1,1.27-1.27l22.93,22.93a.9.9,0,0,1-.64,1.53Z"/><path class="cls-1" d="M1035.27,55.47a7.88,7.88,0,0,1-5.84-2.64,7.88,7.88,0,0,1-5.84,2.64,6.75,6.75,0,0,1-5.22-2.69,8.16,8.16,0,0,1-1.55-6.12,8.16,8.16,0,0,1-6.12-1.55,6.74,6.74,0,0,1-2.69-5.22,7.88,7.88,0,0,1,2.64-5.84A7.88,7.88,0,0,1,1008,28.2a6.74,6.74,0,0,1,2.69-5.22,8.13,8.13,0,0,1,6.12-1.55,8.16,8.16,0,0,1,1.55-6.12,6.75,6.75,0,0,1,5.22-2.69,7.88,7.88,0,0,1,5.84,2.64,7.88,7.88,0,0,1,5.84-2.64,6.75,6.75,0,0,1,5.22,2.69,8.16,8.16,0,0,1,1.55,6.12,8.13,8.13,0,0,1,6.12,1.55,6.75,6.75,0,0,1,2.69,5.22,7.88,7.88,0,0,1-2.64,5.84,7.88,7.88,0,0,1,2.64,5.84,6.75,6.75,0,0,1-2.69,5.22,8.16,8.16,0,0,1-6.12,1.55,8.16,8.16,0,0,1-1.55,6.12A6.75,6.75,0,0,1,1035.27,55.47Zm-5.84-5a.9.9,0,0,1,.74.38,6.24,6.24,0,0,0,5.11,2.79,5,5,0,0,0,3.8-2,6.75,6.75,0,0,0,1-5.92.9.9,0,0,1,1.09-1.09,6.76,6.76,0,0,0,5.92-1,5,5,0,0,0,2-3.8,6.24,6.24,0,0,0-2.79-5.11.9.9,0,0,1,0-1.47,6.24,6.24,0,0,0,2.79-5.11,5,5,0,0,0-2-3.8,6.76,6.76,0,0,0-5.92-1,.9.9,0,0,1-1.09-1.09,6.75,6.75,0,0,0-1-5.92,5,5,0,0,0-3.8-2,6.24,6.24,0,0,0-5.11,2.79.93.93,0,0,1-1.47,0,6.24,6.24,0,0,0-5.11-2.79,5,5,0,0,0-3.8,2,6.75,6.75,0,0,0-1,5.92.9.9,0,0,1-1.09,1.09,6.75,6.75,0,0,0-5.92,1,5,5,0,0,0-2,3.8,6.24,6.24,0,0,0,2.79,5.11.9.9,0,0,1,0,1.47,6.24,6.24,0,0,0-2.79,5.11,5,5,0,0,0,2,3.8,6.75,6.75,0,0,0,5.92,1,.9.9,0,0,1,1.09,1.09,6.75,6.75,0,0,0,1,5.92,5,5,0,0,0,3.8,2,6.24,6.24,0,0,0,5.11-2.79A.9.9,0,0,1,1029.43,50.5Z"/><path class="cls-1" d="M1021.54,27.06a.9.9,0,0,1-.64-.26L995.64,1.54A.9.9,0,1,1,996.92.26l25.26,25.26a.9.9,0,0,1-.64,1.53Z"/><path class="cls-1" d="M1062.58,68.09a.9.9,0,0,1-.64-.26l-25.26-25.26a.9.9,0,1,1,1.27-1.27l25.26,25.26a.9.9,0,0,1-.64,1.53Z"/><path class="cls-1" d="M1037.31,27.06a.9.9,0,0,1-.64-1.53L1061.94.26a.9.9,0,0,1,1.27,1.27L1037.95,26.8A.9.9,0,0,1,1037.31,27.06Z"/><path class="cls-1" d="M996.28,68.09a.9.9,0,0,1-.64-1.53l25.26-25.26a.9.9,0,1,1,1.27,1.27L996.92,67.83A.9.9,0,0,1,996.28,68.09Z"/><path class="cls-1" d="M233.87,306.6a7.21,7.21,0,1,1,7.21-7.21A7.22,7.22,0,0,1,233.87,306.6Zm0-12.62a5.41,5.41,0,1,0,5.41,5.41A5.42,5.42,0,0,0,233.87,294Z"/><path class="cls-1" d="M233.8,320.8a.9.9,0,0,1-.64-.26L212.59,300a.9.9,0,0,1,0-1.27l20.57-20.57a.93.93,0,0,1,1.27,0L255,298.69a.9.9,0,0,1,0,1.27l-20.57,20.57A.9.9,0,0,1,233.8,320.8Zm-19.3-21.47,19.3,19.3,19.3-19.3L233.8,280Z"/><path class="cls-1" d="M200.72,333.44a.9.9,0,0,1-.64-1.53L222.95,309a.9.9,0,0,1,1.27,1.27l-22.86,22.86A.9.9,0,0,1,200.72,333.44Z"/><path class="cls-1" d="M223.52,289.94a.9.9,0,0,1-.64-.26l-22.79-22.79a.9.9,0,1,1,1.27-1.27l22.79,22.79a.9.9,0,0,1-.64,1.53Z"/><path class="cls-1" d="M244.16,290a.9.9,0,0,1-.64-1.53l22.86-22.86a.9.9,0,1,1,1.27,1.27l-22.86,22.86A.9.9,0,0,1,244.16,290Z"/><path class="cls-1" d="M267,333.44a.9.9,0,0,1-.64-.26l-22.93-22.93a.9.9,0,0,1,1.27-1.27l22.93,22.93a.9.9,0,0,1-.64,1.53Z"/><path class="cls-1" d="M267,399.72a.9.9,0,0,0,0-1.8c-1.31,0-32.15-.4-32.15-32.22,0-33.62-33.74-34-34.08-34a.9.9,0,0,0,0,1.8A40.85,40.85,0,0,1,217,337.56c10.64,5.33,16,14.8,16,28.14C233,399.33,266.61,399.72,267,399.72Z"/><path class="cls-1" d="M233.9,399.79a.9.9,0,0,0,0-1.8,20.18,20.18,0,0,1-8-2c-5.16-2.59-7.78-7.18-7.78-13.64,0-17.22-17.24-17.52-17.42-17.52a.89.89,0,0,0-.9.89.9.9,0,0,0,.89.91c.64,0,15.63.31,15.63,15.73,0,17.22,17.38,17.46,17.55,17.46Z"/><path class="cls-1" d="M267,366.7a.9.9,0,0,0,0-1.8,20.18,20.18,0,0,1-8-2c-5.16-2.59-7.78-7.18-7.78-13.64,0-17.22-17.24-17.52-17.42-17.52h0a.9.9,0,0,0,0,1.8c.64,0,15.63.31,15.63,15.73,0,17.22,17.38,17.46,17.55,17.46Z"/><path class="cls-1" d="M200.72,350.08H134.49a.9.9,0,0,1,0-1.8h66.23a.9.9,0,1,1,0,1.8Z"/><path class="cls-1" d="M200.66,366.57H134.43a.9.9,0,1,1,0-1.8h66.23a.9.9,0,1,1,0,1.8Z"/><path class="cls-1" d="M200.72,383.19H134.49a.9.9,0,0,1,0-1.8h66.23a.9.9,0,1,1,0,1.8Z"/><path class="cls-1" d="M963.14,399.77a.9.9,0,0,1-.9-.9V332.61a.9.9,0,1,1,1.8,0v66.26A.9.9,0,0,1,963.14,399.77Z"/><path class="cls-1" d="M996.27,366.64H930a.9.9,0,1,1,0-1.8h66.26a.9.9,0,1,1,0,1.8Z"/><path class="cls-1" d="M930,399.77a.9.9,0,0,1-.64-1.53L995.64,332a.9.9,0,0,1,1.27,1.27L930.64,399.5A.9.9,0,0,1,930,399.77Z"/><path class="cls-1" d="M996.29,399.79a.9.9,0,0,1-.64-.26l-66.3-66.3a.9.9,0,1,1,1.27-1.27l66.3,66.3a.9.9,0,0,1-.64,1.53Z"/><path class="cls-1" d="M1062.55,350.15H996.32a.9.9,0,0,1,0-1.8h66.23a.9.9,0,1,1,0,1.8Z"/><path class="cls-1" d="M1062.48,366.64H996.25a.9.9,0,0,1,0-1.8h66.23a.9.9,0,1,1,0,1.8Z"/><path class="cls-1" d="M1062.55,383.26H996.32a.9.9,0,0,1,0-1.8h66.23a.9.9,0,1,1,0,1.8Z"/><path class="cls-1" d="M200.72,333.44a6.09,6.09,0,0,1-4.45-1.85c-4.8-4.8-4.78-18.16-4.77-32.3,0-13.09,0-26.62-4.2-30.85a4.2,4.2,0,0,0-2.82-1.29.8.8,0,0,1-.3.06,4.25,4.25,0,0,0-3.14,1.31c-4.21,4.21-4.19,17.61-4.18,30.58,0,14,0,27.24-4.75,32a6.12,6.12,0,0,1-4.47,1.86h-.13a6.12,6.12,0,0,1-4.47-1.86c-4.78-4.78-4.76-18-4.75-32,0-13,0-26.36-4.18-30.58a4.25,4.25,0,0,0-3.14-1.31.89.89,0,0,1-.32-.06,4.2,4.2,0,0,0-2.81,1.29c-4.23,4.23-4.21,17.76-4.2,30.85,0,14.14,0,27.5-4.77,32.3a6.09,6.09,0,0,1-4.45,1.85.9.9,0,1,1,0-1.8,4.29,4.29,0,0,0,3.18-1.32c4.27-4.27,4.26-17.87,4.24-31,0-14.07,0-27.36,4.72-32.12a6,6,0,0,1,4.39-1.83.9.9,0,0,1,.36.08,6,6,0,0,1,4.05,1.83c4.73,4.74,4.72,17.91,4.71,31.85,0,13,0,26.49,4.22,30.75a4.32,4.32,0,0,0,3.2,1.33h.13a4.32,4.32,0,0,0,3.2-1.33c4.25-4.26,4.24-17.72,4.22-30.75,0-13.94,0-27.11,4.71-31.85a6,6,0,0,1,4.08-1.83.79.79,0,0,1,.34-.08,6,6,0,0,1,4.39,1.83c4.75,4.76,4.74,18,4.72,32.12,0,13.15,0,26.75,4.24,31a4.29,4.29,0,0,0,3.18,1.32.9.9,0,1,1,0,1.8Z"/><path class="cls-1" d="M1035.27,320.82a7.88,7.88,0,0,1-5.84-2.64,7.88,7.88,0,0,1-5.84,2.64,6.75,6.75,0,0,1-5.22-2.69,8.16,8.16,0,0,1-1.55-6.12,8.16,8.16,0,0,1-6.12-1.55,6.74,6.74,0,0,1-2.69-5.22,7.88,7.88,0,0,1,2.64-5.84,7.88,7.88,0,0,1-2.64-5.84,6.74,6.74,0,0,1,2.69-5.22,8.13,8.13,0,0,1,6.12-1.55,8.16,8.16,0,0,1,1.55-6.12,6.75,6.75,0,0,1,5.22-2.69,7.88,7.88,0,0,1,5.84,2.64,7.88,7.88,0,0,1,5.84-2.64,6.74,6.74,0,0,1,5.22,2.69,8.16,8.16,0,0,1,1.55,6.12,8.14,8.14,0,0,1,6.12,1.55,6.75,6.75,0,0,1,2.69,5.22,7.88,7.88,0,0,1-2.64,5.84,7.88,7.88,0,0,1,2.64,5.84,6.75,6.75,0,0,1-2.69,5.22A8.15,8.15,0,0,1,1042,312a8.16,8.16,0,0,1-1.55,6.12A6.75,6.75,0,0,1,1035.27,320.82Zm-5.84-5a.9.9,0,0,1,.74.38,6.24,6.24,0,0,0,5.11,2.79,5,5,0,0,0,3.8-2,6.75,6.75,0,0,0,1-5.92.9.9,0,0,1,1.09-1.09,6.76,6.76,0,0,0,5.92-1,5,5,0,0,0,2-3.8,6.24,6.24,0,0,0-2.79-5.11.9.9,0,0,1,0-1.47,6.24,6.24,0,0,0,2.79-5.11,5,5,0,0,0-2-3.8,6.75,6.75,0,0,0-5.92-1,.9.9,0,0,1-1.09-1.09,6.75,6.75,0,0,0-1-5.92,5,5,0,0,0-3.8-2,6.24,6.24,0,0,0-5.11,2.79.93.93,0,0,1-1.47,0,6.24,6.24,0,0,0-5.11-2.79,5,5,0,0,0-3.8,2,6.75,6.75,0,0,0-1,5.92.9.9,0,0,1-1.09,1.09,6.75,6.75,0,0,0-5.92,1,5,5,0,0,0-2,3.8,6.24,6.24,0,0,0,2.79,5.11.9.9,0,0,1,0,1.47,6.24,6.24,0,0,0-2.79,5.11,5,5,0,0,0,2,3.8,6.75,6.75,0,0,0,5.92,1,.9.9,0,0,1,1.09,1.09,6.75,6.75,0,0,0,1,5.92,5,5,0,0,0,3.8,2,6.24,6.24,0,0,0,5.11-2.79A.9.9,0,0,1,1029.43,315.84Z"/><path class="cls-1" d="M1021.54,292.4a.9.9,0,0,1-.64-.26l-25.26-25.26a.9.9,0,1,1,1.27-1.27l25.26,25.26a.9.9,0,0,1-.64,1.53Z"/><path class="cls-1" d="M1062.58,333.44a.9.9,0,0,1-.64-.26l-25.26-25.26a.9.9,0,1,1,1.27-1.27l25.26,25.26a.9.9,0,0,1-.64,1.53Z"/><path class="cls-1" d="M1037.31,292.4a.9.9,0,0,1-.64-1.53l25.26-25.26a.9.9,0,1,1,1.27,1.27l-25.26,25.26A.9.9,0,0,1,1037.31,292.4Z"/><path class="cls-1" d="M996.28,333.44a.9.9,0,0,1-.64-1.53l25.26-25.26a.9.9,0,0,1,1.27,1.27l-25.26,25.26A.9.9,0,0,1,996.28,333.44Z"/><path class="cls-1" d="M1075.51,512.8a6.61,6.61,0,0,1-3.38-.9c-5.33-3.11-3.95-14.38-1.41-19.48a14.51,14.51,0,0,1,9.11-7.83c3.09-.86,5.45-.27,8.19.42a26.78,26.78,0,0,0,15.42,0c2.74-.69,5.1-1.28,8.19-.42a14.51,14.51,0,0,1,9.11,7.83c2.53,5.1,3.92,16.38-1.41,19.48-3.79,2.21-9,.3-14.2-5.23-3.14-3.32-6.21-4.93-9.4-4.93s-6.26,1.61-9.4,4.93C1082.52,510.7,1078.74,512.8,1075.51,512.8Zm7.37-26.84a9.47,9.47,0,0,0-2.58.36,12.73,12.73,0,0,0-8,6.9,23.52,23.52,0,0,0-2.05,9.6c0,2.21.34,6.12,2.76,7.53,3,1.75,7.37,0,12-4.91,3.5-3.7,7-5.49,10.71-5.49s7.21,1.8,10.71,5.49c4.61,4.87,9,6.67,12,4.91,2.42-1.41,2.77-5.32,2.76-7.53a23.54,23.54,0,0,0-2.05-9.6h0a12.73,12.73,0,0,0-8-6.9c-2.63-.74-4.68-.22-7.27.44a28.53,28.53,0,0,1-16.29,0A19.24,19.24,0,0,0,1082.88,486Z"/><path class="cls-1" d="M1080.57,502.41a2.67,2.67,0,0,1-2.67-2.67v-.26h-.26a2.67,2.67,0,0,1,0-5.33h.26v-.26a2.67,2.67,0,0,1,5.33,0v.26h.26a2.67,2.67,0,0,1,0,5.33h-.26v.26A2.67,2.67,0,0,1,1080.57,502.41Zm-2.92-6.46a.87.87,0,0,0,0,1.74h1.16a.9.9,0,0,1,.9.9v1.16a.87.87,0,0,0,1.74,0v-1.16a.9.9,0,0,1,.9-.9h1.16a.87.87,0,0,0,0-1.74h-1.16a.9.9,0,0,1-.9-.9V493.9a.87.87,0,0,0-1.74,0v1.16a.9.9,0,0,1-.9.9Z"/><path class="cls-1" d="M1110,496.27a2.52,2.52,0,1,1,2.52-2.52A2.52,2.52,0,0,1,1110,496.27Zm0-3.24a.72.72,0,1,0,.72.72A.72.72,0,0,0,1110,493Z"/><path class="cls-1" d="M1110,503.49a2.52,2.52,0,1,1,2.52-2.52A2.52,2.52,0,0,1,1110,503.49Zm0-3.24a.72.72,0,1,0,.72.72A.72.72,0,0,0,1110,500.25Z"/><path class="cls-1" d="M1113.57,499.88a2.52,2.52,0,1,1,2.52-2.52A2.52,2.52,0,0,1,1113.57,499.88Zm0-3.24a.72.72,0,1,0,.72.72A.72.72,0,0,0,1113.57,496.64Z"/><path class="cls-1" d="M1106.35,499.88a2.52,2.52,0,1,1,2.52-2.52A2.52,2.52,0,0,1,1106.35,499.88Zm0-3.24a.72.72,0,1,0,.72.72A.72.72,0,0,0,1106.35,496.64Z"/><path class="cls-1" d="M1095.72,487.95a.9.9,0,0,1-.9-.9v-21.7a.9.9,0,1,1,1.8,0V487A.9.9,0,0,1,1095.72,487.95Z"/><path class="cls-1" d="M1095.72,201a.9.9,0,0,1-.9-.9V133.83a.9.9,0,0,1,1.8,0V200.1A.9.9,0,0,1,1095.72,201Z"/><path class="cls-1" d="M1128.86,167.86h-66.26a.9.9,0,0,1,0-1.8h66.26a.9.9,0,0,1,0,1.8Z"/><path class="cls-1" d="M1062.59,201a.9.9,0,0,1-.64-1.53l66.26-66.26a.9.9,0,1,1,1.27,1.27l-66.26,66.26A.9.9,0,0,1,1062.59,201Z"/><path class="cls-1" d="M1128.87,201a.9.9,0,0,1-.64-.26l-66.3-66.3a.9.9,0,0,1,1.27-1.27l66.3,66.3a.9.9,0,0,1-.64,1.53Z"/><path class="cls-1" d="M1195.17,201a.9.9,0,0,1-.64-.26l-66.3-66.3a.9.9,0,0,1,1.27-1.27l66.3,66.3a.9.9,0,0,1-.64,1.53Z"/><path class="cls-1" d="M1162,201a.89.89,0,0,1-.64-.27l-33.06-33.2a.9.9,0,1,1,1.27-1.27l33.06,33.2A.9.9,0,0,1,1162,201Z"/><path class="cls-1" d="M1195.17,167.78a.9.9,0,0,1-.63-.26l-33.17-33.07a.9.9,0,0,1,1.27-1.27l33.17,33.07a.9.9,0,0,1-.63,1.54Z"/><path class="cls-1" d="M1195.17,134.6a.9.9,0,0,1-.64-.26L1128.24,68a.9.9,0,0,1,1.27-1.27l66.3,66.3a.9.9,0,0,1-.64,1.53Z"/><path class="cls-1" d="M1162,134.57a.89.89,0,0,1-.64-.27l-33.06-33.2a.9.9,0,1,1,1.27-1.27l33.06,33.2a.9.9,0,0,1-.64,1.53Z"/><path class="cls-1" d="M1195.17,101.37a.9.9,0,0,1-.63-.26L1161.37,68a.9.9,0,0,1,1.27-1.27l33.17,33.06a.9.9,0,0,1-.63,1.54Z"/><path class="cls-1" d="M1062.64,134.53a.9.9,0,0,1,0-1.8c1.31,0,32.15-.4,32.15-32.22,0-33.63,33.74-34,34.08-34a.9.9,0,0,1,0,1.8,40.85,40.85,0,0,0-16.25,4.07c-10.64,5.33-16,14.8-16,28.14C1096.59,134.14,1063,134.53,1062.64,134.53Z"/><path class="cls-1" d="M1095.69,134.6a.9.9,0,0,1,0-1.8,20.18,20.18,0,0,0,8-2c5.16-2.59,7.78-7.18,7.78-13.64,0-17.22,17.24-17.52,17.42-17.52h0a.9.9,0,0,1,0,1.8c-.64,0-15.63.31-15.63,15.72,0,17.22-17.38,17.46-17.55,17.46Z"/><path class="cls-1" d="M1062.58,101.52a.9.9,0,0,1,0-1.8,20.18,20.18,0,0,0,8-2c5.16-2.59,7.78-7.18,7.78-13.64,0-17.22,17.24-17.52,17.42-17.52h0a.9.9,0,0,1,0,1.8c-.64,0-15.63.31-15.63,15.72,0,17.22-17.38,17.46-17.55,17.46Z"/><path class="cls-1" d="M1195.17,68.25a.9.9,0,0,1-.64-.26l-66.3-66.3a.9.9,0,0,1,1.27-1.27l66.3,66.3a.9.9,0,0,1-.64,1.53Z"/><path class="cls-1" d="M1162,68.22a.89.89,0,0,1-.64-.27l-33.06-33.2a.9.9,0,1,1,1.27-1.27l33.06,33.2a.9.9,0,0,1-.64,1.53Z"/><path class="cls-1" d="M1195.17,35a.9.9,0,0,1-.63-.26L1161.37,1.69a.9.9,0,0,1,1.27-1.27l33.17,33.07a.9.9,0,0,1-.63,1.54Z"/><path class="cls-1" d="M1095.72,41.41a7.21,7.21,0,1,1,7.21-7.21A7.22,7.22,0,0,1,1095.72,41.41Zm0-12.62a5.41,5.41,0,1,0,5.41,5.41A5.42,5.42,0,0,0,1095.72,28.79Z"/><path class="cls-1" d="M1095.66,55.61a.9.9,0,0,1-.64-.26l-20.57-20.57a.9.9,0,0,1,0-1.27L1095,12.93a.93.93,0,0,1,1.27,0l20.57,20.57a.9.9,0,0,1,0,1.27l-20.57,20.57A.9.9,0,0,1,1095.66,55.61Zm-19.3-21.47,19.3,19.3,19.3-19.3-19.3-19.3Z"/><path class="cls-1" d="M1062.58,68.25a.9.9,0,0,1-.64-1.53l22.86-22.86a.9.9,0,0,1,1.27,1.27L1063.21,68A.9.9,0,0,1,1062.58,68.25Z"/><path class="cls-1" d="M1085.37,24.75a.9.9,0,0,1-.64-.26L1061.94,1.69a.9.9,0,0,1,1.27-1.27L1086,23.22a.9.9,0,0,1-.64,1.53Z"/><path class="cls-1" d="M1106,24.82a.9.9,0,0,1-.64-1.53L1128.24.42a.9.9,0,0,1,1.27,1.27l-22.86,22.86A.9.9,0,0,1,1106,24.82Z"/><path class="cls-1" d="M1128.87,68.25a.9.9,0,0,1-.64-.26l-22.93-22.93a.9.9,0,0,1,1.27-1.27l22.93,22.93a.9.9,0,0,1-.64,1.53Z"/><path class="cls-1" d="M1167.86,254.53a7.88,7.88,0,0,1-5.84-2.64,7.88,7.88,0,0,1-5.84,2.64,6.75,6.75,0,0,1-5.22-2.69,8.16,8.16,0,0,1-1.55-6.12,8.14,8.14,0,0,1-6.12-1.55,6.75,6.75,0,0,1-2.69-5.22,7.87,7.87,0,0,1,2.64-5.84,7.88,7.88,0,0,1-2.64-5.84,6.75,6.75,0,0,1,2.69-5.22,8.14,8.14,0,0,1,6.12-1.55,8.16,8.16,0,0,1,1.55-6.12,6.75,6.75,0,0,1,5.22-2.69,7.88,7.88,0,0,1,5.84,2.64,7.88,7.88,0,0,1,5.84-2.64,6.75,6.75,0,0,1,5.22,2.69,8.16,8.16,0,0,1,1.55,6.12,8.15,8.15,0,0,1,6.12,1.55,6.75,6.75,0,0,1,2.69,5.22,7.88,7.88,0,0,1-2.64,5.84,7.87,7.87,0,0,1,2.64,5.84,6.75,6.75,0,0,1-2.69,5.22,8.15,8.15,0,0,1-6.12,1.55,8.16,8.16,0,0,1-1.55,6.12A6.75,6.75,0,0,1,1167.86,254.53Zm-5.84-5a.9.9,0,0,1,.74.38,6.24,6.24,0,0,0,5.11,2.79,5,5,0,0,0,3.8-2,6.75,6.75,0,0,0,1-5.92.9.9,0,0,1,1.09-1.09,6.75,6.75,0,0,0,5.92-1,5,5,0,0,0,2-3.8,6.23,6.23,0,0,0-2.79-5.11.9.9,0,0,1,0-1.47,6.24,6.24,0,0,0,2.79-5.11,5,5,0,0,0-2-3.8,6.75,6.75,0,0,0-5.92-1,.9.9,0,0,1-1.09-1.09,6.75,6.75,0,0,0-1-5.92,5,5,0,0,0-3.8-2,6.24,6.24,0,0,0-5.11,2.79.93.93,0,0,1-1.47,0,6.24,6.24,0,0,0-5.11-2.79,5,5,0,0,0-3.8,2,6.75,6.75,0,0,0-1,5.92.9.9,0,0,1-1.09,1.09,6.75,6.75,0,0,0-5.92,1,5,5,0,0,0-2,3.8,6.24,6.24,0,0,0,2.79,5.11.9.9,0,0,1,0,1.47,6.23,6.23,0,0,0-2.79,5.11,5,5,0,0,0,2,3.8,6.75,6.75,0,0,0,5.92,1,.9.9,0,0,1,1.09,1.09,6.75,6.75,0,0,0,1,5.92,5,5,0,0,0,3.8,2,6.24,6.24,0,0,0,5.11-2.79A.9.9,0,0,1,1162,249.56Z"/><path class="cls-1" d="M1154.13,226.12a.9.9,0,0,1-.64-.26l-25.26-25.26a.9.9,0,1,1,1.27-1.27l25.26,25.26a.9.9,0,0,1-.64,1.53Z"/><path class="cls-1" d="M1195.17,267.16a.9.9,0,0,1-.64-.26l-25.26-25.26a.9.9,0,1,1,1.27-1.27l25.26,25.26a.9.9,0,0,1-.64,1.53Z"/><path class="cls-1" d="M1169.91,226.12a.9.9,0,0,1-.64-1.53l25.26-25.26a.9.9,0,1,1,1.27,1.27l-25.26,25.26A.9.9,0,0,1,1169.91,226.12Z"/><path class="cls-1" d="M1128.87,267.16a.9.9,0,0,1-.64-1.53l25.26-25.26a.9.9,0,0,1,1.27,1.27l-25.26,25.26A.9.9,0,0,1,1128.87,267.16Z"/><path class="cls-1" d="M1162,466.25a.9.9,0,0,1-.9-.9V399.08a.9.9,0,0,1,1.8,0v66.26A.9.9,0,0,1,1162,466.25Z"/><path class="cls-1" d="M1195.15,433.11h-66.26a.9.9,0,0,1,0-1.8h66.26a.9.9,0,1,1,0,1.8Z"/><path class="cls-1" d="M1128.89,466.25a.9.9,0,0,1-.64-1.53l66.26-66.26a.9.9,0,0,1,1.27,1.27L1129.52,466A.9.9,0,0,1,1128.89,466.25Z"/><path class="cls-1" d="M1195.17,466.26a.9.9,0,0,1-.64-.26l-66.3-66.3a.9.9,0,0,1,1.27-1.27l66.3,66.3a.9.9,0,0,1-.64,1.53Z"/><path class="cls-1" d="M1128.87,466.26a.9.9,0,0,1-.64-.26l-66.3-66.3a.9.9,0,1,1,1.27-1.27l66.3,66.3a.9.9,0,0,1-.64,1.53Z"/><path class="cls-1" d="M1095.71,466.23a.89.89,0,0,1-.64-.27L1062,432.77a.9.9,0,0,1,1.27-1.27l33.06,33.2a.9.9,0,0,1-.64,1.53Z"/><path class="cls-1" d="M1128.87,433a.9.9,0,0,1-.63-.26l-33.17-33.06a.9.9,0,0,1,1.27-1.27l33.17,33.06a.9.9,0,0,1-.63,1.54Z"/><path class="cls-1" d="M1128,332.7a.9.9,0,0,1,.26-.64l66.3-66.3a.9.9,0,1,1,1.27,1.27l-66.3,66.3a.9.9,0,0,1-1.53-.64Z"/><path class="cls-1" d="M1128,299.53a.89.89,0,0,1,.27-.64l33.2-33.06a.9.9,0,1,1,1.27,1.27l-33.2,33.06a.9.9,0,0,1-1.53-.64Z"/><path class="cls-1" d="M1161.2,332.7a.9.9,0,0,1,.26-.63l33.07-33.17a.9.9,0,0,1,1.27,1.27l-33.07,33.17a.9.9,0,0,1-1.54-.63Z"/><path class="cls-1" d="M1062.64,399.65a.9.9,0,0,1,0-1.8c1.31,0,32.15-.4,32.15-32.22,0-33.63,33.74-34,34.08-34a.9.9,0,0,1,0,1.8,40.85,40.85,0,0,0-16.25,4.07c-10.64,5.33-16,14.8-16,28.14C1096.59,399.26,1063,399.65,1062.64,399.65Z"/><path class="cls-1" d="M1095.69,399.72a.9.9,0,0,1,0-1.8,20.18,20.18,0,0,0,8-2c5.16-2.59,7.78-7.18,7.78-13.64,0-17.22,17.24-17.52,17.42-17.52h0a.9.9,0,0,1,0,1.8c-.64,0-15.63.31-15.63,15.72,0,17.22-17.38,17.46-17.55,17.46Z"/><path class="cls-1" d="M1062.58,366.64a.9.9,0,0,1,0-1.8,20.18,20.18,0,0,0,8-2c5.16-2.59,7.78-7.18,7.78-13.64,0-17.22,17.24-17.52,17.42-17.52h0a.9.9,0,0,1,0,1.8c-.64,0-15.63.31-15.63,15.72,0,17.22-17.38,17.46-17.55,17.46Z"/><path class="cls-1" d="M996.29,333.59a.9.9,0,0,1-.64-.26L929.36,267a.9.9,0,0,1,1.27-1.27l66.3,66.3a.9.9,0,0,1-.64,1.53Z"/><path class="cls-1" d="M963.12,333.56a.89.89,0,0,1-.64-.27l-33.06-33.2a.9.9,0,1,1,1.27-1.27L963.76,332a.9.9,0,0,1-.64,1.53Z"/><path class="cls-1" d="M996.29,300.36a.9.9,0,0,1-.63-.26L962.49,267a.9.9,0,0,1,1.27-1.27l33.17,33.07a.9.9,0,0,1-.63,1.54Z"/><path class="cls-1" d="M1095.72,306.76a7.21,7.21,0,1,1,7.21-7.21A7.22,7.22,0,0,1,1095.72,306.76Zm0-12.62a5.41,5.41,0,1,0,5.41,5.41A5.42,5.42,0,0,0,1095.72,294.14Z"/><path class="cls-1" d="M1095.66,321a.9.9,0,0,1-.64-.26l-20.57-20.57a.9.9,0,0,1,0-1.27L1095,278.27a.9.9,0,0,1,1.27,0l20.57,20.57a.9.9,0,0,1,0,1.27l-20.57,20.57A.9.9,0,0,1,1095.66,321Zm-19.3-21.47,19.3,19.3,19.3-19.3-19.3-19.3Z"/><path class="cls-1" d="M1062.58,333.59a.9.9,0,0,1-.64-1.53l22.86-22.86a.9.9,0,1,1,1.27,1.27l-22.86,22.86A.9.9,0,0,1,1062.58,333.59Z"/><path class="cls-1" d="M1085.37,290.09a.9.9,0,0,1-.64-.26L1061.94,267a.9.9,0,0,1,1.27-1.27L1086,288.56a.9.9,0,0,1-.64,1.53Z"/><path class="cls-1" d="M1106,290.16a.9.9,0,0,1-.64-1.53l22.86-22.86a.9.9,0,0,1,1.27,1.27l-22.86,22.86A.9.9,0,0,1,1106,290.16Z"/><path class="cls-1" d="M1128.87,333.59a.9.9,0,0,1-.64-.26l-22.93-22.93a.9.9,0,0,1,1.27-1.27l22.93,22.93a.9.9,0,0,1-.64,1.53Z"/><path class="cls-1" d="M35,200.9a.9.9,0,0,1-.9-.9V133.74a.9.9,0,1,1,1.8,0V200A.9.9,0,0,1,35,200.9Z"/><path class="cls-1" d="M68.11,167.77H1.85a.9.9,0,0,1,0-1.8H68.11a.9.9,0,0,1,0,1.8Z"/><path class="cls-1" d="M1.85,200.9a.9.9,0,0,1-.64-1.53L67.48,133.1a.9.9,0,0,1,1.27,1.27L2.49,200.64A.9.9,0,0,1,1.85,200.9Z"/><path class="cls-1" d="M68.13,200.92a.9.9,0,0,1-.64-.26L1.2,134.36a.9.9,0,0,1,1.27-1.27l66.3,66.3a.9.9,0,0,1-.64,1.53Z"/><path class="cls-1" d="M134.6,201a.9.9,0,0,1-.64-.26l-66.3-66.3a.9.9,0,0,1,1.27-1.27l66.3,66.3a.9.9,0,0,1-.64,1.53Z"/><path class="cls-1" d="M101.44,201a.89.89,0,0,1-.64-.27l-33.06-33.2A.9.9,0,0,1,69,166.25l33.06,33.2a.9.9,0,0,1-.64,1.53Z"/><path class="cls-1" d="M134.6,167.78a.9.9,0,0,1-.63-.26L100.8,134.45a.9.9,0,1,1,1.27-1.27l33.17,33.07a.9.9,0,0,1-.63,1.54Z"/><path class="cls-1" d="M67.23,133.7a.9.9,0,0,1,.26-.64l66.3-66.3A.9.9,0,1,1,135.06,68l-66.3,66.3a.9.9,0,0,1-1.53-.64Z"/><path class="cls-1" d="M67.26,100.53a.89.89,0,0,1,.27-.64l33.2-33.06A.9.9,0,1,1,102,68.11L68.8,101.17a.9.9,0,0,1-1.53-.64Z"/><path class="cls-1" d="M100.46,133.7a.9.9,0,0,1,.26-.63L133.79,99.9a.9.9,0,0,1,1.27,1.27L102,134.33a.9.9,0,0,1-1.54-.63Z"/><path class="cls-1" d="M1.9,134.53a.9.9,0,0,1,0-1.8c1.31,0,32.15-.4,32.15-32.22,0-33.63,33.74-34,34.08-34a.9.9,0,0,1,0,1.8,40.85,40.85,0,0,0-16.25,4.07c-10.64,5.33-16,14.8-16,28.14C35.85,134.14,2.24,134.53,1.9,134.53Z"/><path class="cls-1" d="M34.95,134.6a.9.9,0,0,1,0-1.8,20.18,20.18,0,0,0,8-2c5.16-2.59,7.78-7.18,7.78-13.64,0-17.22,17.24-17.52,17.42-17.52h0a.9.9,0,0,1,0,1.8c-.64,0-15.63.31-15.63,15.72,0,17.22-17.38,17.46-17.55,17.46Z"/><path class="cls-1" d="M1.83,101.52a.9.9,0,0,1,0-1.8,20.18,20.18,0,0,0,8-2c5.16-2.59,7.78-7.18,7.78-13.64,0-17.22,17.24-17.52,17.42-17.52h0a.9.9,0,0,1,0,1.8c-.64,0-15.63.31-15.63,15.72,0,17.22-17.38,17.46-17.55,17.46Z"/><path class="cls-1" d="M134.43,68.25a.9.9,0,0,1-.64-.26L67.49,1.69A.9.9,0,1,1,68.76.42l66.3,66.3a.9.9,0,0,1-.64,1.53Z"/><path class="cls-1" d="M101.26,68.22a.89.89,0,0,1-.64-.27L67.56,34.76a.9.9,0,0,1,1.27-1.27l33.06,33.2a.9.9,0,0,1-.64,1.53Z"/><path class="cls-1" d="M134.43,35a.9.9,0,0,1-.63-.26L100.63,1.69A.9.9,0,0,1,101.9.42l33.17,33.07a.9.9,0,0,1-.63,1.54Z"/><path class="cls-1" d="M35,41.41a7.21,7.21,0,1,1,7.21-7.21A7.22,7.22,0,0,1,35,41.41Zm0-12.62a5.41,5.41,0,1,0,5.41,5.41A5.42,5.42,0,0,0,35,28.79Z"/><path class="cls-1" d="M34.91,55.61a.9.9,0,0,1-.64-.26L13.71,34.77a.9.9,0,0,1,0-1.27L34.28,12.93a.93.93,0,0,1,1.27,0L56.12,33.5a.9.9,0,0,1,0,1.27L35.55,55.35A.9.9,0,0,1,34.91,55.61ZM15.61,34.14l19.3,19.3,19.3-19.3-19.3-19.3Z"/><path class="cls-1" d="M1.83,68.25a.9.9,0,0,1-.64-1.53L24.06,43.86a.9.9,0,0,1,1.27,1.27L2.47,68A.9.9,0,0,1,1.83,68.25Z"/><path class="cls-1" d="M24.63,24.75a.9.9,0,0,1-.64-.26L1.2,1.69A.9.9,0,0,1,2.47.42L25.26,23.22a.9.9,0,0,1-.64,1.53Z"/><path class="cls-1" d="M45.27,24.82a.9.9,0,0,1-.64-1.53L67.49.42a.9.9,0,0,1,1.27,1.27L45.9,24.55A.9.9,0,0,1,45.27,24.82Z"/><path class="cls-1" d="M68.13,68.25a.9.9,0,0,1-.64-.26L44.57,45.06a.9.9,0,0,1,1.27-1.27L68.76,66.72a.9.9,0,0,1-.64,1.53Z"/><path class="cls-1" d="M107.12,254.53a7.88,7.88,0,0,1-5.84-2.64,7.88,7.88,0,0,1-5.84,2.64,6.75,6.75,0,0,1-5.22-2.69,8.16,8.16,0,0,1-1.55-6.12,8.14,8.14,0,0,1-6.12-1.55A6.75,6.75,0,0,1,79.85,239a7.87,7.87,0,0,1,2.64-5.84,7.88,7.88,0,0,1-2.64-5.84A6.75,6.75,0,0,1,82.54,222a8.14,8.14,0,0,1,6.12-1.55,8.16,8.16,0,0,1,1.55-6.12,6.75,6.75,0,0,1,5.22-2.69,7.88,7.88,0,0,1,5.84,2.64,7.88,7.88,0,0,1,5.84-2.64,6.75,6.75,0,0,1,5.22,2.69,8.16,8.16,0,0,1,1.55,6.12A8.16,8.16,0,0,1,120,222a6.75,6.75,0,0,1,2.69,5.22,7.88,7.88,0,0,1-2.64,5.84A7.88,7.88,0,0,1,122.7,239a6.75,6.75,0,0,1-2.69,5.22,8.13,8.13,0,0,1-6.12,1.55,8.16,8.16,0,0,1-1.55,6.12A6.75,6.75,0,0,1,107.12,254.53Zm-5.84-5a.9.9,0,0,1,.74.38,6.24,6.24,0,0,0,5.11,2.79,5,5,0,0,0,3.8-2,6.75,6.75,0,0,0,1-5.92.9.9,0,0,1,1.09-1.09,6.76,6.76,0,0,0,5.92-1,5,5,0,0,0,2-3.8,6.23,6.23,0,0,0-2.79-5.11.9.9,0,0,1,0-1.47,6.24,6.24,0,0,0,2.79-5.11,5,5,0,0,0-2-3.8,6.76,6.76,0,0,0-5.92-1,.9.9,0,0,1-1.09-1.09,6.75,6.75,0,0,0-1-5.92,5,5,0,0,0-3.8-2,6.24,6.24,0,0,0-5.11,2.79.93.93,0,0,1-1.47,0,6.24,6.24,0,0,0-5.11-2.79,5,5,0,0,0-3.8,2,6.75,6.75,0,0,0-1,5.92.9.9,0,0,1-1.09,1.09,6.75,6.75,0,0,0-5.92,1,5,5,0,0,0-2,3.8,6.24,6.24,0,0,0,2.79,5.11.9.9,0,0,1,0,1.47A6.23,6.23,0,0,0,81.65,239a5,5,0,0,0,2,3.8,6.75,6.75,0,0,0,5.92,1,.9.9,0,0,1,1.09,1.09,6.75,6.75,0,0,0,1,5.92,5,5,0,0,0,3.8,2,6.24,6.24,0,0,0,5.11-2.79A.9.9,0,0,1,101.28,249.56Z"/><path class="cls-1" d="M93.39,226.12a.9.9,0,0,1-.64-.26L67.49,200.6a.9.9,0,1,1,1.27-1.27L94,224.59a.9.9,0,0,1-.64,1.53Z"/><path class="cls-1" d="M134.43,267.16a.9.9,0,0,1-.64-.26l-25.26-25.26a.9.9,0,0,1,1.27-1.27l25.26,25.26a.9.9,0,0,1-.64,1.53Z"/><path class="cls-1" d="M109.16,226.12a.9.9,0,0,1-.64-1.53l25.26-25.26a.9.9,0,1,1,1.27,1.27L109.8,225.86A.9.9,0,0,1,109.16,226.12Z"/><path class="cls-1" d="M68.13,267.16a.9.9,0,0,1-.64-1.53l25.26-25.26A.9.9,0,0,1,94,241.63L68.76,266.89A.9.9,0,0,1,68.13,267.16Z"/><path class="cls-1" d="M34.76,466.12a.9.9,0,0,1-.9-.9V399a.9.9,0,1,1,1.8,0v66.26A.9.9,0,0,1,34.76,466.12Z"/><path class="cls-1" d="M67.89,433H1.63a.9.9,0,0,1,0-1.8H67.89a.9.9,0,0,1,0,1.8Z"/><path class="cls-1" d="M1.63,466.12A.9.9,0,0,1,1,464.58l66.26-66.26a.9.9,0,1,1,1.27,1.27L2.27,465.85A.9.9,0,0,1,1.63,466.12Z"/><path class="cls-1" d="M67.91,466.13a.9.9,0,0,1-.64-.26L1,399.57a.9.9,0,0,1,1.27-1.27l66.3,66.3a.9.9,0,0,1-.64,1.53Z"/><path class="cls-1" d="M134.36,466.26a.9.9,0,0,1-.64-.26l-66.3-66.3a.9.9,0,0,1,1.27-1.27l66.3,66.3a.9.9,0,0,1-.64,1.53Z"/><path class="cls-1" d="M101.2,466.23a.89.89,0,0,1-.64-.27L67.5,432.77a.9.9,0,0,1,1.27-1.27l33.06,33.2a.9.9,0,0,1-.64,1.53Z"/><path class="cls-1" d="M134.36,433a.9.9,0,0,1-.63-.26L100.56,399.7a.9.9,0,1,1,1.27-1.27L135,431.5a.9.9,0,0,1-.63,1.54Z"/><path class="cls-1" d="M68.13,331.62a.9.9,0,0,1,.64.26l66.3,66.3a.9.9,0,1,1-1.27,1.27l-66.3-66.3a.9.9,0,0,1,.64-1.53Z"/><path class="cls-1" d="M101.29,331.65a.89.89,0,0,1,.64.27L135,365.11a.9.9,0,1,1-1.27,1.27l-33.06-33.2a.9.9,0,0,1,.64-1.53Z"/><path class="cls-1" d="M68.13,364.85a.9.9,0,0,1,.63.26l33.17,33.07a.9.9,0,1,1-1.27,1.27L67.49,366.38a.9.9,0,0,1,.63-1.54Z"/><path class="cls-1" d="M134.43,333.45a.9.9,0,0,1-.64-.26l-66.3-66.3a.9.9,0,0,1,1.27-1.27l66.3,66.3a.9.9,0,0,1-.64,1.53Z"/><path class="cls-1" d="M101.26,333.42a.89.89,0,0,1-.64-.27L67.56,300a.9.9,0,1,1,1.27-1.27l33.06,33.2a.9.9,0,0,1-.64,1.53Z"/><path class="cls-1" d="M134.43,300.22a.9.9,0,0,1-.63-.26l-33.17-33.07a.9.9,0,0,1,1.27-1.27l33.17,33.07a.9.9,0,0,1-.63,1.54Z"/><path class="cls-1" d="M35,306.61a7.21,7.21,0,1,1,7.21-7.21A7.22,7.22,0,0,1,35,306.61ZM35,294a5.41,5.41,0,1,0,5.41,5.41A5.42,5.42,0,0,0,35,294Z"/><path class="cls-1" d="M34.91,320.81a.9.9,0,0,1-.64-.26L13.71,300a.9.9,0,0,1,0-1.27l20.57-20.57a.9.9,0,0,1,1.27,0L56.12,298.7a.9.9,0,0,1,0,1.27L35.55,320.55A.9.9,0,0,1,34.91,320.81Zm-19.3-21.47,19.3,19.3,19.3-19.3L34.91,280Z"/><path class="cls-1" d="M1.83,333.45a.9.9,0,0,1-.64-1.53l22.86-22.86a.9.9,0,1,1,1.27,1.27L2.47,333.19A.9.9,0,0,1,1.83,333.45Z"/><path class="cls-1" d="M24.63,289.95a.9.9,0,0,1-.64-.26L1.2,266.89a.9.9,0,0,1,1.27-1.27l22.79,22.79a.9.9,0,0,1-.64,1.53Z"/><path class="cls-1" d="M45.27,290a.9.9,0,0,1-.64-1.53l22.86-22.86a.9.9,0,0,1,1.27,1.27L45.9,289.75A.9.9,0,0,1,45.27,290Z"/><path class="cls-1" d="M68.13,333.45a.9.9,0,0,1-.64-.26L44.57,310.26A.9.9,0,0,1,45.84,309l22.93,22.93a.9.9,0,0,1-.64,1.53Z"/><path class="cls-1" d="M107,519.88a7.88,7.88,0,0,1-5.84-2.64,7.88,7.88,0,0,1-5.84,2.64,6.75,6.75,0,0,1-5.22-2.69,8.16,8.16,0,0,1-1.55-6.12,8.14,8.14,0,0,1-6.12-1.55,6.75,6.75,0,0,1-2.69-5.22,7.88,7.88,0,0,1,2.64-5.84,7.88,7.88,0,0,1-2.64-5.84,6.75,6.75,0,0,1,2.69-5.22,8.16,8.16,0,0,1,6.12-1.55,8.16,8.16,0,0,1,1.55-6.12A6.74,6.74,0,0,1,95.3,477a7.88,7.88,0,0,1,5.84,2.64A7.88,7.88,0,0,1,107,477a6.74,6.74,0,0,1,5.22,2.69,8.16,8.16,0,0,1,1.55,6.12,8.15,8.15,0,0,1,6.12,1.55,6.75,6.75,0,0,1,2.69,5.22,7.88,7.88,0,0,1-2.64,5.84,7.88,7.88,0,0,1,2.64,5.84,6.75,6.75,0,0,1-2.69,5.22,8.13,8.13,0,0,1-6.12,1.55,8.16,8.16,0,0,1-1.55,6.12A6.75,6.75,0,0,1,107,519.88Zm-5.84-5a.9.9,0,0,1,.74.38,6.24,6.24,0,0,0,5.11,2.79,5,5,0,0,0,3.8-2,6.75,6.75,0,0,0,1-5.92.9.9,0,0,1,1.09-1.09,6.76,6.76,0,0,0,5.92-1,5,5,0,0,0,2-3.8,6.24,6.24,0,0,0-2.79-5.11.9.9,0,0,1,0-1.47,6.24,6.24,0,0,0,2.79-5.11,5,5,0,0,0-2-3.8,6.76,6.76,0,0,0-5.92-1,.9.9,0,0,1-1.09-1.09,6.75,6.75,0,0,0-1-5.92,5,5,0,0,0-3.8-2,6.24,6.24,0,0,0-5.11,2.79.93.93,0,0,1-1.47,0,6.24,6.24,0,0,0-5.11-2.79,5,5,0,0,0-3.8,2,6.75,6.75,0,0,0-1,5.92.9.9,0,0,1-1.09,1.09,6.75,6.75,0,0,0-5.92,1,5,5,0,0,0-2,3.8,6.24,6.24,0,0,0,2.79,5.11.9.9,0,0,1,0,1.47,6.24,6.24,0,0,0-2.79,5.11,5,5,0,0,0,2,3.8,6.76,6.76,0,0,0,5.92,1,.9.9,0,0,1,1.09,1.09,6.75,6.75,0,0,0,1,5.92,5,5,0,0,0,3.8,2,6.24,6.24,0,0,0,5.11-2.79A.9.9,0,0,1,101.15,514.91Z"/><path class="cls-1" d="M93.26,491.47a.9.9,0,0,1-.64-.26L67.37,465.94a.9.9,0,1,1,1.27-1.27L93.9,489.93a.9.9,0,0,1-.64,1.53Z"/><path class="cls-1" d="M134.3,532.5a.9.9,0,0,1-.64-.26L108.4,507a.9.9,0,1,1,1.27-1.27L134.93,531a.9.9,0,0,1-.64,1.53Z"/><path class="cls-1" d="M109,491.47a.9.9,0,0,1-.64-1.53l25.26-25.26a.9.9,0,1,1,1.27,1.27L109.67,491.2A.9.9,0,0,1,109,491.47Z"/><path class="cls-1" d="M68,532.5a.9.9,0,0,1-.64-1.53L92.63,505.7A.9.9,0,1,1,93.9,507L68.64,532.24A.9.9,0,0,1,68,532.5Z"/><path class="cls-1" d="M963.42,51.69A17.92,17.92,0,0,1,950.74,21.1c7.63-7.63,24.09-8.33,30.77-8.27a2.88,2.88,0,0,1,2.84,2.84h0c.06,6.71-.64,23.14-8.27,30.77A17.88,17.88,0,0,1,963.42,51.69Zm17.49-36.9c-5.66,0-21.74.65-28.78,7.7a16,16,0,0,0,22.58,22.58c7.3-7.31,7.73-24.33,7.69-29.37h0a.92.92,0,0,0-.91-.91Z"/><path class="cls-1" d="M942.9,55.27a1,1,0,0,1-.69-1.67l36.67-36.67a1,1,0,0,1,1.38,1.38L943.59,55A1,1,0,0,1,942.9,55.27Z"/><path class="cls-1" d="M972.73,33.42c-2.67,0-5.67-.37-7.14-1.82-2.84-2.81-1.73-11.39-1.59-12.36a1,1,0,0,1,1.94.27c-.46,3.29-.59,9.09,1,10.7s7.32,1.39,10.55.9a1,1,0,0,1,.3,1.93A36,36,0,0,1,972.73,33.42Z"/><path class="cls-1" d="M967.78,42.05c-2.9,0-7.06-.5-9.6-3-3.57-3.57-3-12.53-3-12.91a1,1,0,0,1,1-.91,1,1,0,0,1,.91,1c-.16,2.34,0,9,2.41,11.4,3.42,3.42,11.1,2.29,11.17,2.28a1,1,0,1,1,.3,1.93A23.13,23.13,0,0,1,967.78,42.05Z"/><path class="cls-1" d="M25.58,248a1.94,1.94,0,0,1,0-3.87,1,1,0,0,1,1,1,1,1,0,0,1,1,1A1.94,1.94,0,0,1,25.58,248Z"/><path class="cls-1" d="M34.91,249.56l-.74,0a15,15,0,1,1,15.75-14.28h0A15.05,15.05,0,0,1,34.91,249.56Zm0-28.11a13.09,13.09,0,1,0,.64,0Zm14,13.76h0Z"/><path class="cls-1" d="M23,243.31H13a1,1,0,0,1-1-1V226.16a1,1,0,0,1,1-1H23a1,1,0,1,1,0,2H14v14.22h9a1,1,0,0,1,0,2Z"/><path class="cls-1" d="M56.88,243.31h-10a1,1,0,0,1,0-2h9V227.13h-9a1,1,0,1,1,0-2h10a1,1,0,0,1,1,1v16.17A1,1,0,0,1,56.88,243.31Z"/><path class="cls-1" d="M30.62,261.07a1,1,0,0,1-.69-.29L12.5,243.29a1,1,0,1,1,1.38-1.38L30.6,258.7l7.27-7.61-1.74-1.79a1,1,0,0,1,1.4-1.37l2.4,2.46a1,1,0,0,1,0,1.36l-8.62,9a1,1,0,0,1-.7.3Z"/><path class="cls-1" d="M56.93,227.13a1,1,0,0,1-.69-.29l-16-16.08-7.92,7L34,219.45a1,1,0,0,1-1.4,1.36l-2.4-2.46a1,1,0,0,1,.06-1.42l9.38-8.25a1,1,0,0,1,1.34,0l16.67,16.73a1,1,0,0,1-.69,1.67Z"/><path class="cls-1" d="M30.89,253.36a1.94,1.94,0,1,1,1.94-1.94A1.94,1.94,0,0,1,30.89,253.36Zm0-1.94a0,0,0,0,0,0,0Z"/><path class="cls-1" d="M30.89,218.65a1,1,0,0,1-.71-.31L28.92,217a7.1,7.1,0,0,1,5.28-11.86,7.25,7.25,0,0,1,5.55,2.29L41,208.76a1,1,0,1,1-1.43,1.33l-1.26-1.35a5.39,5.39,0,0,0-4.09-1.64,5.15,5.15,0,0,0-3.83,8.58L31.6,217a1,1,0,0,1-.71,1.64Z"/><path class="cls-1" d="M35.44,214.16a1,1,0,0,1-.72-.32l-5.86-6.44a1,1,0,1,1,1.45-1.32l5.86,6.44a1,1,0,0,1-.72,1.64Z"/><path class="cls-1" d="M28.89,238.81a1,1,0,0,1-.47-1.83l5.51-3v-9.08a1,1,0,0,1,2,0v9.66a1,1,0,0,1-.51.86l-6,3.31A1,1,0,0,1,28.89,238.81Z"/><circle class="cls-1" cx="34.9" cy="234.53" r="1.38"/><path class="cls-1" d="M1101.58,250a1,1,0,0,1-.84-.47L1095,240l-7.12,7.12a1,1,0,0,1-1.38,0l-4.77-4.77a1,1,0,0,1,0-1.38l7.12-7.12-9.51-5.76a1,1,0,0,1,.21-1.77l31.79-10a1,1,0,0,1,1.23,1.23l-10,31.79a1,1,0,0,1-.82.68Zm-6.4-12.53h.12a1,1,0,0,1,.72.46l5.28,8.73,8.82-27.94-27.94,8.82,8.73,5.28a1,1,0,0,1,.19,1.53l-7.31,7.31,3.39,3.39,7.31-7.31A1,1,0,0,1,1095.18,237.45Z"/><path class="cls-1" d="M58.08,511.64H11.88a1,1,0,0,1-1-1V478.12a1,1,0,0,1,1-1h46.2a1,1,0,0,1,1,1v32.54A1,1,0,0,1,58.08,511.64Zm-45.22-2H57.1V479.09H12.86Z"/><path class="cls-1" d="M54,504.59H15.93a1,1,0,0,1-1-1V482a1,1,0,0,1,1-1H54a1,1,0,0,1,1,1v21.66A1,1,0,0,1,54,504.59Zm-37.13-2H53.06v-19.7H16.9Z"/><path class="cls-1" d="M29.81,519.57a1,1,0,0,1-1-1v-6.15a1,1,0,0,1,2,0v6.15A1,1,0,0,1,29.81,519.57Z"/><path class="cls-1" d="M40.15,519.57a1,1,0,0,1-1-1v-6.15a1,1,0,0,1,2,0v6.15A1,1,0,0,1,40.15,519.57Z"/><path class="cls-1" d="M46.84,519.57H23.12a1,1,0,1,1,0-2H46.84a1,1,0,1,1,0,2Z"/><path class="cls-1" d="M50.22,725.19H19.1a3.62,3.62,0,0,1-3.62-3.62V673.44a3.62,3.62,0,0,1,3.62-3.62H50.22a3.62,3.62,0,0,1,3.62,3.62v48.13A3.62,3.62,0,0,1,50.22,725.19ZM19.1,671.62a1.83,1.83,0,0,0-1.82,1.82v48.13a1.83,1.83,0,0,0,1.82,1.82H50.22A1.83,1.83,0,0,0,52,721.57V673.44a1.83,1.83,0,0,0-1.82-1.82Z"/><path class="cls-1" d="M34.59,720.87a3.95,3.95,0,1,1,4-3.95A4,4,0,0,1,34.59,720.87Zm0-6.1a2.15,2.15,0,1,0,2.16,2.15A2.16,2.16,0,0,0,34.59,714.77Z"/><path class="cls-1" d="M68,615.43H1.75a.9.9,0,0,1,0-1.8H68a.9.9,0,0,1,0,1.8Z"/><path class="cls-1" d="M67.91,631.92H1.68a.9.9,0,1,1,0-1.8H67.91a.9.9,0,1,1,0,1.8Z"/><path class="cls-1" d="M68,648.55H1.75a.9.9,0,1,1,0-1.8H68a.9.9,0,1,1,0,1.8Z"/><path class="cls-1" d="M67.94,797.7a.9.9,0,0,1-.64-.26L1,731.14a.9.9,0,0,1,1.27-1.27l66.3,66.3a.9.9,0,0,1-.64,1.53Z"/><path class="cls-1" d="M34.78,797.66a.89.89,0,0,1-.64-.27L1.08,764.2a.9.9,0,1,1,1.27-1.27l33.06,33.2a.9.9,0,0,1-.64,1.53Z"/><path class="cls-1" d="M67.94,764.46a.9.9,0,0,1-.63-.26L34.14,731.14a.9.9,0,1,1,1.27-1.27l33.17,33.06a.9.9,0,0,1-.63,1.54Z"/><path class="cls-1" d="M40.7,586.17a7.88,7.88,0,0,1-5.84-2.64A7.88,7.88,0,0,1,29,586.17a6.75,6.75,0,0,1-5.22-2.69,8.16,8.16,0,0,1-1.55-6.12,8.16,8.16,0,0,1-6.12-1.55,6.74,6.74,0,0,1-2.69-5.22,7.88,7.88,0,0,1,2.64-5.84,7.88,7.88,0,0,1-2.64-5.84,6.74,6.74,0,0,1,2.69-5.22,8.13,8.13,0,0,1,6.12-1.55A8.16,8.16,0,0,1,23.79,546,6.75,6.75,0,0,1,29,543.32,7.88,7.88,0,0,1,34.85,546a7.88,7.88,0,0,1,5.84-2.64A6.75,6.75,0,0,1,45.92,546a8.16,8.16,0,0,1,1.55,6.12,8.13,8.13,0,0,1,6.12,1.55,6.75,6.75,0,0,1,2.69,5.22,7.88,7.88,0,0,1-2.64,5.84,7.88,7.88,0,0,1,2.64,5.84,6.75,6.75,0,0,1-2.69,5.22,8.16,8.16,0,0,1-6.12,1.55,8.16,8.16,0,0,1-1.55,6.12A6.75,6.75,0,0,1,40.7,586.17Zm-5.84-5a.9.9,0,0,1,.74.38,6.24,6.24,0,0,0,5.11,2.79,5,5,0,0,0,3.8-2,6.75,6.75,0,0,0,1-5.92.9.9,0,0,1,1.09-1.09,6.76,6.76,0,0,0,5.92-1,5,5,0,0,0,2-3.8,6.24,6.24,0,0,0-2.79-5.11.9.9,0,0,1,0-1.47,6.24,6.24,0,0,0,2.79-5.11,5,5,0,0,0-2-3.8,6.76,6.76,0,0,0-5.92-1A.9.9,0,0,1,45.48,553a6.75,6.75,0,0,0-1-5.92,5,5,0,0,0-3.8-2,6.24,6.24,0,0,0-5.11,2.79.93.93,0,0,1-1.47,0A6.24,6.24,0,0,0,29,545.12a5,5,0,0,0-3.8,2,6.75,6.75,0,0,0-1,5.92.9.9,0,0,1-1.09,1.09,6.75,6.75,0,0,0-5.92,1,5,5,0,0,0-2,3.8A6.24,6.24,0,0,0,18,564a.9.9,0,0,1,0,1.47,6.24,6.24,0,0,0-2.79,5.11,5,5,0,0,0,2,3.8,6.75,6.75,0,0,0,5.92,1,.9.9,0,0,1,1.09,1.09,6.75,6.75,0,0,0,1,5.92,5,5,0,0,0,3.8,2,6.24,6.24,0,0,0,5.11-2.79A.9.9,0,0,1,34.85,581.2Z"/><path class="cls-1" d="M27,557.76a.9.9,0,0,1-.64-.26L1.07,532.23A.9.9,0,0,1,2.34,531L27.6,556.22a.9.9,0,0,1-.64,1.53Z"/><path class="cls-1" d="M68,598.79a.9.9,0,0,1-.64-.26L42.1,573.27A.9.9,0,0,1,43.37,572l25.26,25.26a.9.9,0,0,1-.64,1.53Z"/><path class="cls-1" d="M42.74,557.76a.9.9,0,0,1-.64-1.53L67.37,531a.9.9,0,0,1,1.27,1.27L43.37,557.49A.9.9,0,0,1,42.74,557.76Z"/><path class="cls-1" d="M1.7,598.79a.9.9,0,0,1-.64-1.53L26.33,572a.9.9,0,1,1,1.27,1.27L2.34,598.53A.9.9,0,0,1,1.7,598.79Z"/><path class="cls-1" d="M40.7,851.51a7.88,7.88,0,0,1-5.84-2.64A7.88,7.88,0,0,1,29,851.51a6.75,6.75,0,0,1-5.22-2.69,8.16,8.16,0,0,1-1.55-6.12,8.16,8.16,0,0,1-6.12-1.55,6.74,6.74,0,0,1-2.69-5.22,7.88,7.88,0,0,1,2.64-5.84,7.88,7.88,0,0,1-2.64-5.84A6.74,6.74,0,0,1,16.11,819a8.13,8.13,0,0,1,6.12-1.55,8.16,8.16,0,0,1,1.55-6.12A6.75,6.75,0,0,1,29,808.66a7.88,7.88,0,0,1,5.84,2.64,7.88,7.88,0,0,1,5.84-2.64,6.74,6.74,0,0,1,5.22,2.69,8.16,8.16,0,0,1,1.55,6.12A8.14,8.14,0,0,1,53.59,819a6.75,6.75,0,0,1,2.69,5.22,7.88,7.88,0,0,1-2.64,5.84,7.88,7.88,0,0,1,2.64,5.84,6.75,6.75,0,0,1-2.69,5.22,8.15,8.15,0,0,1-6.12,1.55,8.16,8.16,0,0,1-1.55,6.12A6.75,6.75,0,0,1,40.7,851.51Zm-5.84-5a.9.9,0,0,1,.74.38,6.24,6.24,0,0,0,5.11,2.79,5,5,0,0,0,3.8-2,6.75,6.75,0,0,0,1-5.92.9.9,0,0,1,1.09-1.09,6.76,6.76,0,0,0,5.92-1,5,5,0,0,0,2-3.8,6.24,6.24,0,0,0-2.79-5.11.9.9,0,0,1,0-1.47,6.24,6.24,0,0,0,2.79-5.11,5,5,0,0,0-2-3.8,6.75,6.75,0,0,0-5.92-1,.9.9,0,0,1-1.09-1.09,6.75,6.75,0,0,0-1-5.92,5,5,0,0,0-3.8-2,6.24,6.24,0,0,0-5.11,2.79.93.93,0,0,1-1.47,0A6.24,6.24,0,0,0,29,810.46a5,5,0,0,0-3.8,2,6.75,6.75,0,0,0-1,5.92.9.9,0,0,1-1.09,1.09,6.75,6.75,0,0,0-5.92,1,5,5,0,0,0-2,3.8A6.24,6.24,0,0,0,18,829.35a.9.9,0,0,1,0,1.47,6.24,6.24,0,0,0-2.79,5.11,5,5,0,0,0,2,3.8,6.75,6.75,0,0,0,5.92,1,.9.9,0,0,1,1.09,1.09,6.75,6.75,0,0,0,1,5.92,5,5,0,0,0,3.8,2,6.24,6.24,0,0,0,5.11-2.79A.9.9,0,0,1,34.85,846.54Z"/><path class="cls-1" d="M27,823.1a.9.9,0,0,1-.64-.26L1.07,797.58a.9.9,0,0,1,1.27-1.27L27.6,821.57A.9.9,0,0,1,27,823.1Z"/><path class="cls-1" d="M68,864.14a.9.9,0,0,1-.64-.26L42.1,838.61a.9.9,0,0,1,1.27-1.27L68.64,862.6a.9.9,0,0,1-.64,1.53Z"/><path class="cls-1" d="M42.74,823.1a.9.9,0,0,1-.64-1.53L67.37,796.3a.9.9,0,0,1,1.27,1.27L43.37,822.84A.9.9,0,0,1,42.74,823.1Z"/><path class="cls-1" d="M1.7,864.14a.9.9,0,0,1-.64-1.53l25.26-25.26a.9.9,0,1,1,1.27,1.27L2.34,863.87A.9.9,0,0,1,1.7,864.14Z"/><path class="cls-1" d="M101.15,731.69a.9.9,0,0,1-.9-.9V664.53a.9.9,0,1,1,1.8,0v66.26A.9.9,0,0,1,101.15,731.69Z"/><path class="cls-1" d="M134.28,698.56H68a.9.9,0,0,1,0-1.8h66.26a.9.9,0,0,1,0,1.8Z"/><path class="cls-1" d="M68,731.69a.9.9,0,0,1-.64-1.53l66.26-66.26a.9.9,0,1,1,1.27,1.27L68.65,731.43A.9.9,0,0,1,68,731.69Z"/><path class="cls-1" d="M134.3,731.71a.9.9,0,0,1-.64-.26l-66.3-66.3a.9.9,0,0,1,1.27-1.27l66.3,66.3a.9.9,0,0,1-.64,1.53Z"/><path class="cls-1" d="M68.07,665.23a.9.9,0,0,1,0-1.8c1.31,0,32.15-.4,32.15-32.22,0-33.63,33.74-34,34.08-34a.9.9,0,0,1,0,1.8,40.85,40.85,0,0,0-16.25,4.07c-10.64,5.33-16,14.8-16,28.14C102,664.84,68.41,665.23,68.07,665.23Z"/><path class="cls-1" d="M101.12,665.3a.9.9,0,0,1,0-1.8,20.18,20.18,0,0,0,8-2c5.16-2.59,7.78-7.18,7.78-13.64,0-17.22,17.24-17.52,17.42-17.52h0a.9.9,0,0,1,0,1.8c-.64,0-15.63.31-15.63,15.72,0,17.22-17.38,17.46-17.55,17.46Z"/><path class="cls-1" d="M68,632.21a.9.9,0,0,1,0-1.8,20.18,20.18,0,0,0,8-2c5.16-2.59,7.78-7.18,7.78-13.64,0-17.22,17.24-17.52,17.42-17.52h0a.9.9,0,0,1,0,1.8c-.64,0-15.63.31-15.63,15.72,0,17.22-17.38,17.46-17.55,17.46Z"/><path class="cls-1" d="M101.15,572.11a7.21,7.21,0,1,1,7.21-7.21A7.22,7.22,0,0,1,101.15,572.11Zm0-12.62a5.41,5.41,0,1,0,5.41,5.41A5.42,5.42,0,0,0,101.15,559.49Z"/><path class="cls-1" d="M101.08,586.31a.9.9,0,0,1-.64-.26L79.87,565.47a.9.9,0,0,1,0-1.27l20.57-20.57a.93.93,0,0,1,1.27,0l20.57,20.57a.9.9,0,0,1,0,1.27L101.72,586A.9.9,0,0,1,101.08,586.31Zm-19.3-21.47,19.3,19.3,19.3-19.3-19.3-19.3Z"/><path class="cls-1" d="M68,598.95a.9.9,0,0,1-.64-1.53l22.86-22.86a.9.9,0,1,1,1.27,1.27L68.64,598.69A.9.9,0,0,1,68,598.95Z"/><path class="cls-1" d="M90.8,555.45a.9.9,0,0,1-.64-.26L67.37,532.39a.9.9,0,1,1,1.27-1.27l22.79,22.79a.9.9,0,0,1-.64,1.53Z"/><path class="cls-1" d="M111.44,555.51a.9.9,0,0,1-.64-1.53l22.86-22.86a.9.9,0,0,1,1.27,1.27l-22.86,22.86A.9.9,0,0,1,111.44,555.51Z"/><path class="cls-1" d="M134.3,598.95a.9.9,0,0,1-.64-.26l-22.93-22.93a.9.9,0,0,1,1.27-1.27l22.93,22.93a.9.9,0,0,1-.64,1.53Z"/><path class="cls-1" d="M101.15,837.46a7.21,7.21,0,1,1,7.21-7.21A7.22,7.22,0,0,1,101.15,837.46Zm0-12.62a5.41,5.41,0,1,0,5.41,5.41A5.42,5.42,0,0,0,101.15,824.83Z"/><path class="cls-1" d="M101.08,851.65a.9.9,0,0,1-.64-.26L79.87,830.81a.9.9,0,0,1,0-1.27L100.45,809a.9.9,0,0,1,1.27,0l20.57,20.57a.9.9,0,0,1,0,1.27l-20.57,20.57A.9.9,0,0,1,101.08,851.65Zm-19.3-21.47,19.3,19.3,19.3-19.3-19.3-19.3Z"/><path class="cls-1" d="M68,864.29a.9.9,0,0,1-.64-1.53L90.23,839.9a.9.9,0,0,1,1.27,1.27L68.64,864A.9.9,0,0,1,68,864.29Z"/><path class="cls-1" d="M90.8,820.79a.9.9,0,0,1-.64-.26L67.37,797.73a.9.9,0,0,1,1.27-1.27l22.79,22.79a.9.9,0,0,1-.64,1.53Z"/><path class="cls-1" d="M111.44,820.86a.9.9,0,0,1-.64-1.53l22.86-22.86a.9.9,0,1,1,1.27,1.27l-22.86,22.86A.9.9,0,0,1,111.44,820.86Z"/><path class="cls-1" d="M134.3,864.29a.9.9,0,0,1-.64-.26L110.73,841.1a.9.9,0,0,1,1.27-1.27l22.93,22.93a.9.9,0,0,1-.64,1.53Z"/><path class="cls-1" d="M107,780.68a1,1,0,0,1-.84-.47l-5.76-9.51-7.12,7.12a1,1,0,0,1-1.38,0L87.14,773a1,1,0,0,1,0-1.38l7.12-7.12-9.51-5.76A1,1,0,0,1,85,757l31.79-10A1,1,0,0,1,118,748.2l-10,31.79a1,1,0,0,1-.82.68Zm-6.4-12.53h.12a1,1,0,0,1,.72.46l5.28,8.73,8.82-27.94-27.94,8.82,8.73,5.28a1,1,0,0,1,.19,1.53l-7.31,7.31,3.39,3.39,7.31-7.31A1,1,0,0,1,100.6,768.15Z"/><path class="cls-1" d="M1062.62,930.06a.9.9,0,0,1,0-1.8c1.31,0,32.15-.4,32.15-32.22,0-33.63,33.74-34,34.08-34a.9.9,0,0,1,0,1.8,40.85,40.85,0,0,0-16.25,4.07c-10.64,5.33-16,14.8-16,28.14C1096.56,929.67,1063,930.06,1062.62,930.06Z"/><path class="cls-1" d="M1095.67,930.13a.9.9,0,0,1,0-1.8,20.18,20.18,0,0,0,8-2c5.16-2.59,7.78-7.18,7.78-13.64,0-17.22,17.24-17.52,17.42-17.52h0a.9.9,0,0,1,0,1.8c-.64,0-15.63.31-15.63,15.72,0,17.22-17.38,17.46-17.55,17.46Z"/><path class="cls-1" d="M1062.55,897a.9.9,0,0,1,0-1.8,20.18,20.18,0,0,0,8-2c5.16-2.59,7.78-7.18,7.78-13.64,0-17.22,17.24-17.52,17.42-17.52h0a.9.9,0,0,1,0,1.8c-.64,0-15.63.31-15.63,15.72,0,17.22-17.38,17.46-17.55,17.46Z"/><path class="cls-1" d="M1095.7,731.31a.9.9,0,0,1-.9-.9V664.14a.9.9,0,1,1,1.8,0v66.26A.9.9,0,0,1,1095.7,731.31Z"/><path class="cls-1" d="M1128.83,698.18h-66.26a.9.9,0,0,1,0-1.8h66.26a.9.9,0,0,1,0,1.8Z"/><path class="cls-1" d="M1062.57,731.31a.9.9,0,0,1-.64-1.53l66.26-66.26a.9.9,0,0,1,1.27,1.27L1063.2,731A.9.9,0,0,1,1062.57,731.31Z"/><path class="cls-1" d="M1128.85,731.32a.9.9,0,0,1-.64-.26l-66.3-66.3a.9.9,0,0,1,1.27-1.27l66.3,66.3a.9.9,0,0,1-.64,1.53Z"/><path class="cls-1" d="M1195.32,731.42a.9.9,0,0,1-.64-.26l-66.3-66.3a.9.9,0,1,1,1.27-1.27l66.3,66.3a.9.9,0,0,1-.64,1.53Z"/><path class="cls-1" d="M1162.15,731.38a.89.89,0,0,1-.64-.27l-33.06-33.2a.9.9,0,1,1,1.27-1.27l33.06,33.2a.9.9,0,0,1-.64,1.53Z"/><path class="cls-1" d="M1195.32,698.19a.9.9,0,0,1-.63-.26l-33.17-33.07a.9.9,0,0,1,1.27-1.27L1196,696.65a.9.9,0,0,1-.63,1.54Z"/><path class="cls-1" d="M1062.62,664.94a.9.9,0,0,1,0-1.8c1.31,0,32.15-.4,32.15-32.22,0-33.63,33.74-34,34.08-34a.9.9,0,0,1,0,1.8,40.85,40.85,0,0,0-16.25,4.07c-10.64,5.33-16,14.8-16,28.14C1096.56,664.55,1063,664.94,1062.62,664.94Z"/><path class="cls-1" d="M1095.67,665a.9.9,0,0,1,0-1.8,20.18,20.18,0,0,0,8-2c5.16-2.59,7.78-7.18,7.78-13.64,0-17.22,17.24-17.52,17.42-17.52h0a.9.9,0,0,1,0,1.8c-.64,0-15.63.31-15.63,15.72,0,17.22-17.38,17.46-17.55,17.46Z"/><path class="cls-1" d="M1062.55,631.92a.9.9,0,0,1,0-1.8,20.18,20.18,0,0,0,8-2c5.16-2.59,7.78-7.18,7.78-13.64,0-17.22,17.24-17.52,17.42-17.52h0a.9.9,0,0,1,0,1.8c-.64,0-15.63.31-15.63,15.72,0,17.22-17.38,17.46-17.55,17.46Z"/><path class="cls-1" d="M1195.14,598.66a.9.9,0,0,1-.64-.26l-66.3-66.3a.9.9,0,1,1,1.27-1.27l66.3,66.3a.9.9,0,0,1-.64,1.53Z"/><path class="cls-1" d="M1162,598.62a.89.89,0,0,1-.64-.27l-33.06-33.2a.9.9,0,1,1,1.27-1.27l33.06,33.2a.9.9,0,0,1-.64,1.53Z"/><path class="cls-1" d="M1195.14,565.43a.9.9,0,0,1-.63-.26l-33.17-33.07a.9.9,0,0,1,1.27-1.27l33.17,33.07a.9.9,0,0,1-.63,1.54Z"/><path class="cls-1" d="M1095.7,571.82a7.21,7.21,0,1,1,7.21-7.21A7.22,7.22,0,0,1,1095.7,571.82Zm0-12.62a5.41,5.41,0,1,0,5.41,5.41A5.42,5.42,0,0,0,1095.7,559.2Z"/><path class="cls-1" d="M1095.63,586a.9.9,0,0,1-.64-.26l-20.57-20.57a.9.9,0,0,1,0-1.27L1095,543.33a.93.93,0,0,1,1.27,0l20.57,20.57a.9.9,0,0,1,0,1.27l-20.57,20.57A.9.9,0,0,1,1095.63,586Zm-19.3-21.47,19.3,19.3,19.3-19.3-19.3-19.3Z"/><path class="cls-1" d="M1062.55,598.66a.9.9,0,0,1-.64-1.53l22.86-22.86a.9.9,0,0,1,1.27,1.27l-22.86,22.86A.9.9,0,0,1,1062.55,598.66Z"/><path class="cls-1" d="M1085.34,555.15a.9.9,0,0,1-.64-.26l-22.79-22.79a.9.9,0,0,1,1.27-1.27L1086,553.62a.9.9,0,0,1-.64,1.53Z"/><path class="cls-1" d="M1106,555.22a.9.9,0,0,1-.64-1.53l22.86-22.86a.9.9,0,0,1,1.27,1.27L1106.62,555A.9.9,0,0,1,1106,555.22Z"/><path class="cls-1" d="M1128.85,598.66a.9.9,0,0,1-.64-.26l-22.93-22.93a.9.9,0,1,1,1.27-1.27l22.93,22.93a.9.9,0,0,1-.64,1.53Z"/><path class="cls-1" d="M1167.84,784.94a7.88,7.88,0,0,1-5.84-2.64,7.88,7.88,0,0,1-5.84,2.64,6.75,6.75,0,0,1-5.22-2.69,8.16,8.16,0,0,1-1.55-6.12,8.14,8.14,0,0,1-6.12-1.55,6.75,6.75,0,0,1-2.69-5.22,7.88,7.88,0,0,1,2.64-5.84,7.88,7.88,0,0,1-2.64-5.84,6.75,6.75,0,0,1,2.69-5.22,8.14,8.14,0,0,1,6.12-1.55,8.16,8.16,0,0,1,1.55-6.12,6.75,6.75,0,0,1,5.22-2.69,7.88,7.88,0,0,1,5.84,2.64,7.88,7.88,0,0,1,5.84-2.64,6.75,6.75,0,0,1,5.22,2.69,8.16,8.16,0,0,1,1.55,6.12,8.16,8.16,0,0,1,6.12,1.55,6.75,6.75,0,0,1,2.69,5.22,7.88,7.88,0,0,1-2.64,5.84,7.87,7.87,0,0,1,2.64,5.84,6.75,6.75,0,0,1-2.69,5.22,8.13,8.13,0,0,1-6.12,1.55,8.16,8.16,0,0,1-1.55,6.12A6.75,6.75,0,0,1,1167.84,784.94Zm-5.84-5a.9.9,0,0,1,.74.38,6.24,6.24,0,0,0,5.11,2.79,5,5,0,0,0,3.8-2,6.75,6.75,0,0,0,1-5.92.9.9,0,0,1,1.09-1.09,6.76,6.76,0,0,0,5.92-1,5,5,0,0,0,2-3.8,6.23,6.23,0,0,0-2.79-5.11.9.9,0,0,1,0-1.47,6.24,6.24,0,0,0,2.79-5.11,5,5,0,0,0-2-3.8,6.76,6.76,0,0,0-5.92-1,.9.9,0,0,1-1.09-1.09,6.75,6.75,0,0,0-1-5.92,5,5,0,0,0-3.8-2,6.24,6.24,0,0,0-5.11,2.79.93.93,0,0,1-1.47,0,6.24,6.24,0,0,0-5.11-2.79,5,5,0,0,0-3.8,2,6.75,6.75,0,0,0-1,5.92.9.9,0,0,1-1.09,1.09,6.75,6.75,0,0,0-5.92,1,5,5,0,0,0-2,3.8,6.24,6.24,0,0,0,2.79,5.11.9.9,0,0,1,0,1.47,6.23,6.23,0,0,0-2.79,5.11,5,5,0,0,0,2,3.8,6.75,6.75,0,0,0,5.92,1,.9.9,0,0,1,1.09,1.09,6.75,6.75,0,0,0,1,5.92,5,5,0,0,0,3.8,2,6.24,6.24,0,0,0,5.11-2.79A.9.9,0,0,1,1162,780Z"/><path class="cls-1" d="M1154.11,756.53a.9.9,0,0,1-.64-.26L1128.21,731a.9.9,0,1,1,1.27-1.27L1154.74,755a.9.9,0,0,1-.64,1.53Z"/><path class="cls-1" d="M1195.14,797.56a.9.9,0,0,1-.64-.26L1169.25,772a.9.9,0,1,1,1.27-1.27L1195.78,796a.9.9,0,0,1-.64,1.53Z"/><path class="cls-1" d="M1169.88,756.53a.9.9,0,0,1-.64-1.53l25.26-25.26a.9.9,0,0,1,1.27,1.27l-25.26,25.26A.9.9,0,0,1,1169.88,756.53Z"/><path class="cls-1" d="M1128.85,797.56a.9.9,0,0,1-.64-1.53l25.26-25.26a.9.9,0,0,1,1.27,1.27l-25.26,25.26A.9.9,0,0,1,1128.85,797.56Z"/><path class="cls-1" d="M1128.78,930.13a.9.9,0,0,0,.64-.26l66.3-66.3a.9.9,0,1,0-1.27-1.27l-66.3,66.3a.9.9,0,0,0,.64,1.53Z"/><path class="cls-1" d="M1161.95,930.09a.89.89,0,0,0,.64-.27l33.06-33.2a.9.9,0,0,0-1.27-1.27l-33.06,33.2a.9.9,0,0,0,.64,1.53Z"/><path class="cls-1" d="M1128.78,896.89a.9.9,0,0,0,.63-.26l33.17-33.07a.9.9,0,0,0-1.27-1.27l-33.17,33.07a.9.9,0,0,0,.63,1.54Z"/><path class="cls-1" d="M1195.14,863.85a.9.9,0,0,1-.64-.26l-66.3-66.3a.9.9,0,1,1,1.27-1.27l66.3,66.3a.9.9,0,0,1-.64,1.53Z"/><path class="cls-1" d="M1162,863.82a.89.89,0,0,1-.64-.27l-33.06-33.2a.9.9,0,1,1,1.27-1.27l33.06,33.2a.9.9,0,0,1-.64,1.53Z"/><path class="cls-1" d="M1195.14,830.62a.9.9,0,0,1-.63-.26l-33.17-33.07a.9.9,0,0,1,1.27-1.27l33.17,33.07a.9.9,0,0,1-.63,1.54Z"/><path class="cls-1" d="M1095.7,837a7.21,7.21,0,1,1,7.21-7.21A7.22,7.22,0,0,1,1095.7,837Zm0-12.62a5.41,5.41,0,1,0,5.41,5.41A5.42,5.42,0,0,0,1095.7,824.4Z"/><path class="cls-1" d="M1095.63,851.21a.9.9,0,0,1-.64-.26l-20.57-20.57a.9.9,0,0,1,0-1.27L1095,808.53a.9.9,0,0,1,1.27,0l20.57,20.57a.9.9,0,0,1,0,1.27L1096.27,851A.9.9,0,0,1,1095.63,851.21Zm-19.3-21.47,19.3,19.3,19.3-19.3-19.3-19.3Z"/><path class="cls-1" d="M1062.55,863.85a.9.9,0,0,1-.64-1.53l22.86-22.86a.9.9,0,0,1,1.27,1.27l-22.86,22.86A.9.9,0,0,1,1062.55,863.85Z"/><path class="cls-1" d="M1085.34,820.35a.9.9,0,0,1-.64-.26l-22.79-22.79a.9.9,0,0,1,1.27-1.27L1086,818.82a.9.9,0,0,1-.64,1.53Z"/><path class="cls-1" d="M1106,820.42a.9.9,0,0,1-.64-1.53L1128.21,796a.9.9,0,0,1,1.27,1.27l-22.86,22.86A.9.9,0,0,1,1106,820.42Z"/><path class="cls-1" d="M1128.85,863.85a.9.9,0,0,1-.64-.26l-22.93-22.93a.9.9,0,1,1,1.27-1.27l22.93,22.93a.9.9,0,0,1-.64,1.53Z"/><path class="cls-1" d="M1086.3,778.44a1.94,1.94,0,0,1,0-3.87,1,1,0,0,1,1,1,1,1,0,0,1,1,1A1.94,1.94,0,0,1,1086.3,778.44Z"/><path class="cls-1" d="M1095.63,780l-.74,0a15,15,0,1,1,15.75-14.28h0A15.05,15.05,0,0,1,1095.63,780Zm0-28.11a13.09,13.09,0,1,0,.64,0Zm14,13.76h0Z"/><path class="cls-1" d="M1083.75,773.71h-10a1,1,0,0,1-1-1V756.56a1,1,0,0,1,1-1h10a1,1,0,0,1,0,2h-9v14.22h9a1,1,0,0,1,0,2Z"/><path class="cls-1" d="M1117.6,773.71h-10a1,1,0,0,1,0-2h9V757.54h-9a1,1,0,0,1,0-2h10a1,1,0,0,1,1,1v16.17A1,1,0,0,1,1117.6,773.71Z"/><path class="cls-1" d="M1091.34,791.48a1,1,0,0,1-.69-.29l-17.43-17.5a1,1,0,1,1,1.38-1.38l16.72,16.79,7.27-7.61-1.74-1.79a1,1,0,0,1,1.4-1.37l2.4,2.46a1,1,0,0,1,0,1.36l-8.62,9a1,1,0,0,1-.7.3Z"/><path class="cls-1" d="M1117.65,757.54a1,1,0,0,1-.69-.29l-16-16.08-7.92,7,1.68,1.72a1,1,0,1,1-1.4,1.36l-2.4-2.46a1,1,0,0,1,.06-1.42l9.38-8.25a1,1,0,0,1,1.34,0l16.67,16.73a1,1,0,0,1-.69,1.67Z"/><path class="cls-1" d="M1091.6,783.76a1.94,1.94,0,1,1,1.94-1.94A1.94,1.94,0,0,1,1091.6,783.76Zm0-1.94a0,0,0,0,0,0,0Z"/><path class="cls-1" d="M1091.6,749.05a1,1,0,0,1-.71-.31l-1.25-1.34a7.1,7.1,0,0,1,5.28-11.86,7.25,7.25,0,0,1,5.55,2.29l1.24,1.33a1,1,0,0,1-1.43,1.33l-1.26-1.35a5.39,5.39,0,0,0-4.09-1.64,5.15,5.15,0,0,0-3.83,8.58l1.24,1.33a1,1,0,0,1-.71,1.64Z"/><path class="cls-1" d="M1096.16,744.56a1,1,0,0,1-.72-.32l-5.86-6.44a1,1,0,1,1,1.45-1.32l5.86,6.44a1,1,0,0,1-.72,1.64Z"/><path class="cls-1" d="M1089.61,769.22a1,1,0,0,1-.47-1.83l5.51-3v-9.08a1,1,0,1,1,2,0v9.66a1,1,0,0,1-.51.86l-6,3.31A1,1,0,0,1,1089.61,769.22Z"/><circle class="cls-1" cx="1095.62" cy="764.93" r="1.38"/><path class="cls-1" d="M499,990.16h0a.9.9,0,0,1-.84-.58L488.3,963.2a.9.9,0,0,1,1.68-.63l9,24.12,9-24.12a.9.9,0,0,1,1.68.63l-9.86,26.38A.9.9,0,0,1,499,990.16Z"/><path class="cls-1" d="M502.52,968.88h0a2.35,2.35,0,0,1-2.28-2.37v-2.74H486a4,4,0,0,1-1.09-7.8,15.39,15.39,0,0,1-1.21-6A15.33,15.33,0,0,1,499,934.67h.2A15.33,15.33,0,0,1,513.12,956a4,4,0,0,1-1.09,7.8h-7.19v2.78a2.32,2.32,0,0,1-2.32,2.32ZM486,957.62a2.18,2.18,0,0,0,0,4.36h14.52A1.52,1.52,0,0,1,502,963.5v3a.55.55,0,0,0,.51.57h0a.52.52,0,0,0,.52-.52V963.5a1.52,1.52,0,0,1,1.51-1.51H512a2.18,2.18,0,0,0,0-4.36h-.26a.9.9,0,0,1-.8-1.32,13.53,13.53,0,0,0-11.8-19.84H499a13.53,13.53,0,0,0-12,19.84.9.9,0,0,1-.8,1.32Z"/><path class="cls-1" d="M492.88,955.06h0a2.35,2.35,0,0,1-2.28-2.37v-2.78a.9.9,0,0,1,.28-1.75,1.52,1.52,0,0,1,1.52,1.51v3a.55.55,0,0,0,.51.57h0a.52.52,0,0,0,.52-.52v-3.07a1.52,1.52,0,0,1,1.52-1.51.9.9,0,0,1,.28,1.75v2.83a2.32,2.32,0,0,1-2.32,2.32Zm2-5.1h0Zm-4.07,0h0Z"/><path class="cls-1" d="M333.23,996.46a.9.9,0,0,1-.64-.26l-66.3-66.3a.9.9,0,0,1,1.27-1.27l66.3,66.3a.9.9,0,0,1-.64,1.53Z"/><path class="cls-1" d="M300.06,996.43a.89.89,0,0,1-.64-.27L266.36,963a.9.9,0,0,1,1.27-1.27l33.07,33.2a.9.9,0,0,1-.64,1.53Z"/><path class="cls-1" d="M333.23,963.23a.9.9,0,0,1-.63-.26L299.43,929.9a.9.9,0,1,1,1.27-1.27l33.17,33.06a.9.9,0,0,1-.63,1.54Z"/><path class="cls-1" d="M233.78,969.62a7.21,7.21,0,1,1,7.21-7.21A7.22,7.22,0,0,1,233.78,969.62Zm0-12.62a5.41,5.41,0,1,0,5.41,5.41A5.42,5.42,0,0,0,233.78,957Z"/><path class="cls-1" d="M233.71,983.82a.9.9,0,0,1-.64-.26L212.5,963a.9.9,0,0,1,0-1.27l20.57-20.57a.9.9,0,0,1,1.27,0l20.57,20.57a.9.9,0,0,1,0,1.27l-20.57,20.57A.9.9,0,0,1,233.71,983.82Zm-19.3-21.47,19.3,19.3,19.3-19.3L233.71,943Z"/><path class="cls-1" d="M200.63,996.46a.9.9,0,0,1-.64-1.53l22.86-22.86a.9.9,0,0,1,1.27,1.27L201.27,996.2A.9.9,0,0,1,200.63,996.46Z"/><path class="cls-1" d="M223.43,953a.9.9,0,0,1-.64-.26L200,929.9a.9.9,0,1,1,1.27-1.27l22.79,22.79a.9.9,0,0,1-.64,1.53Z"/><path class="cls-1" d="M244.07,953a.9.9,0,0,1-.64-1.53l22.86-22.86a.9.9,0,1,1,1.27,1.27L244.7,952.76A.9.9,0,0,1,244.07,953Z"/><path class="cls-1" d="M266.93,996.46a.9.9,0,0,1-.64-.26l-22.93-22.93a.9.9,0,0,1,1.27-1.27l22.93,22.93a.9.9,0,0,1-.64,1.53Z"/><path class="cls-1" d="M200.63,996.46a6.09,6.09,0,0,1-4.45-1.85c-4.8-4.8-4.78-18.16-4.77-32.3,0-13.09,0-26.62-4.2-30.85a4.2,4.2,0,0,0-2.83-1.29.8.8,0,0,1-.3.06,4.25,4.25,0,0,0-3.14,1.31c-4.21,4.21-4.19,17.61-4.18,30.57,0,14,0,27.24-4.75,32a6.12,6.12,0,0,1-4.47,1.86h-.13a6.12,6.12,0,0,1-4.47-1.86c-4.78-4.78-4.76-18-4.75-32,0-13,0-26.36-4.18-30.57a4.25,4.25,0,0,0-3.14-1.31.89.89,0,0,1-.32-.06,4.2,4.2,0,0,0-2.81,1.29c-4.22,4.23-4.21,17.76-4.2,30.85,0,14.14,0,27.5-4.77,32.3a6.09,6.09,0,0,1-4.45,1.85.9.9,0,0,1,0-1.8,4.29,4.29,0,0,0,3.18-1.32c4.27-4.27,4.26-17.87,4.24-31,0-14.07,0-27.36,4.72-32.12a6,6,0,0,1,4.39-1.83.9.9,0,0,1,.36.08,6,6,0,0,1,4.05,1.83C160,935,160,948.17,160,962.11c0,13,0,26.49,4.22,30.75a4.32,4.32,0,0,0,3.2,1.33h.13a4.32,4.32,0,0,0,3.2-1.33c4.25-4.26,4.24-17.72,4.22-30.75,0-13.94,0-27.11,4.71-31.85a6,6,0,0,1,4.08-1.83.79.79,0,0,1,.34-.08,6,6,0,0,1,4.39,1.83c4.75,4.76,4.74,18,4.72,32.12,0,13.15,0,26.75,4.24,31a4.29,4.29,0,0,0,3.18,1.32.9.9,0,1,1,0,1.8Z"/><path class="cls-1" d="M664.71,996.46a6.09,6.09,0,0,1-4.45-1.85c-4.8-4.8-4.78-18.16-4.77-32.3,0-13.09,0-26.62-4.2-30.85a4.2,4.2,0,0,0-2.83-1.29.8.8,0,0,1-.3.06,4.25,4.25,0,0,0-3.14,1.31c-4.21,4.21-4.19,17.61-4.18,30.57,0,14,0,27.24-4.75,32a6.12,6.12,0,0,1-4.47,1.86h-.13a6.12,6.12,0,0,1-4.47-1.86c-4.78-4.78-4.76-18-4.75-32,0-13,0-26.36-4.18-30.57a4.25,4.25,0,0,0-3.14-1.31.89.89,0,0,1-.32-.06,4.2,4.2,0,0,0-2.81,1.29c-4.22,4.23-4.21,17.76-4.2,30.85,0,14.14,0,27.49-4.77,32.3a6.09,6.09,0,0,1-4.45,1.85.9.9,0,1,1,0-1.8,4.29,4.29,0,0,0,3.18-1.32c4.27-4.27,4.26-17.87,4.24-31,0-14.07,0-27.36,4.73-32.12a6,6,0,0,1,4.39-1.83.9.9,0,0,1,.36.08,6,6,0,0,1,4.05,1.83c4.73,4.74,4.72,17.91,4.71,31.85,0,13,0,26.49,4.22,30.75a4.32,4.32,0,0,0,3.2,1.33h.13a4.32,4.32,0,0,0,3.2-1.33c4.25-4.26,4.24-17.72,4.22-30.75,0-13.94,0-27.11,4.71-31.85a6,6,0,0,1,4.08-1.83.79.79,0,0,1,.34-.08,6,6,0,0,1,4.4,1.83c4.75,4.76,4.74,18,4.72,32.12,0,13.15,0,26.75,4.24,31a4.29,4.29,0,0,0,3.18,1.32.9.9,0,0,1,0,1.8Z"/><path class="cls-1" d="M449,968.92a6.5,6.5,0,1,1,6.5-6.5A6.51,6.51,0,0,1,449,968.92Zm0-11.21a4.71,4.71,0,1,0,4.7,4.71A4.71,4.71,0,0,0,449,957.71Z"/><path class="cls-1" d="M416.31,968.92a6.5,6.5,0,1,1,6.5-6.5A6.51,6.51,0,0,1,416.31,968.92Zm0-11.21a4.71,4.71,0,1,0,4.71,4.71A4.71,4.71,0,0,0,416.31,957.71Z"/><path class="cls-1" d="M432.67,985.27a6.5,6.5,0,1,1,6.5-6.5A6.51,6.51,0,0,1,432.67,985.27Zm0-11.21a4.71,4.71,0,1,0,4.71,4.71A4.71,4.71,0,0,0,432.67,974.06Z"/><path class="cls-1" d="M432.67,952.56a6.5,6.5,0,1,1,6.5-6.5A6.51,6.51,0,0,1,432.67,952.56Zm0-11.21a4.71,4.71,0,1,0,4.71,4.7A4.71,4.71,0,0,0,432.67,941.35Z"/><path class="cls-1" d="M465.82,996.46a.9.9,0,0,1-.65-.28l-25-26a10.65,10.65,0,0,0-15,0l-25,26a.9.9,0,0,1-1.3-1.24l25-26a12.46,12.46,0,0,1,17.61,0l25,26.06a.9.9,0,0,1-.65,1.52Z"/><path class="cls-1" d="M432.67,959.58a12.4,12.4,0,0,1-8.79-3.64l-25-26.06a.9.9,0,0,1,1.3-1.24l25,26a10.65,10.65,0,0,0,15,0l25-26a.9.9,0,0,1,1.3,1.24l-25,26A12.43,12.43,0,0,1,432.67,959.58Z"/><path class="cls-1" d="M366.43,969.75a7.28,7.28,0,1,1,7.27-7.28A7.28,7.28,0,0,1,366.43,969.75Zm0-12.75a5.48,5.48,0,1,0,5.48,5.48A5.48,5.48,0,0,0,366.43,957Z"/><path class="cls-1" d="M351.66,984.38a7.27,7.27,0,1,1,7.27-7.27A7.28,7.28,0,0,1,351.66,984.38Zm0-12.75a5.48,5.48,0,1,0,5.48,5.48A5.48,5.48,0,0,0,351.66,971.63Z"/><path class="cls-1" d="M381.06,955a7.27,7.27,0,1,1,7.28-7.27A7.28,7.28,0,0,1,381.06,955Zm0-12.75a5.48,5.48,0,1,0,5.48,5.48A5.48,5.48,0,0,0,381.06,942.24Z"/><path class="cls-1" d="M351.66,955a7.27,7.27,0,1,1,7.27-7.27A7.28,7.28,0,0,1,351.66,955Zm0-12.75a5.48,5.48,0,1,0,5.48,5.48A5.48,5.48,0,0,0,351.66,942.24Z"/><path class="cls-1" d="M381.06,984.12a7.27,7.27,0,1,1,7.28-7.27A7.28,7.28,0,0,1,381.06,984.12Zm0-12.75a5.48,5.48,0,1,0,5.48,5.48A5.48,5.48,0,0,0,381.06,971.36Z"/><path class="cls-1" d="M798.2,929.26a.9.9,0,0,1-.26.64l-66.3,66.3a.9.9,0,0,1-1.27-1.27l66.3-66.3a.9.9,0,0,1,1.53.64Z"/><path class="cls-1" d="M798.17,962.43a.89.89,0,0,1-.27.64l-33.2,33.07a.9.9,0,0,1-1.27-1.27l33.2-33.07a.9.9,0,0,1,1.53.64Z"/><path class="cls-1" d="M765,929.26a.9.9,0,0,1-.26.63l-33.06,33.16a.9.9,0,0,1-1.27-1.27l33.06-33.16a.9.9,0,0,1,1.54.63Z"/><path class="cls-1" d="M697.86,969.62a7.21,7.21,0,1,1,7.21-7.21A7.22,7.22,0,0,1,697.86,969.62Zm0-12.62a5.41,5.41,0,1,0,5.41,5.41A5.42,5.42,0,0,0,697.86,957Z"/><path class="cls-1" d="M697.79,983.82a.9.9,0,0,1-.64-.26L676.58,963a.9.9,0,0,1,0-1.27l20.57-20.57a.9.9,0,0,1,1.27,0L719,961.71a.9.9,0,0,1,0,1.27l-20.57,20.57A.9.9,0,0,1,697.79,983.82Zm-19.3-21.47,19.3,19.3,19.3-19.3L697.79,943Z"/><path class="cls-1" d="M664.71,996.46a.9.9,0,0,1-.64-1.53l22.86-22.86a.9.9,0,0,1,1.27,1.27L665.34,996.2A.9.9,0,0,1,664.71,996.46Z"/><path class="cls-1" d="M687.5,953a.9.9,0,0,1-.64-.26L664.07,929.9a.9.9,0,1,1,1.27-1.27l22.79,22.79a.9.9,0,0,1-.64,1.53Z"/><path class="cls-1" d="M708.14,953a.9.9,0,0,1-.64-1.53l22.86-22.86a.9.9,0,0,1,1.27,1.27l-22.86,22.86A.9.9,0,0,1,708.14,953Z"/><path class="cls-1" d="M731,996.46a.9.9,0,0,1-.64-.26l-22.93-22.93a.9.9,0,0,1,1.27-1.27l22.93,22.93a.9.9,0,0,1-.64,1.53Z"/><path class="cls-1" d="M913,968.92a6.5,6.5,0,1,1,6.5-6.5A6.51,6.51,0,0,1,913,968.92Zm0-11.21a4.71,4.71,0,1,0,4.71,4.71A4.71,4.71,0,0,0,913,957.71Z"/><path class="cls-1" d="M880.27,968.92a6.5,6.5,0,1,1,6.5-6.5A6.51,6.51,0,0,1,880.27,968.92Zm0-11.21a4.71,4.71,0,1,0,4.71,4.71A4.71,4.71,0,0,0,880.27,957.71Z"/><path class="cls-1" d="M896.63,985.27a6.5,6.5,0,1,1,6.5-6.5A6.51,6.51,0,0,1,896.63,985.27Zm0-11.21a4.71,4.71,0,1,0,4.7,4.71A4.71,4.71,0,0,0,896.63,974.06Z"/><path class="cls-1" d="M896.63,952.56a6.5,6.5,0,1,1,6.5-6.5A6.51,6.51,0,0,1,896.63,952.56Zm0-11.21a4.71,4.71,0,1,0,4.7,4.7A4.71,4.71,0,0,0,896.63,941.35Z"/><path class="cls-1" d="M929.78,996.46a.9.9,0,0,1-.65-.28l-25-26a10.64,10.64,0,0,0-15,0l-25,26a.9.9,0,0,1-1.3-1.24l25-26a12.46,12.46,0,0,1,17.61,0l25,26.06a.9.9,0,0,1-.65,1.52Z"/><path class="cls-1" d="M896.62,959.58a12.4,12.4,0,0,1-8.79-3.64l-25-26.06a.9.9,0,0,1,1.3-1.24l25,26a10.64,10.64,0,0,0,15,0l25-26a.9.9,0,0,1,1.3,1.24l-25,26A12.43,12.43,0,0,1,896.62,959.58Z"/><path class="cls-1" d="M1178.38,504.91a6.5,6.5,0,1,1,6.5-6.5A6.51,6.51,0,0,1,1178.38,504.91Zm0-11.21a4.71,4.71,0,1,0,4.71,4.71A4.71,4.71,0,0,0,1178.38,493.7Z"/><path class="cls-1" d="M1145.66,504.91a6.5,6.5,0,1,1,6.5-6.5A6.51,6.51,0,0,1,1145.66,504.91Zm0-11.21a4.71,4.71,0,1,0,4.71,4.71A4.71,4.71,0,0,0,1145.66,493.7Z"/><path class="cls-1" d="M1162,521.27a6.5,6.5,0,1,1,6.5-6.5A6.51,6.51,0,0,1,1162,521.27Zm0-11.21a4.71,4.71,0,1,0,4.7,4.71A4.71,4.71,0,0,0,1162,510.06Z"/><path class="cls-1" d="M1162,488.55a6.5,6.5,0,1,1,6.5-6.5A6.51,6.51,0,0,1,1162,488.55Zm0-11.21a4.71,4.71,0,1,0,4.7,4.7A4.71,4.71,0,0,0,1162,477.34Z"/><path class="cls-1" d="M1195.17,532.45a.9.9,0,0,1-.65-.28l-25-26a10.64,10.64,0,0,0-15,0l-25,26a.9.9,0,0,1-1.3-1.24l25-26a12.46,12.46,0,0,1,17.61,0l25,26.06a.9.9,0,0,1-.65,1.52Z"/><path class="cls-1" d="M1162,495.58a12.4,12.4,0,0,1-8.79-3.64l-25-26.06a.9.9,0,0,1,1.3-1.24l25,26a10.64,10.64,0,0,0,15,0l25-26a.9.9,0,0,1,1.3,1.24l-25,26A12.43,12.43,0,0,1,1162,495.58Z"/><path class="cls-1" d="M770.2,1042.79a7.28,7.28,0,1,1,7.27-7.28A7.28,7.28,0,0,1,770.2,1042.79Zm0-12.75a5.48,5.48,0,1,0,5.48,5.48A5.48,5.48,0,0,0,770.2,1030Z"/><path class="cls-1" d="M755.43,1057.42a7.27,7.27,0,1,1,7.27-7.27A7.28,7.28,0,0,1,755.43,1057.42Zm0-12.75a5.48,5.48,0,1,0,5.48,5.48A5.48,5.48,0,0,0,755.43,1044.67Z"/><path class="cls-1" d="M784.83,1028a7.27,7.27,0,1,1,7.27-7.27A7.28,7.28,0,0,1,784.83,1028Zm0-12.75a5.48,5.48,0,1,0,5.48,5.48A5.48,5.48,0,0,0,784.83,1015.27Z"/><path class="cls-1" d="M755.43,1028a7.27,7.27,0,1,1,7.27-7.27A7.28,7.28,0,0,1,755.43,1028Zm0-12.75a5.48,5.48,0,1,0,5.48,5.48A5.48,5.48,0,0,0,755.43,1015.27Z"/><path class="cls-1" d="M784.83,1057.15a7.27,7.27,0,1,1,7.27-7.27A7.28,7.28,0,0,1,784.83,1057.15Zm0-12.75a5.48,5.48,0,1,0,5.48,5.48A5.48,5.48,0,0,0,784.83,1044.4Z"/><path class="cls-1" d="M571.11,983.84a7.87,7.87,0,0,1-5.84-2.64,7.88,7.88,0,0,1-5.84,2.64,6.75,6.75,0,0,1-5.22-2.69,8.16,8.16,0,0,1-1.55-6.12,8.15,8.15,0,0,1-6.12-1.55,6.75,6.75,0,0,1-2.69-5.22,7.88,7.88,0,0,1,2.64-5.84,7.88,7.88,0,0,1-2.64-5.84,6.75,6.75,0,0,1,2.69-5.22,8.12,8.12,0,0,1,6.12-1.55,8.16,8.16,0,0,1,1.55-6.12,6.75,6.75,0,0,1,5.22-2.69,7.88,7.88,0,0,1,5.84,2.64,7.87,7.87,0,0,1,5.84-2.64,6.75,6.75,0,0,1,5.22,2.69,8.16,8.16,0,0,1,1.55,6.12,8.13,8.13,0,0,1,6.12,1.55,6.75,6.75,0,0,1,2.69,5.22,7.88,7.88,0,0,1-2.64,5.84,7.88,7.88,0,0,1,2.64,5.84,6.75,6.75,0,0,1-2.69,5.22,8.16,8.16,0,0,1-6.12,1.55,8.16,8.16,0,0,1-1.55,6.12A6.75,6.75,0,0,1,571.11,983.84Zm-5.84-5h0a.9.9,0,0,1,.74.38,6.23,6.23,0,0,0,5.11,2.79,5,5,0,0,0,3.8-2,6.75,6.75,0,0,0,1-5.92A.9.9,0,0,1,577,973a6.76,6.76,0,0,0,5.92-1,5,5,0,0,0,2-3.8,6.24,6.24,0,0,0-2.79-5.11.9.9,0,0,1,0-1.47,6.24,6.24,0,0,0,2.79-5.11,5,5,0,0,0-2-3.8,6.76,6.76,0,0,0-5.92-1,.9.9,0,0,1-1.09-1.09,6.75,6.75,0,0,0-1-5.92,5,5,0,0,0-3.8-2,6.23,6.23,0,0,0-5.11,2.79.93.93,0,0,1-1.47,0,6.24,6.24,0,0,0-5.11-2.79,5,5,0,0,0-3.8,2,6.75,6.75,0,0,0-1,5.92.9.9,0,0,1-1.09,1.09,6.76,6.76,0,0,0-5.92,1,5,5,0,0,0-2,3.8,6.24,6.24,0,0,0,2.79,5.11.9.9,0,0,1,0,1.47,6.24,6.24,0,0,0-2.79,5.11,5,5,0,0,0,2,3.8,6.75,6.75,0,0,0,5.92,1,.9.9,0,0,1,1.09,1.09,6.75,6.75,0,0,0,1,5.92,5,5,0,0,0,3.8,2,6.24,6.24,0,0,0,5.11-2.79A.9.9,0,0,1,565.26,978.87Z"/><path class="cls-1" d="M557.38,955.42a.9.9,0,0,1-.64-.26L531.48,929.9a.9.9,0,1,1,1.27-1.27L558,953.89a.9.9,0,0,1-.64,1.53Z"/><path class="cls-1" d="M598.41,996.46a.9.9,0,0,1-.64-.26l-25.26-25.26a.9.9,0,0,1,1.27-1.27L599,994.92a.9.9,0,0,1-.64,1.53Z"/><path class="cls-1" d="M573.15,955.42a.9.9,0,0,1-.64-1.53l25.26-25.26A.9.9,0,0,1,599,929.9l-25.26,25.26A.9.9,0,0,1,573.15,955.42Z"/><path class="cls-1" d="M532.11,996.46a.9.9,0,0,1-.64-1.53l25.26-25.26a.9.9,0,0,1,1.27,1.27L532.75,996.2A.9.9,0,0,1,532.11,996.46Z"/><path class="cls-1" d="M1035.18,983.84a7.88,7.88,0,0,1-5.84-2.64,7.88,7.88,0,0,1-5.84,2.64,6.75,6.75,0,0,1-5.22-2.69,6.18,6.18,0,0,0-7.68-7.68,6.74,6.74,0,0,1-2.69-5.22,7.88,7.88,0,0,1,2.64-5.84,7.88,7.88,0,0,1-2.64-5.84,6.74,6.74,0,0,1,2.69-5.22,6.18,6.18,0,0,0,7.68-7.68,6.75,6.75,0,0,1,5.22-2.69,7.88,7.88,0,0,1,5.84,2.64,7.88,7.88,0,0,1,5.84-2.64,6.75,6.75,0,0,1,5.22,2.69,6.17,6.17,0,0,0,7.67,7.68,6.75,6.75,0,0,1,2.69,5.22,7.88,7.88,0,0,1-2.64,5.84,7.88,7.88,0,0,1,2.64,5.84,6.75,6.75,0,0,1-2.69,5.22,6.17,6.17,0,0,0-7.67,7.68A6.75,6.75,0,0,1,1035.18,983.84Zm-5.84-5a.9.9,0,0,1,.74.38,6.24,6.24,0,0,0,5.11,2.79,5,5,0,0,0,3.8-2,6.75,6.75,0,0,0,1-5.92.9.9,0,0,1,1.09-1.09,6.76,6.76,0,0,0,5.92-1,5,5,0,0,0,2-3.8,6.24,6.24,0,0,0-2.79-5.11.9.9,0,0,1,0-1.47,6.24,6.24,0,0,0,2.79-5.11,5,5,0,0,0-2-3.8,6.76,6.76,0,0,0-5.92-1,.9.9,0,0,1-1.09-1.09,6.75,6.75,0,0,0-1-5.92,5,5,0,0,0-3.8-2,6.24,6.24,0,0,0-5.11,2.79.93.93,0,0,1-1.47,0,6.24,6.24,0,0,0-5.11-2.79,5,5,0,0,0-3.8,2,6.75,6.75,0,0,0-1,5.92.9.9,0,0,1-1.09,1.09,6.75,6.75,0,0,0-5.92,1,5,5,0,0,0-2,3.8,6.24,6.24,0,0,0,2.79,5.11.9.9,0,0,1,0,1.47,6.24,6.24,0,0,0-2.79,5.11,5,5,0,0,0,2,3.8,6.75,6.75,0,0,0,5.92,1,.9.9,0,0,1,1.09,1.09,6.75,6.75,0,0,0,1,5.92,5,5,0,0,0,3.8,2,6.24,6.24,0,0,0,5.11-2.79A.9.9,0,0,1,1029.34,978.87Z"/><path class="cls-1" d="M1021.45,955.42a.9.9,0,0,1-.64-.26L995.55,929.9a.9.9,0,1,1,1.27-1.27l25.26,25.26a.9.9,0,0,1-.64,1.53Z"/><path class="cls-1" d="M1062.49,996.46a.9.9,0,0,1-.64-.26l-25.26-25.26a.9.9,0,0,1,1.27-1.27l25.26,25.26a.9.9,0,0,1-.64,1.53Z"/><path class="cls-1" d="M1037.22,955.42a.9.9,0,0,1-.64-1.53l25.26-25.26a.9.9,0,0,1,1.27,1.27l-25.26,25.26A.9.9,0,0,1,1037.22,955.42Z"/><path class="cls-1" d="M996.19,996.46a.9.9,0,0,1-.64-1.53l25.26-25.26a.9.9,0,1,1,1.27,1.27L996.83,996.2A.9.9,0,0,1,996.19,996.46Z"/><path class="cls-1" d="M1195.08,996.62a.9.9,0,0,1-.64-.26l-66.3-66.3a.9.9,0,1,1,1.27-1.27l66.3,66.3a.9.9,0,0,1-.64,1.53Z"/><path class="cls-1" d="M1161.91,996.58a.89.89,0,0,1-.64-.27l-33.06-33.2a.9.9,0,0,1,1.27-1.27l33.06,33.2a.9.9,0,0,1-.64,1.53Z"/><path class="cls-1" d="M1195.08,963.39a.9.9,0,0,1-.63-.26l-33.17-33.07a.9.9,0,0,1,1.27-1.27l33.17,33.07a.9.9,0,0,1-.63,1.54Z"/><path class="cls-1" d="M1095.63,969.78a7.21,7.21,0,1,1,7.21-7.21A7.22,7.22,0,0,1,1095.63,969.78Zm0-12.62a5.41,5.41,0,1,0,5.41,5.41A5.42,5.42,0,0,0,1095.63,957.16Z"/><path class="cls-1" d="M1095.57,984a.9.9,0,0,1-.64-.26l-20.57-20.57a.9.9,0,0,1,0-1.27l20.57-20.57a.93.93,0,0,1,1.27,0l20.57,20.57a.9.9,0,0,1,0,1.27l-20.57,20.57A.9.9,0,0,1,1095.57,984Zm-19.3-21.47,19.3,19.3,19.3-19.3-19.3-19.3Z"/><path class="cls-1" d="M1062.49,996.62a.9.9,0,0,1-.64-1.53l22.86-22.86a.9.9,0,0,1,1.27,1.27l-22.86,22.86A.9.9,0,0,1,1062.49,996.62Z"/><path class="cls-1" d="M1085.28,953.11a.9.9,0,0,1-.64-.26l-22.79-22.79a.9.9,0,1,1,1.27-1.27l22.79,22.79a.9.9,0,0,1-.64,1.53Z"/><path class="cls-1" d="M1105.92,953.18a.9.9,0,0,1-.64-1.53l22.86-22.86a.9.9,0,0,1,1.27,1.27l-22.86,22.86A.9.9,0,0,1,1105.92,953.18Z"/><path class="cls-1" d="M1128.78,996.62a.9.9,0,0,1-.64-.26l-22.93-22.93a.9.9,0,1,1,1.27-1.27l22.93,22.93a.9.9,0,0,1-.64,1.53Z"/><path class="cls-1" d="M134.34,996.62a.9.9,0,0,1-.64-.26l-66.3-66.3a.9.9,0,0,1,1.27-1.27l66.3,66.3a.9.9,0,0,1-.64,1.53Z"/><path class="cls-1" d="M101.17,996.58a.89.89,0,0,1-.64-.27l-33.06-33.2a.9.9,0,1,1,1.27-1.27l33.06,33.2a.9.9,0,0,1-.64,1.53Z"/><path class="cls-1" d="M134.34,963.39a.9.9,0,0,1-.63-.26l-33.17-33.07a.9.9,0,0,1,1.27-1.27L135,961.85a.9.9,0,0,1-.63,1.54Z"/><path class="cls-1" d="M34.89,969.78a7.21,7.21,0,1,1,7.21-7.21A7.22,7.22,0,0,1,34.89,969.78Zm0-12.62a5.41,5.41,0,1,0,5.41,5.41A5.42,5.42,0,0,0,34.89,957.16Z"/><path class="cls-1" d="M34.82,984a.9.9,0,0,1-.64-.26L13.62,963.14a.9.9,0,0,1,0-1.27l20.57-20.57a.93.93,0,0,1,1.27,0L56,961.87a.9.9,0,0,1,0,1.27L35.46,983.71A.9.9,0,0,1,34.82,984ZM15.52,962.5l19.3,19.3,19.3-19.3-19.3-19.3Z"/><path class="cls-1" d="M1.74,996.62a.9.9,0,0,1-.64-1.53L24,972.22a.9.9,0,1,1,1.27,1.27L2.38,996.35A.9.9,0,0,1,1.74,996.62Z"/><path class="cls-1" d="M24.54,953.11a.9.9,0,0,1-.64-.26L1.11,930.06a.9.9,0,1,1,1.27-1.27l22.79,22.79a.9.9,0,0,1-.64,1.53Z"/><path class="cls-1" d="M45.18,953.18a.9.9,0,0,1-.64-1.53L67.4,928.78a.9.9,0,1,1,1.27,1.27L45.81,952.92A.9.9,0,0,1,45.18,953.18Z"/><path class="cls-1" d="M68,996.62a.9.9,0,0,1-.64-.26L44.48,973.43a.9.9,0,1,1,1.27-1.27l22.93,22.93a.9.9,0,0,1-.64,1.53Z"/><path class="cls-1" d="M963.26,980.05a17.92,17.92,0,0,1-12.67-30.59c7.63-7.63,24.09-8.33,30.77-8.27A2.88,2.88,0,0,1,984.2,944h0c.06,6.71-.64,23.14-8.27,30.77A17.88,17.88,0,0,1,963.26,980.05Zm17.49-36.9c-5.66,0-21.74.65-28.78,7.7a16,16,0,0,0,22.58,22.58c7.3-7.31,7.73-24.33,7.69-29.37h0a.92.92,0,0,0-.91-.91Z"/><path class="cls-1" d="M942.74,983.63a1,1,0,0,1-.69-1.67l36.67-36.67a1,1,0,0,1,1.38,1.38l-36.67,36.67A1,1,0,0,1,942.74,983.63Z"/><path class="cls-1" d="M972.58,961.79c-2.67,0-5.67-.37-7.14-1.82-2.84-2.81-1.73-11.39-1.59-12.36a1,1,0,0,1,1.94.27c-.46,3.29-.59,9.09,1,10.7s7.32,1.39,10.55.9a1,1,0,1,1,.3,1.93A36,36,0,0,1,972.58,961.79Z"/><path class="cls-1" d="M967.62,970.42c-2.9,0-7.06-.5-9.6-3-3.57-3.57-3-12.53-3-12.91a1,1,0,0,1,1-.91,1,1,0,0,1,.91,1c-.16,2.34,0,9,2.41,11.4,3.42,3.42,11.1,2.29,11.17,2.28a1,1,0,1,1,.3,1.93A23.13,23.13,0,0,1,967.62,970.42Z"/><path class="cls-1" d="M67.2,880.23H1a.9.9,0,0,1,0-1.8H67.2a.9.9,0,0,1,0,1.8Z"/><path class="cls-1" d="M67.13,896.72H.9a.9.9,0,0,1,0-1.8H67.13a.9.9,0,0,1,0,1.8Z"/><path class="cls-1" d="M67.2,913.35H1a.9.9,0,1,1,0-1.8H67.2a.9.9,0,1,1,0,1.8Z"/><path class="cls-1" d="M67.29,930a.9.9,0,0,1,0-1.8c1.31,0,32.15-.4,32.15-32.22,0-33.63,33.74-34,34.08-34a.9.9,0,0,1,0,1.8,40.85,40.85,0,0,0-16.25,4.07c-10.64,5.33-16,14.8-16,28.14C101.23,929.64,67.63,930,67.29,930Z"/><path class="cls-1" d="M100.34,930.09a.9.9,0,0,1,0-1.8,20.18,20.18,0,0,0,8-2c5.16-2.59,7.78-7.18,7.78-13.64,0-17.22,17.24-17.52,17.42-17.52h0a.9.9,0,0,1,0,1.8c-.64,0-15.63.31-15.63,15.72,0,17.22-17.38,17.46-17.55,17.46Z"/><path class="cls-1" d="M67.22,897a.9.9,0,0,1,0-1.8,20.18,20.18,0,0,0,8-2C80.36,890.61,83,886,83,879.56,83,862.34,100.22,862,100.4,862h0a.9.9,0,0,1,0,1.8c-.64,0-15.63.31-15.63,15.72C84.78,896.78,67.4,897,67.22,897Z"/><path class="cls-1" d="M333.78,1063.18a.9.9,0,0,1-.64-.26l-66.3-66.3a.9.9,0,0,1,1.27-1.27l66.3,66.3a.9.9,0,0,1-.64,1.53Z"/><path class="cls-1" d="M300.61,1063.15a.89.89,0,0,1-.64-.27l-33.07-33.2a.9.9,0,1,1,1.27-1.27l33.07,33.2a.9.9,0,0,1-.64,1.53Z"/><path class="cls-1" d="M333.78,1030a.9.9,0,0,1-.63-.26L300,996.62a.9.9,0,0,1,1.27-1.27l33.17,33.07a.9.9,0,0,1-.63,1.54Z"/><path class="cls-1" d="M466.3,1063.21a.9.9,0,0,1-.64-.26l-66.3-66.3a.9.9,0,0,1,1.27-1.27l66.3,66.3a.9.9,0,0,1-.64,1.53Z"/><path class="cls-1" d="M433.14,1063.18a.89.89,0,0,1-.64-.27l-33.06-33.2a.9.9,0,1,1,1.27-1.27l33.06,33.2a.9.9,0,0,1-.64,1.53Z"/><path class="cls-1" d="M466.3,1030a.9.9,0,0,1-.63-.26L432.5,996.65a.9.9,0,0,1,1.27-1.27l33.17,33.07a.9.9,0,0,1-.63,1.54Z"/><path class="cls-1" d="M201.25,1063.12a.9.9,0,0,1,0-1.8c1.31,0,32.15-.4,32.15-32.22,0-33.63,33.74-34,34.08-34a.9.9,0,0,1,0,1.8,40.85,40.85,0,0,0-16.25,4.07c-10.64,5.33-16,14.8-16,28.14C235.2,1062.73,201.59,1063.12,201.25,1063.12Z"/><path class="cls-1" d="M234.3,1063.18a.9.9,0,0,1,0-1.8,20.18,20.18,0,0,0,8-2c5.16-2.59,7.78-7.18,7.78-13.64,0-17.22,17.24-17.52,17.42-17.52h0a.9.9,0,0,1,0,1.8c-.64,0-15.63.31-15.63,15.72,0,17.22-17.38,17.46-17.55,17.46Z"/><path class="cls-1" d="M201.19,1030.1a.9.9,0,0,1,0-1.8,20.18,20.18,0,0,0,8-2c5.16-2.59,7.78-7.18,7.78-13.64,0-17.22,17.24-17.52,17.42-17.52h0a.9.9,0,0,1,0,1.8c-.64,0-15.63.31-15.63,15.73,0,17.22-17.38,17.45-17.55,17.46Z"/><path class="cls-1" d="M201.19,1013.6H135a.9.9,0,0,1,0-1.8h66.23a.9.9,0,0,1,0,1.8Z"/><path class="cls-1" d="M201.12,1030.1H134.89a.9.9,0,0,1,0-1.8h66.23a.9.9,0,0,1,0,1.8Z"/><path class="cls-1" d="M201.19,1046.72H135a.9.9,0,0,1,0-1.8h66.23a.9.9,0,0,1,0,1.8Z"/><path class="cls-1" d="M548.69,1046.57a.9.9,0,0,1-.9-.9v-33.15a.9.9,0,1,1,1.8,0v33.15A.9.9,0,0,1,548.69,1046.57Z"/><path class="cls-1" d="M565.2,1063.18a.9.9,0,0,1-.9-.9V996a.9.9,0,1,1,1.8,0v66.3A.9.9,0,0,1,565.2,1063.18Z"/><path class="cls-1" d="M581.84,1046.57a.9.9,0,0,1-.9-.9v-33.15a.9.9,0,1,1,1.8,0v33.15A.9.9,0,0,1,581.84,1046.57Z"/><path class="cls-1" d="M963,1062.9a.9.9,0,0,1-.9-.9V995.74a.9.9,0,1,1,1.8,0V1062A.9.9,0,0,1,963,1062.9Z"/><path class="cls-1" d="M996.12,1029.77H929.85a.9.9,0,0,1,0-1.8h66.26a.9.9,0,0,1,0,1.8Z"/><path class="cls-1" d="M929.85,1062.9a.9.9,0,0,1-.64-1.53l66.26-66.26a.9.9,0,1,1,1.27,1.27l-66.26,66.26A.9.9,0,0,1,929.85,1062.9Z"/><path class="cls-1" d="M996.13,1062.92a.9.9,0,0,1-.64-.26l-66.3-66.3a.9.9,0,0,1,1.27-1.27l66.3,66.3a.9.9,0,0,1-.64,1.53Z"/><path class="cls-1" d="M499.35,1063.17a.9.9,0,0,1-.9-.9V996a.9.9,0,1,1,1.8,0v66.26A.9.9,0,0,1,499.35,1063.17Z"/><path class="cls-1" d="M532.48,1030H466.21a.9.9,0,0,1,0-1.8h66.26a.9.9,0,0,1,0,1.8Z"/><path class="cls-1" d="M466.21,1063.17a.9.9,0,0,1-.64-1.53l66.26-66.26a.9.9,0,0,1,1.27,1.27l-66.26,66.26A.9.9,0,0,1,466.21,1063.17Z"/><path class="cls-1" d="M532.49,1063.18a.9.9,0,0,1-.64-.26l-66.3-66.3a.9.9,0,0,1,1.27-1.27l66.3,66.3a.9.9,0,0,1-.64,1.53Z"/><path class="cls-1" d="M863.47,996.46a.9.9,0,0,1-.64-.26l-66.3-66.3a.9.9,0,1,1,1.27-1.27l66.3,66.3a.9.9,0,0,1-.64,1.53Z"/><path class="cls-1" d="M830.31,996.43a.89.89,0,0,1-.64-.27L796.61,963a.9.9,0,0,1,1.27-1.27l33.07,33.2a.9.9,0,0,1-.64,1.53Z"/><path class="cls-1" d="M863.47,963.23a.9.9,0,0,1-.63-.26L829.68,929.9a.9.9,0,1,1,1.27-1.27l33.16,33.07a.9.9,0,0,1-.63,1.54Z"/><path class="cls-1" d="M929.78,1062.92a.9.9,0,0,1-.64-.26l-66.3-66.3a.9.9,0,0,1,1.27-1.27l66.3,66.3a.9.9,0,0,1-.64,1.53Z"/><path class="cls-1" d="M896.61,1062.89a.89.89,0,0,1-.64-.27l-33.06-33.2a.9.9,0,1,1,1.27-1.27l33.06,33.2a.9.9,0,0,1-.64,1.53Z"/><path class="cls-1" d="M929.78,1029.69a.9.9,0,0,1-.63-.26L896,996.36a.9.9,0,1,1,1.27-1.27l33.17,33.07a.9.9,0,0,1-.63,1.54Z"/><path class="cls-1" d="M731.42,1063a.9.9,0,0,0,0-1.8c-1.31,0-32.15-.4-32.15-32.22,0-33.63-33.74-34-34.08-34a.9.9,0,0,0,0,1.8,40.85,40.85,0,0,1,16.25,4.07c10.64,5.33,16,14.8,16,28.14C697.47,1062.59,731.08,1063,731.42,1063Z"/><path class="cls-1" d="M698.37,1063a.9.9,0,0,0,0-1.8,20.18,20.18,0,0,1-8-2c-5.16-2.59-7.78-7.18-7.78-13.64,0-17.22-17.24-17.52-17.42-17.52h0a.9.9,0,0,0,0,1.8c.64,0,15.63.31,15.63,15.72,0,17.22,17.38,17.46,17.55,17.46Z"/><path class="cls-1" d="M731.49,1030a.9.9,0,0,0,0-1.8,20.18,20.18,0,0,1-8-2c-5.16-2.59-7.78-7.18-7.78-13.64,0-17.22-17.24-17.52-17.42-17.52h0a.9.9,0,0,0,0,1.8c.64,0,15.63.31,15.63,15.73,0,17.22,17.38,17.45,17.55,17.46Z"/><path class="cls-1" d="M1062.49,1013.22H996.26a.9.9,0,0,1,0-1.8h66.23a.9.9,0,0,1,0,1.8Z"/><path class="cls-1" d="M1062.42,1029.71H996.19a.9.9,0,0,1,0-1.8h66.23a.9.9,0,0,1,0,1.8Z"/><path class="cls-1" d="M1062.49,1046.33H996.26a.9.9,0,0,1,0-1.8h66.23a.9.9,0,0,1,0,1.8Z"/><path class="cls-1" d="M665.26,1013.48H599a.9.9,0,0,1,0-1.8h66.23a.9.9,0,0,1,0,1.8Z"/><path class="cls-1" d="M665.19,1030H599a.9.9,0,0,1,0-1.8h66.23a.9.9,0,0,1,0,1.8Z"/><path class="cls-1" d="M665.26,1046.59H599a.9.9,0,0,1,0-1.8h66.23a.9.9,0,0,1,0,1.8Z"/><path class="cls-1" d="M400.12,1013.48H333.89a.9.9,0,0,1,0-1.8h66.23a.9.9,0,0,1,0,1.8Z"/><path class="cls-1" d="M400.05,1030H333.82a.9.9,0,0,1,0-1.8h66.23a.9.9,0,0,1,0,1.8Z"/><path class="cls-1" d="M400.12,1046.59H333.89a.9.9,0,0,1,0-1.8h66.23a.9.9,0,0,1,0,1.8Z"/><path class="cls-1" d="M813.85,1046.34a.9.9,0,0,1-.9-.9v-33.15a.9.9,0,1,1,1.8,0v33.15A.9.9,0,0,1,813.85,1046.34Z"/><path class="cls-1" d="M830.35,1062.95a.9.9,0,0,1-.9-.9v-66.3a.9.9,0,0,1,1.8,0V1062A.9.9,0,0,1,830.35,1062.95Z"/><path class="cls-1" d="M847,1046.34a.9.9,0,0,1-.9-.9v-33.15a.9.9,0,1,1,1.8,0v33.15A.9.9,0,0,1,847,1046.34Z"/><path class="cls-1" d="M1128.64,1062.92a.9.9,0,0,1-.64-.26l-66.3-66.3a.9.9,0,1,1,1.27-1.27l66.3,66.3a.9.9,0,0,1-.64,1.53Z"/><path class="cls-1" d="M1095.47,1062.89a.89.89,0,0,1-.64-.27l-33.06-33.2a.9.9,0,0,1,1.27-1.27l33.06,33.2a.9.9,0,0,1-.64,1.53Z"/><path class="cls-1" d="M1128.64,1029.69a.9.9,0,0,1-.63-.26l-33.17-33.06a.9.9,0,0,1,1.27-1.27l33.17,33.06a.9.9,0,0,1-.63,1.54Z"/><path class="cls-1" d="M1195,1062.85a.9.9,0,0,0,0-1.8c-1.31,0-32.15-.4-32.15-32.22,0-33.63-33.74-34-34.08-34a.9.9,0,0,0,0,1.8,40.85,40.85,0,0,1,16.25,4.07c10.64,5.33,16,14.8,16,28.14C1161.07,1062.46,1194.67,1062.85,1195,1062.85Z"/><path class="cls-1" d="M1162,1062.92a.9.9,0,0,0,0-1.8,20.18,20.18,0,0,1-8-2c-5.16-2.59-7.78-7.18-7.78-13.64,0-17.22-17.24-17.52-17.42-17.52h0a.9.9,0,0,0,0,1.8c.64,0,15.63.31,15.63,15.72,0,17.22,17.38,17.46,17.55,17.46Z"/><path class="cls-1" d="M1195.08,1029.84a.9.9,0,0,0,0-1.8,20.18,20.18,0,0,1-8-2c-5.16-2.59-7.78-7.18-7.78-13.64,0-17.22-17.24-17.52-17.42-17.52h0a.9.9,0,0,0,0,1.8c.64,0,15.63.31,15.63,15.72,0,17.22,17.38,17.46,17.55,17.46Z"/><path class="cls-1" d="M134.89,1063.34a.9.9,0,0,1-.64-.26L68,996.78a.9.9,0,0,1,1.27-1.27l66.3,66.3a.9.9,0,0,1-.64,1.53Z"/><path class="cls-1" d="M101.72,1063.31a.89.89,0,0,1-.64-.27L68,1029.84a.9.9,0,0,1,1.27-1.27l33.06,33.2a.9.9,0,0,1-.64,1.53Z"/><path class="cls-1" d="M134.89,1030.11a.9.9,0,0,1-.63-.26l-33.17-33.06a.9.9,0,1,1,1.27-1.27l33.17,33.06a.9.9,0,0,1-.63,1.54Z"/><path class="cls-1" d="M2.36,1063.27a.9.9,0,0,1,0-1.8c1.31,0,32.15-.4,32.15-32.22,0-33.63,33.74-34,34.08-34a.9.9,0,0,1,0,1.8,40.85,40.85,0,0,0-16.25,4.07c-10.64,5.33-16,14.8-16,28.14C36.31,1062.88,2.7,1063.27,2.36,1063.27Z"/><path class="cls-1" d="M35.41,1063.34a.9.9,0,0,1,0-1.8,20.18,20.18,0,0,0,8-2c5.16-2.59,7.78-7.18,7.78-13.64,0-17.22,17.24-17.52,17.42-17.52h0a.9.9,0,0,1,0,1.8c-.64,0-15.63.31-15.63,15.72,0,17.22-17.38,17.46-17.55,17.46Z"/><path class="cls-1" d="M2.3,1030.26a.9.9,0,0,1,0-1.8,20.18,20.18,0,0,0,8-2c5.16-2.59,7.78-7.18,7.78-13.64,0-17.22,17.24-17.52,17.42-17.52h0a.9.9,0,0,1,0,1.8c-.64,0-15.63.31-15.63,15.72,0,17.22-17.38,17.46-17.55,17.46Z"/><path class="cls-1" d="M1177.73,658.55h-31.47a3.26,3.26,0,0,1-3.25-3.25V606.62a3.26,3.26,0,0,1,3.25-3.25h31.47a3.26,3.26,0,0,1,3.25,3.25V655.3A3.26,3.26,0,0,1,1177.73,658.55Zm-31.47-54.18a2.26,2.26,0,0,0-2.25,2.25V655.3a2.25,2.25,0,0,0,2.25,2.25h31.47a2.25,2.25,0,0,0,2.25-2.25V606.62a2.26,2.26,0,0,0-2.25-2.25Z"/><path class="cls-1" d="M1177.73,658.95h-31.47a3.66,3.66,0,0,1-3.65-3.65V606.62a3.66,3.66,0,0,1,3.65-3.65h31.47a3.66,3.66,0,0,1,3.65,3.65V655.3A3.66,3.66,0,0,1,1177.73,658.95Zm-31.47-55.18a2.86,2.86,0,0,0-2.85,2.85V655.3a2.86,2.86,0,0,0,2.85,2.85h31.47a2.86,2.86,0,0,0,2.85-2.85V606.62a2.86,2.86,0,0,0-2.85-2.85Zm31.47,54.18h-31.47a2.66,2.66,0,0,1-2.65-2.65V606.62a2.66,2.66,0,0,1,2.65-2.65h31.47a2.66,2.66,0,0,1,2.65,2.65V655.3A2.66,2.66,0,0,1,1177.73,657.95Zm-31.47-53.18a1.85,1.85,0,0,0-1.85,1.85V655.3a1.85,1.85,0,0,0,1.85,1.85h31.47a1.85,1.85,0,0,0,1.85-1.85V606.62a1.85,1.85,0,0,0-1.85-1.85Z"/><path class="cls-1" d="M1161.92,654.17a3.58,3.58,0,1,1,3.59-3.58A3.59,3.59,0,0,1,1161.92,654.17Zm0-6.17a2.58,2.58,0,1,0,2.59,2.58A2.59,2.59,0,0,0,1161.92,648Z"/><path class="cls-1" d="M1161.92,654.57a4,4,0,1,1,4-4A4,4,0,0,1,1161.92,654.57Zm0-7.17a3.18,3.18,0,1,0,3.19,3.18A3.19,3.19,0,0,0,1161.92,647.41Zm0,6.17a3,3,0,1,1,3-3A3,3,0,0,1,1161.92,653.57Zm0-5.17a2.18,2.18,0,1,0,2.19,2.18A2.19,2.19,0,0,0,1161.92,648.41Z"/></g></g></svg>