<svg xmlns="http://www.w3.org/2000/svg" viewBox="0 0 42.98 35.34"><defs><style>.cls-1{fill:#1a1e1e;}</style></defs><title>11Asset 21footer-logo</title><g id="Layer_2" data-name="Layer 2"><g id="Layer_1-2" data-name="Layer 1"><path class="cls-1" d="M27.24,12.57A7.79,7.79,0,0,1,26.17,23a7.7,7.7,0,0,1-7.11,1.73c-1.55-.34-3-.84-4.84-1.37C-1.55,18.76,0,35.21,0,35.21a6,6,0,0,1,4.7-4.09c3.2-.57,6,1.41,10.31,2.92,5.51,1.9,9.49,1.76,13-.63C30.28,31.92,37.11,24.29,27.24,12.57Z"/><path class="cls-1" d="M15.74,22.77A7.79,7.79,0,0,1,16.8,12.33a7.7,7.7,0,0,1,7.11-1.73c1.55.34,3,.84,4.84,1.37C44.53,16.58,42.93.13,42.93.13a6,6,0,0,1-4.7,4.09c-3.2.57-6-1.41-10.31-2.92-5.51-1.9-9.49-1.76-13,.63C12.7,3.42,5.87,11.05,15.74,22.77Z"/></g></g></svg>