<svg xmlns="http://www.w3.org/2000/svg" viewBox="0 0 130 32.02">
        <defs>
            <style>
                .cls-1 {
                    fill:#20d2a2;
                    opacity:0;
                    animation: fadein 0.3s linear forwards;
                    animation-delay:2.5s;
                }
                @keyframes fadein{
                    0%{
                        opacity:0;
                    }
                    100%{
                        opacity:1;
                    }
                }
                        .cls-2 {
                    fill: #191d1d;
                }
            </style>
        </defs>
        <title>11Asset 11logo</title>
        <g id="Layer_2" data-name="Layer 2">
            <g id="Layer_1-2" data-name="Layer 1">
                <path class="cls-1" d="M20.26,9.35a5.79,5.79,0,0,1-.79,7.77,5.73,5.73,0,0,1-5.29,1.29c-1.15-.25-2.24-.62-3.6-1C-1.15,14,0,26.18,0,26.18a4.48,4.48,0,0,1,3.49-3c2.38-.42,4.44,1.05,7.67,2.17,4.1,1.42,7.06,1.31,9.68-.47C22.51,23.74,27.59,18.06,20.26,9.35Z" />
                <path class="cls-1" d="M11.7,16.93a5.79,5.79,0,0,1,.79-7.77,5.73,5.73,0,0,1,5.29-1.29c1.15.25,2.24.62,3.6,1C33.11,12.33,31.92.1,31.92.1a4.48,4.48,0,0,1-3.49,3C26.06,3.56,24,2.09,20.76,1c-4.1-1.42-7.06-1.31-9.68.47C9.45,2.54,4.36,8.22,11.7,16.93Z" />
                <path class="cls-2" d="M57.36,32a.37.37,0,0,1-.37-.37V18.44c0-4,1.28-5.54,2-6.29a7.35,7.35,0,0,1,11.55,1,7.58,7.58,0,0,1-1,9.68,7.12,7.12,0,0,1-9.7.2s0,5.91,0,8.66a.37.37,0,0,1-.37.37Zm7-19.25a4.52,4.52,0,0,0-4.55,4.54,4.57,4.57,0,1,0,4.55-4.54Z" />
                <path class="cls-2" d="M96,23a7.12,7.12,0,0,1-9.7-.2,7.58,7.58,0,0,1-1-9.68,7.35,7.35,0,0,1,11.55-1c.69.75,2,2.3,2,6.29v5.84a.36.36,0,0,1-.36.36h-2.1a.37.37,0,0,1-.36-.37C95.92,22.24,96,23,96,23Zm-9.14-5.67a4.57,4.57,0,0,0,9.14.06,4.57,4.57,0,1,0-9.14-.06Z" />
                <path class="cls-2" d="M116.37,24.27a.36.36,0,0,0,.36.36h2.1a.36.36,0,0,0,.36-.36v-7.2c0-2.5,1.47-4.52,4-4.52s4,2,4,4.52v7.21a.36.36,0,0,0,.36.36h2.1a.36.36,0,0,0,.36-.37v-7.2a7.42,7.42,0,0,0-2.16-5.42,6.14,6.14,0,0,0-8.63-.2s0-5.62,0-8.36a.36.36,0,0,0-.36-.36h-2.1a.36.36,0,0,0-.36.36c0,2.22,0,21.19,0,21.19" />
                <path class="cls-2" d="M47.92,24.79A6.19,6.19,0,0,1,41.54,19a.36.36,0,0,1,.36-.39h2.5a.36.36,0,0,1,.36.32,3,3,0,0,0,5.9-.32,3.27,3.27,0,0,0-2.2-2.87c-.7-.29-2-.77-2.68-1a6.16,6.16,0,1,1,8.09-6.2.36.36,0,0,1-.36.38H51a.36.36,0,0,1-.36-.32,3,3,0,0,0-5.9.32,3,3,0,0,0,2.12,2.79c.68.24,2,.75,2.84,1.09A7.21,7.21,0,0,1,52.65,15a5.91,5.91,0,0,1,1.24,3.75A6.2,6.2,0,0,1,47.92,24.79Z" />
                <path class="cls-2" d="M82.47,24.42V21.93a.36.36,0,0,0-.34-.36A4.57,4.57,0,0,1,77.91,17V3.09a.36.36,0,0,0-.36-.36H75.05a.36.36,0,0,0-.36.36c0,2.28,0,13.92,0,13.92a7.78,7.78,0,0,0,7.38,7.77h.07a.36.36,0,0,0,.33-.36h0Z" />
                <path class="cls-2" d="M107.26,12.25a2.44,2.44,0,0,1,2.69,2h0a.36.36,0,0,0,.35.28h2.25a.37.37,0,0,0,.36-.39,3.87,3.87,0,0,0-.09-.61,4.53,4.53,0,0,0-1.36-2.36,5.55,5.55,0,0,0-4.21-1.55,5.09,5.09,0,0,0-3.73,1.43,3.94,3.94,0,0,0-1.38,3.1,4,4,0,0,0,1.18,3h0a6.85,6.85,0,0,0,2.57,1.3l2.22.56a1.72,1.72,0,0,1,1.53,1.64,2,2,0,0,1-2.17,1.84,2.45,2.45,0,0,1-2.7-2h0a.36.36,0,0,0-.35-.28h-2.24a.37.37,0,0,0-.36.39,3.87,3.87,0,0,0,.09.61,4.53,4.53,0,0,0,1.36,2.36,5.84,5.84,0,0,0,4.21,1.6A5.1,5.1,0,0,0,111.12,24a4.4,4.4,0,0,0,1.52-3.3,3.61,3.61,0,0,0-1.24-3h0A6.67,6.67,0,0,0,109,16.5l-2.24-.7c-1.1-.32-1.53-.91-1.53-1.72A1.92,1.92,0,0,1,107.26,12.25Z" />
            </g>
        </g>
    </svg>