<?xml version="1.0" encoding="UTF-8"?>
<svg width="90px" height="31px" viewBox="0 0 90 31" version="1.1" xmlns="http://www.w3.org/2000/svg" xmlns:xlink="http://www.w3.org/1999/xlink">
    <!-- Generator: Sketch 50.2 (55047) - http://www.bohemiancoding.com/sketch -->
    <title>header-logo-01 copy</title>
    <desc>Created with Sketch.</desc>
    <defs></defs>
    <g id="Page-1" stroke="none" stroke-width="1" fill="none" fill-rule="evenodd">
        <g id="header-logo-01-copy" fill="#191D1D" fill-rule="nonzero">
            <path d="M16.36,30 C16.1556546,30 15.99,29.8343454 15.99,29.63 L15.99,16.44 C15.99,12.44 17.27,10.9 17.99,10.15 C19.5316382,8.49032952 21.7524273,7.63421743 24.0091898,7.82960812 C26.2659522,8.02499881 28.306553,9.2500624 29.54,11.15 C31.5953577,14.192939 31.1740187,18.2715007 28.54,20.83 C25.8594651,23.4301989 21.6254359,23.5174985 18.84,21.03 C18.84,21.03 18.84,26.94 18.84,29.69 C18.84,29.8943454 18.6743454,30.06 18.47,30.06 L16.36,30 Z M23.36,10.75 C22.1525576,10.7419739 20.992099,11.2173936 20.1373507,12.0702633 C19.2826023,12.9231331 18.8046305,14.0825429 18.81,15.29 C18.7978539,17.1428908 19.9057327,18.8197282 21.6148907,19.5353612 C23.3240487,20.2509943 25.2961625,19.8637653 26.6078229,18.5549877 C27.9194833,17.24621 28.3110504,15.2749531 27.5991796,13.5642246 C26.8873088,11.8534962 25.2129131,10.7419307 23.36,10.75 Z" id="Shape"></path>
            <path d="M55,21 C52.2145641,23.4874985 47.9805349,23.4001989 45.3,20.8 C42.6659813,18.2415007 42.2446423,14.162939 44.3,11.12 C45.533447,9.2200624 47.5740478,7.99499881 49.8308102,7.79960812 C52.0875727,7.60421743 54.3083618,8.46032952 55.85,10.12 C56.54,10.87 57.85,12.42 57.85,16.41 L57.85,22.25 C57.85,22.4488225 57.6888225,22.61 57.49,22.61 L55.39,22.61 C55.1895703,22.604581 55.0299268,22.440503 55.03,22.24 C54.92,20.24 55,21 55,21 Z M45.86,15.33 C45.8434315,17.8539413 47.8760587,19.9134315 50.4,19.93 C52.9239413,19.9465685 54.9834315,17.9139413 55,15.39 C55.0165685,12.8660587 52.9839413,10.8065685 50.46,10.79 C47.9360587,10.7734315 45.8765685,12.8060587 45.86,15.33 Z" id="Shape"></path>
            <path d="M75.37,22.27 C75.37,22.4688225 75.5311775,22.63 75.73,22.63 L77.83,22.63 C78.0288225,22.63 78.19,22.4688225 78.19,22.27 L78.19,15.07 C78.19,12.57 79.66,10.55 82.19,10.55 C84.72,10.55 86.19,12.55 86.19,15.07 L86.19,22.28 C86.19,22.4788225 86.3511775,22.64 86.55,22.64 L88.65,22.64 C88.7472361,22.6400375 88.8403522,22.6007394 88.9081603,22.5310478 C88.9759683,22.4613562 89.012701,22.3671986 89.01,22.27 L89.01,15.07 C89.0603252,13.0441777 88.2799098,11.0859131 86.85,9.65 C84.513539,7.23116989 80.6660051,7.14200341 78.22,9.45 C78.22,9.45 78.22,3.83 78.22,1.09 C78.22,0.89117749 78.0588225,0.73 77.86,0.73 L75.76,0.73 C75.5611775,0.73 75.4,0.89117749 75.4,1.09 C75.4,3.31 75.4,22.28 75.4,22.28" id="Shape"></path>
            <path d="M6.92,22.79 C3.5787433,22.8994854 0.754235767,20.3361784 0.54,17 C0.531590129,16.8994399 0.565772394,16.7999668 0.6342184,16.725817 C0.702664406,16.6516671 0.799089489,16.609649 0.9,16.61 L3.4,16.61 C3.58419447,16.6088598 3.73953708,16.7469422 3.76,16.93 C4.09028416,18.3477265 5.39067855,19.323759 6.84423307,19.2449221 C8.29778758,19.1660853 9.48498954,18.0551323 9.66,16.61 C9.57047936,15.2979903 8.70371719,14.1672597 7.46,13.74 C6.76,13.45 5.46,12.97 4.78,12.74 C1.8350215,11.7627112 0.0766428467,8.74752921 0.676266152,5.70311733 C1.27588946,2.65870544 4.04631589,0.535510893 7.14193424,0.747969964 C10.2375526,0.960429034 12.6919292,3.44221327 12.87,6.54 C12.8755027,6.63889351 12.8400177,6.73568544 12.771899,6.8075885 C12.7037803,6.87949156 12.6090464,6.92015297 12.51,6.92 L10,6.92 C9.81580553,6.92114016 9.66046292,6.78305784 9.64,6.6 C9.30971584,5.18227352 8.00932145,4.206241 6.55576693,4.28507786 C5.10221242,4.36391471 3.91501046,5.47486771 3.74,6.92 C3.77367216,8.20895007 4.6271953,9.33221873 5.86,9.71 C6.54,9.95 7.86,10.46 8.7,10.8 C9.85707785,11.2658144 10.8735197,12.0238389 11.65,13 C12.4811544,14.0708072 12.9189497,15.3947851 12.89,16.75 C12.8076954,20.0241466 10.1929647,22.6695357 6.92,22.79 Z" id="Shape"></path>
            <path d="M41.47,22.42 L41.47,19.93 C41.4702954,19.7387331 41.3209717,19.5806257 41.13,19.57 C38.7436738,19.3867118 36.9029714,17.3933445 36.91,15 L36.91,1.09 C36.91,0.89117749 36.7488225,0.73 36.55,0.73 L34.05,0.73 C33.8511775,0.73 33.69,0.89117749 33.69,1.09 C33.69,3.37 33.69,15.01 33.69,15.01 C33.6898459,19.1514281 36.9340492,22.5670731 41.07,22.78 L41.14,22.78 C41.3270211,22.7643617 41.4706527,22.6076726 41.47,22.42 Z" id="Shape"></path>
            <path d="M66.26,10.25 C67.5451688,10.0978009 68.7256096,10.9754521 68.95,12.25 C68.9872499,12.4134362 69.1323732,12.5295349 69.3,12.53 L71.55,12.53 C71.6499487,12.5274457 71.7446094,12.4845511 71.8124248,12.4110844 C71.8802401,12.3376177 71.915437,12.2398334 71.91,12.14 C71.896272,11.9345966 71.8661765,11.730616 71.82,11.53 C71.619507,10.6224425 71.1447044,9.79852043 70.46,9.17 C69.337322,8.08389959 67.808928,7.5211892 66.25,7.62 C64.8637502,7.56847224 63.5165236,8.08496928 62.52,9.05 C61.6157955,9.82216244 61.1086639,10.9613711 61.14,12.15 C61.0951163,13.2712473 61.5232747,14.3597855 62.32,15.15 C63.0748595,15.7605648 63.9508865,16.2036913 64.89,16.45 L67.11,17.01 C67.9553077,17.1032463 68.6055723,17.800262 68.64,18.65 C68.5993069,19.1829764 68.346958,19.6774854 67.9392635,20.0231803 C67.531569,20.3688752 67.0024585,20.5369861 66.47,20.49 C65.1825985,20.6426909 63.9990956,19.7660221 63.77,18.49 C63.7327501,18.3265638 63.5876268,18.2104651 63.42,18.21 L61.18,18.21 C61.0800513,18.2125543 60.9853906,18.2554489 60.9175752,18.3289156 C60.8497599,18.4023823 60.814563,18.5001666 60.82,18.6 C60.833728,18.8054034 60.8638235,19.009384 60.91,19.21 C61.110493,20.1175575 61.5852956,20.9414796 62.27,21.57 C63.4029646,22.6447695 64.9191872,23.2210061 66.48,23.17 C67.7991468,23.2667753 69.1042943,22.8472636 70.12,22 C71.0783695,21.1703082 71.6323456,19.9675969 71.64,18.7 C71.7249423,17.5600792 71.2649867,16.4472835 70.4,15.7 C69.6895488,15.1415521 68.8730291,14.7332922 68,14.5 L65.76,13.8 C64.66,13.48 64.23,12.89 64.23,12.08 C64.2532008,11.5669304 64.4809929,11.0845441 64.8624638,10.7406565 C65.2439346,10.396769 65.7472801,10.2200511 66.26,10.25 Z" id="Shape"></path>
        </g>
    </g>
</svg>