<svg xmlns="http://www.w3.org/2000/svg" viewBox="0 0 17.03 17.03"><defs><style>.cls-1{fill:#1a1e1e;}.cls-2{fill:#fff;}</style></defs><title>11Asset 12learn-more</title><g id="Layer_2" data-name="Layer 2"><g id="Layer_1-2" data-name="Layer 1"><circle class="cls-1" cx="8.52" cy="8.52" r="8.52"/><path class="cls-2" d="M9.89,12.66c.85-.51.75-1.33.74-2.13,0-1.37,0-2.88,0-4.36L8,12.84,5.1,6.44S5,6.43,5,6.66v2C5,9,5,9.24,5,9.54a3.48,3.48,0,0,0,.83,2.72,4.59,4.59,0,0,1,.37.42H3.36a2.73,2.73,0,0,0,.83-1,3.86,3.86,0,0,0,.38-1.42c.06-1.25,0-2.5,0-3.75A2.27,2.27,0,0,0,4,4.73a4.55,4.55,0,0,1-.36-.52c1,0,1.8,0,2.64,0,.13,0,.29.24.37.4C7.28,6,7.91,7.4,8.54,8.79l.33.69,1-2.39c.33-.81.66-1.61,1-2.43a.58.58,0,0,1,.64-.46c.72,0,1.45,0,2.18,0,0,.12,0,.17,0,.19a2.44,2.44,0,0,0-.76,2.19c.05,1.33,0,2.66,0,4a2.13,2.13,0,0,0,.82,2.09Z"/></g></g></svg>