<?xml version="1.0" encoding="UTF-8"?>
<svg width="44px" height="36px" viewBox="0 0 44 36" version="1.1" xmlns="http://www.w3.org/2000/svg" xmlns:xlink="http://www.w3.org/1999/xlink">
    <!-- Generator: Sketch 50.2 (55047) - http://www.bohemiancoding.com/sketch -->
    <title>header-logo-02</title>
    <desc>Created with Sketch.</desc>
    <defs></defs>
    <g id="Page-1" stroke="none" stroke-width="1" fill="none" fill-rule="evenodd">
        <g id="iPhone-X" transform="translate(-192.000000, -171.000000)" fill="#20D2A2" fill-rule="nonzero">
            <g id="header-logo-02" transform="translate(192.000000, 170.000000)">
                <path d="M28.24,13.57 C30.6264709,16.8023634 30.1630621,21.3195158 27.17,24 C25.2429242,25.7378959 22.570103,26.3882448 20.06,25.73 C18.51,25.39 17.06,24.89 15.22,24.36 C-0.55,19.76 1,36.21 1,36.21 C1.68056976,34.0763478 3.49279414,32.4993271 5.7,32.12 C8.9,31.55 11.7,33.53 16.01,35.04 C21.52,36.94 25.5,36.8 29.01,34.41 C31.28,32.92 38.11,25.29 28.24,13.57 Z" id="Shape"></path>
                <path d="M16.74,23.77 C14.344891,20.5382668 14.8042127,16.0143817 17.8,13.33 C19.7270758,11.5921041 22.399897,10.9417552 24.91,11.6 C26.46,11.94 27.91,12.44 29.75,12.97 C45.53,17.58 43.93,1.13 43.93,1.13 C43.2494302,3.26365216 41.4372059,4.84067294 39.23,5.22 C36.03,5.79 33.23,3.81 28.92,2.3 C23.41,0.4 19.43,0.54 15.92,2.93 C13.7,4.42 6.87,12.05 16.74,23.77 Z" id="Shape"></path>
            </g>
        </g>
    </g>
</svg>