<svg width="66" height="42" viewBox="0 0 66 42" fill="none" xmlns="http://www.w3.org/2000/svg">
<path d="M42.6455 3.83515L44.5137 1.48788L44.5137 1.48788L42.6455 3.83515ZM39.8352 4.15451L37.4879 2.28627L39.8352 4.15451ZM62.2113 19.408L60.3431 21.7552C60.3596 21.7684 60.3762 21.7813 60.393 21.7941L62.2113 19.408ZM62.4152 19.5865L60.2899 21.7039L60.2952 21.7092L62.4152 19.5865ZM62.802 20.1314L60.0987 21.4321L60.1005 21.4359L62.802 20.1314ZM62.9565 20.5831L60.0217 21.2054L60.0219 21.206L62.9565 20.5831ZM63.0001 20.999L60.0001 20.9986L60.0001 21.0025L63.0001 20.999ZM62.9544 21.4265L60.023 20.7891L60.0229 20.7891L62.9544 21.4265ZM62.8649 21.7242L60.0686 20.6374L60.0686 20.6376L62.8649 21.7242ZM62.8024 21.8678L60.1004 20.5644L60.0985 20.5683L62.8024 21.8678ZM62.4145 22.4142L60.2956 20.2905L60.2903 20.2957L62.4145 22.4142ZM62.2113 22.592L60.393 20.2059C60.3762 20.2187 60.3596 20.2316 60.3431 20.2448L62.2113 22.592ZM42.6455 38.1648L44.5137 40.5121L44.5137 40.5121L42.6455 38.1648ZM39.8352 37.8455L37.4879 39.7137L37.4879 39.7137L39.8352 37.8455ZM40.1545 35.0352L38.2863 32.6879L38.2863 32.6879L40.1545 35.0352ZM55.2756 23L57.1438 25.3473C58.1418 24.553 58.5284 23.2146 58.1077 22.0105C57.687 20.8064 56.551 20 55.2756 20V23ZM55.2756 19V22C56.551 22 57.687 21.1936 58.1077 19.9895C58.5284 18.7854 58.1418 17.447 57.1438 16.6527L55.2756 19ZM40.1545 6.96485L38.2863 9.31212L38.2863 9.31212L40.1545 6.96485ZM44.5137 1.48788C42.3531 -0.231785 39.2075 0.125666 37.4879 2.28627L42.1824 6.02275C41.8385 6.45487 41.2094 6.52636 40.7773 6.18242L44.5137 1.48788ZM64.0796 17.0607L44.5137 1.48788L40.7773 6.18242L60.3431 21.7552L64.0796 17.0607ZM64.5405 17.4692C64.3792 17.3073 64.2084 17.1581 64.0296 17.0218L60.393 21.7941C60.3566 21.7664 60.3221 21.7362 60.29 21.7039L64.5405 17.4692ZM65.5054 18.8307C65.2661 18.3332 64.9412 17.8694 64.5352 17.4639L60.2952 21.7092C60.2136 21.6277 60.1473 21.5332 60.0987 21.4321L65.5054 18.8307ZM65.8913 19.9609C65.807 19.5633 65.6756 19.1831 65.5036 18.8269L60.1005 21.4359C60.0657 21.3638 60.0389 21.2863 60.0217 21.2054L65.8913 19.9609ZM66.0001 20.9993C66.0001 20.6523 65.9641 20.304 65.8911 19.9602L60.0219 21.206C60.0072 21.137 60.0001 21.0674 60.0001 20.9986L66.0001 20.9993ZM65.8859 22.064C65.9628 21.7103 66.0005 21.352 66.0001 20.9954L60.0001 21.0025C60 20.932 60.0074 20.8605 60.023 20.7891L65.8859 22.064ZM65.6611 22.811C65.7562 22.5662 65.8311 22.3164 65.886 22.0639L60.0229 20.7891C60.0341 20.738 60.0493 20.6872 60.0686 20.6374L65.6611 22.811ZM65.5045 23.1713C65.5612 23.0537 65.6135 22.9334 65.6612 22.8107L60.0686 20.6376C60.0783 20.6126 60.0889 20.5882 60.1004 20.5644L65.5045 23.1713ZM64.5333 24.538C64.9407 24.1315 65.2665 23.6663 65.5064 23.1673L60.0985 20.5683C60.1472 20.4669 60.2137 20.3721 60.2956 20.2905L64.5333 24.538ZM64.0297 24.9782C64.2078 24.8424 64.3779 24.6938 64.5386 24.5327L60.2903 20.2957C60.3223 20.2636 60.3567 20.2336 60.393 20.2059L64.0297 24.9782ZM44.5137 40.5121L64.0796 24.9393L60.3431 20.2448L40.7773 35.8176L44.5137 40.5121ZM37.4879 39.7137C39.2075 41.8743 42.3531 42.2318 44.5137 40.5121L40.7773 35.8176C41.2094 35.4736 41.8385 35.5451 42.1824 35.9773L37.4879 39.7137ZM38.2863 32.6879C36.1257 34.4075 35.7682 37.5531 37.4879 39.7137L42.1824 35.9773C42.5264 36.4094 42.4549 37.0385 42.0227 37.3824L38.2863 32.6879ZM53.4074 20.6527L38.2863 32.6879L42.0227 37.3824L57.1438 25.3473L53.4074 20.6527ZM5.4 26H55.2756V20H5.4V26ZM0.4 21C0.4 23.7614 2.63858 26 5.4 26V20C5.95229 20 6.4 20.4477 6.4 21H0.4ZM5.4 16C2.63858 16 0.4 18.2386 0.4 21H6.4C6.4 21.5523 5.95228 22 5.4 22V16ZM55.2756 16H5.4V22H55.2756V16ZM38.2863 9.31212L53.4074 21.3473L57.1438 16.6527L42.0227 4.61758L38.2863 9.31212ZM37.4879 2.28627C35.7682 4.44688 36.1257 7.59245 38.2863 9.31212L42.0227 4.61758C42.4549 4.96151 42.5264 5.59062 42.1824 6.02275L37.4879 2.28627Z" fill="white"/>
</svg>
