<svg xmlns="http://www.w3.org/2000/svg" viewBox="0 0 180.58 59.81"><defs><style>.cls-1{fill:#fff;}</style></defs><title>11Asset 4splash-text</title><g id="Layer_2" data-name="Layer 2"><g id="Layer_1-2" data-name="Layer 1"><path class="cls-1" d="M32.32,59.81a.75.75,0,0,1-.75-.75v-27c0-8.14,2.62-11.31,4-12.84a15,15,0,0,1,23.58,2A15.46,15.46,0,0,1,57.09,41c-4.51,4.36-13.2,6.36-19.8.41,0,0,.05,12.07.06,17.68a.75.75,0,0,1-.75.75ZM46.58,20.53a9.23,9.23,0,0,0-9.3,9.27,9.33,9.33,0,1,0,9.3-9.27Z"/><path class="cls-1" d="M111.08,41.38c-6.6,6-15.29,4-19.8-.41a15.46,15.46,0,0,1-2.09-19.75,15,15,0,0,1,23.58-2c1.41,1.53,4,4.69,4,12.84,0,0,0,9.17,0,11.92a.74.74,0,0,1-.74.74h-4.29A.75.75,0,0,1,111,44C111,39.83,111.08,41.38,111.08,41.38ZM92.43,29.81a9.33,9.33,0,0,0,18.65.12,9.33,9.33,0,1,0-18.65-.12Z"/><path class="cls-1" d="M152.77,44a.74.74,0,0,0,.74.74h4.29a.74.74,0,0,0,.74-.74c0-3.06,0-14.71,0-14.71.07-5.1,3-9.22,8.11-9.22s8.15,4.14,8.15,9.22V44a.74.74,0,0,0,.74.73h4.29a.74.74,0,0,0,.74-.76V29.29a15.14,15.14,0,0,0-4.4-11.06c-4.51-4.36-12.22-5.69-17.62-.42,0,0,0-11.47,0-17.07A.74.74,0,0,0,157.8,0h-4.29a.74.74,0,0,0-.74.74c0,4.52,0,43.25,0,43.25"/><path class="cls-1" d="M13,45A12.63,12.63,0,0,1,0,33.22a.74.74,0,0,1,.74-.79h5.1a.74.74,0,0,1,.74.65,6,6,0,0,0,12-.65c0-3.58-3.15-5.3-4.5-5.87s-4-1.58-5.46-2.08A12.64,12.64,0,0,1,0,12.61a12.61,12.61,0,0,1,25.2-.78.74.74,0,0,1-.74.78h-5.1a.74.74,0,0,1-.74-.65,6,6,0,0,0-12,.65A6.12,6.12,0,0,0,10.9,18.3c1.38.49,4.18,1.53,5.81,2.21a14.73,14.73,0,0,1,6,4.5,12.07,12.07,0,0,1,2.53,7.66A12.65,12.65,0,0,1,13,45Z"/><path class="cls-1" d="M83.57,44.29V39.2a.74.74,0,0,0-.69-.74,9.33,9.33,0,0,1-8.64-9.3V.75A.74.74,0,0,0,73.5,0H68.43a.74.74,0,0,0-.74.74c0,4.66,0,28.41,0,28.41A15.89,15.89,0,0,0,82.75,45h.14a.74.74,0,0,0,.67-.74h0Z"/><path class="cls-1" d="M134.17,19.45c3.6,0,5,1.89,5.5,4.07h0a.74.74,0,0,0,.72.58H145a.75.75,0,0,0,.74-.79,7.9,7.9,0,0,0-.17-1.24,9.26,9.26,0,0,0-2.77-4.81c-2.08-2-4.62-3.15-8.6-3.15A10.39,10.39,0,0,0,126.56,17a8,8,0,0,0-2.81,6.32,8.14,8.14,0,0,0,2.4,6.1h0a14,14,0,0,0,5.25,2.66l4.52,1.14a3.5,3.5,0,0,1,3.13,3.35c0,2-1.95,3.76-4.44,3.76-3.6,0-5-2-5.51-4.11h0a.74.74,0,0,0-.72-.58h-4.58a.75.75,0,0,0-.74.79,7.91,7.91,0,0,0,.17,1.24A9.26,9.26,0,0,0,126,42.49a11.92,11.92,0,0,0,8.59,3.26c2.93,0,5.39-.53,7.43-2.37a9,9,0,0,0,3.11-6.73,7.37,7.37,0,0,0-2.54-6.1h0a13.61,13.61,0,0,0-5-2.44l-4.57-1.43c-2.25-.66-3.12-1.86-3.12-3.52A3.92,3.92,0,0,1,134.17,19.45Z"/></g></g></svg>