<svg xmlns="http://www.w3.org/2000/svg" viewBox="0 0 305.86 78.41"><defs><style>.cls-1{fill:#20d2a2;}</style></defs><title>11Asset 2splash-tag</title><g id="Layer_2" data-name="Layer 2"><g id="Layer_1-2" data-name="Layer 1"><path class="cls-1" d="M111.49,78.41a1,1,0,0,1-1-1V42.06c0-10.68,3.43-14.82,5.28-16.83a19.65,19.65,0,0,1,30.92,2.6A20.27,20.27,0,0,1,144,53.72c-5.92,5.72-17.31,8.34-26,.53,0,0,.07,15.82.08,23.17a1,1,0,0,1-1,1Zm18.7-51.5A12.1,12.1,0,0,0,118,39.06a12.23,12.23,0,1,0,12.19-12.15Z"/><path class="cls-1" d="M214.74,54.26c-8.65,7.81-20,5.19-26-.53A20.27,20.27,0,0,1,186,27.83,19.65,19.65,0,0,1,217,25.23c1.85,2,5.28,6.15,5.28,16.83,0,0,0,12,0,15.63a1,1,0,0,1-1,1h-5.62a1,1,0,0,1-1-1C214.67,52.22,214.74,54.26,214.74,54.26ZM190.29,39.08a12.23,12.23,0,0,0,24.45.16,12.23,12.23,0,1,0-24.45-.16Z"/><path class="cls-1" d="M269.4,57.67a1,1,0,0,0,1,1H276a1,1,0,0,0,1-1c0-4,0-19.28,0-19.28.09-6.69,3.93-12.08,10.63-12.09s10.68,5.42,10.68,12.09V57.69a1,1,0,0,0,1,1h5.63a1,1,0,0,0,1-1V38.39a19.85,19.85,0,0,0-5.77-14.5c-5.92-5.72-16-7.47-23.1-.55,0,0,0-15,0-22.38a1,1,0,0,0-1-1h-5.62a1,1,0,0,0-1,1c0,5.93,0,56.7,0,56.7"/><path class="cls-1" d="M86.21,59A16.55,16.55,0,0,1,69.15,43.56a1,1,0,0,1,1-1h6.69a1,1,0,0,1,1,.86,7.92,7.92,0,0,0,15.8-.86c0-4.7-4.13-6.94-5.9-7.69s-5.31-2.07-7.16-2.73A16.58,16.58,0,0,1,69.12,16.53a16.53,16.53,0,0,1,33-1,1,1,0,0,1-1,1H94.49a1,1,0,0,1-1-.86,7.92,7.92,0,0,0-15.8.86A8,8,0,0,0,83.41,24c1.81.65,5.48,2,7.61,2.9a19.31,19.31,0,0,1,7.85,5.9,15.82,15.82,0,0,1,3.32,10A16.58,16.58,0,0,1,86.21,59Z"/><path class="cls-1" d="M178.68,58.06V51.39a1,1,0,0,0-.9-1,12.23,12.23,0,0,1-11.33-12.19V1a1,1,0,0,0-1-1h-6.66a1,1,0,0,0-1,1c0,6.11,0,37.25,0,37.25A20.83,20.83,0,0,0,177.61,59h.19a1,1,0,0,0,.88-1h0Z"/><path class="cls-1" d="M245,25.49c4.71,0,6.51,2.47,7.21,5.34h0a1,1,0,0,0,.94.76h6a1,1,0,0,0,1-1,10.36,10.36,0,0,0-.23-1.62,12.14,12.14,0,0,0-3.63-6.3C253.57,20,250.24,18.5,245,18.5a13.63,13.63,0,0,0-10,3.82,10.53,10.53,0,0,0-3.69,8.28,10.67,10.67,0,0,0,3.15,8h0a18.33,18.33,0,0,0,6.89,3.49l5.93,1.49c2.52.51,4.1,2.22,4.1,4.39,0,2.66-2.55,4.93-5.81,4.93-4.71,0-6.61-2.57-7.22-5.39h0a1,1,0,0,0-.94-.76h-6a1,1,0,0,0-1,1,10.36,10.36,0,0,0,.23,1.62,12.14,12.14,0,0,0,3.63,6.3A15.63,15.63,0,0,0,245.6,60c3.84,0,7.07-.7,9.74-3.11a11.77,11.77,0,0,0,4.08-8.82c0-4-1.17-6-3.33-8h0a17.84,17.84,0,0,0-6.53-3.2l-6-1.88c-2.95-.86-4.09-2.44-4.09-4.61C239.48,27.71,241.76,25.49,245,25.49Z"/><path class="cls-1" d="M52.29,9.58C46.84,4.11,39.11,1.1,30.53,1.1,13.28,1.1.75,13.14.75,29.75c0,16.22,12,28.45,27.92,28.45a23,23,0,0,0,8-1.42l-3.6,5.33a.94.94,0,0,0,.21,1.27l1,.72a.9.9,0,0,0,.54.18h.15a.9.9,0,0,0,.59-.38l5.27-7.8h0l.67-1A.93.93,0,0,0,41.37,54a.88.88,0,0,0-.14-.16l-1-.72h0l-7.54-5.64a.87.87,0,0,0-.68-.17.89.89,0,0,0-.59.38l-.67,1A.94.94,0,0,0,31,49.93l4.59,3.43a23.8,23.8,0,0,1-6.92,1.15C15,54.51,5,44.09,5,29.75s10.72-25,25.5-25S56,15.28,56,29.75c0,8.65-2.44,14-6.36,14-2.68,0-4.56-2.48-4.56-6L45,29.22c0-8-6.08-13.78-14.45-13.78S16,21.45,16,29.75s5.49,14.18,13,14.18c5.36,0,10.41-2.47,12-5.86l.66-1.4,0,1.55c.06,5.29,3.34,9,8,9,6.29,0,10.51-7,10.51-17.45A28.09,28.09,0,0,0,52.29,9.58ZM37.83,55l-.05.08V55Zm-7.3-14.86c-5.89,0-10.16-4.38-10.16-10.43s4.27-10.63,10.16-10.63,10.09,4.37,10.09,10.63C40.63,35.79,36.38,40.17,30.53,40.17Z"/><path class="cls-1" d="M30.53,1.1c8.58,0,16.3,3,21.75,8.48a28.09,28.09,0,0,1,8,20.17c0,10.44-4.22,17.45-10.51,17.45-4.64,0-7.92-3.69-8-9l0-1.55-.66,1.4c-1.6,3.4-6.65,5.86-12,5.86-7.56,0-13-6-13-14.18s6.1-14.31,14.51-14.31S45,21.23,45,29.22L45,37.75c0,3.55,1.87,6,4.56,6,3.92,0,6.36-5.38,6.36-14,0-14.46-10.69-25-25.43-25S5,15.28,5,29.75,15,54.51,28.67,54.51a23.8,23.8,0,0,0,6.92-1.15L31,49.93a.94.94,0,0,1-.21-1.27l.67-1a.89.89,0,0,1,.59-.38h.15a.88.88,0,0,1,.53.18l7.54,5.64h0l1,.72a.88.88,0,0,1,.14.16.93.93,0,0,1,.07,1.11l-.67,1h0l-5.27,7.8a.9.9,0,0,1-.59.38h-.15a.9.9,0,0,1-.54-.18l-1-.72a.94.94,0,0,1-.21-1.27l3.6-5.33a23,23,0,0,1-8,1.42C12.75,58.19.75,46,.75,29.75.75,13.15,13.28,1.1,30.53,1.1m0,39.08c5.85,0,10.09-4.38,10.09-10.43,0-6.26-4.15-10.63-10.09-10.63S20.37,23.59,20.37,29.75s4.27,10.43,10.16,10.43m7.24,14.94.05-.08-.05,0v.12M30.53.35C12.84.35,0,12.71,0,29.75c0,16.65,12.32,29.2,28.67,29.2a25,25,0,0,0,6.15-.79l-2.38,3.52A1.7,1.7,0,0,0,32.82,64l1,.72a1.65,1.65,0,0,0,1,.33L35,65a1.65,1.65,0,0,0,1.08-.7l5.21-7.71h0l.06-.09.67-1a1.69,1.69,0,0,0-.12-2,1.38,1.38,0,0,0-.27-.28l-1-.72-.1-.07h0l-7.45-5.56a1.62,1.62,0,0,0-1-.33l-.28,0a1.63,1.63,0,0,0-1.08.7l-.67,1a1.7,1.7,0,0,0,.39,2.29l3.38,2.52a22.36,22.36,0,0,1-5.26.71c-13.26,0-22.88-10.1-22.88-24S16.19,5.53,30.53,5.53,55.21,15.72,55.21,29.75C55.21,37.81,53,43,49.6,43c-2.24,0-3.81-2.17-3.81-5.27l-.07-8.54c0-8.41-6.39-14.53-15.2-14.53S15.27,21,15.27,29.75s5.8,14.93,13.8,14.93c5,0,9.83-2.11,12-5.16.55,5,4,8.43,8.65,8.43,6.74,0,11.26-7.31,11.26-18.2A28.84,28.84,0,0,0,52.82,9C47.23,3.44,39.31.35,30.53.35Zm0,39.08c-5.45,0-9.41-4.07-9.41-9.68s4-9.88,9.41-9.88,9.34,4.06,9.34,9.88c0,5.61-3.93,9.68-9.34,9.68Z"/></g></g></svg>