<svg xmlns="http://www.w3.org/2000/svg" viewBox="0 0 50.91 50.91"><defs><style>.cls-1{fill:#20d2a2;}</style></defs><title>11Asset 9team-icon</title><g id="Layer_2" data-name="Layer 2"><g id="Layer_1-2" data-name="Layer 1"><path class="cls-1" d="M50.88,24.08A25.45,25.45,0,0,0,26.1,0H24.86l-.78,0A25.45,25.45,0,0,0,7.79,43.78l-.06.08.53.36a25.36,25.36,0,0,0,17.18,6.7c.46,0,.93,0,1.4,0A25.49,25.49,0,0,0,50.88,24.08ZM25.44,46.56a20.93,20.93,0,0,1-11.5-3.42,16.52,16.52,0,0,1,23,0A21,21,0,0,1,26.6,46.53C26.21,46.55,25.82,46.56,25.44,46.56ZM34,25.46a8.54,8.54,0,1,1-8.54-8.54A8.55,8.55,0,0,1,34,25.46Zm-.66,10.19a12.9,12.9,0,1,0-15.76,0,21,21,0,0,0-7,4.74,21.11,21.11,0,0,1,13.78-36c.39,0,.78,0,1.16,0h0a21.09,21.09,0,0,1,14.9,36A21,21,0,0,0,33.35,35.65Z"/></g></g></svg>