<svg xmlns="http://www.w3.org/2000/svg" viewBox="0 0 18.93 20.07"><defs><style>.cls-1{fill:#888994;}</style></defs><title>11Asset 3tag</title><g id="Layer_2" data-name="Layer 2"><g id="Layer_1-2" data-name="Layer 1"><path class="cls-1" d="M16.23,2.87A9.4,9.4,0,0,0,9.48.23C4.12.23.23,4,.23,9.12A8.56,8.56,0,0,0,8.9,18a7.13,7.13,0,0,0,2.48-.44l-1.12,1.65a.29.29,0,0,0,.07.39l.3.22a.28.28,0,0,0,.17.06h0a.28.28,0,0,0,.18-.12l1.64-2.42h0l.21-.31a.29.29,0,0,0,0-.34l0,0-.3-.22h0l-2.34-1.75a.27.27,0,0,0-.21-.05.27.27,0,0,0-.18.12L9.55,15a.29.29,0,0,0,.07.39L11,16.45a7.39,7.39,0,0,1-2.15.36c-4.25,0-7.33-3.23-7.33-7.68A7.57,7.57,0,0,1,9.48,1.38a7.56,7.56,0,0,1,7.89,7.75c0,2.68-.76,4.35-2,4.35-.83,0-1.41-.77-1.41-1.87L14,9A4.24,4.24,0,0,0,9.48,4.68,4.33,4.33,0,0,0,5,9.12a4.1,4.1,0,0,0,4,4.4,4.17,4.17,0,0,0,3.73-1.82l.21-.44v.48a2.55,2.55,0,0,0,2.48,2.79c2,0,3.26-2.18,3.26-5.41A8.72,8.72,0,0,0,16.23,2.87ZM11.74,17l0,0v0ZM9.48,12.36A3.09,3.09,0,0,1,6.32,9.12a3.12,3.12,0,0,1,3.15-3.3,3.08,3.08,0,0,1,3.13,3.3A3.08,3.08,0,0,1,9.48,12.36Z"/><path class="cls-1" d="M9.48.23a9.4,9.4,0,0,1,6.75,2.63A8.72,8.72,0,0,1,18.7,9.12c0,3.24-1.31,5.41-3.26,5.41A2.55,2.55,0,0,1,13,11.75v-.48l-.21.44A4.17,4.17,0,0,1,9,13.52a4.1,4.1,0,0,1-4-4.4,4.33,4.33,0,0,1,4.5-4.44A4.24,4.24,0,0,1,14,9l0,2.65c0,1.1.58,1.87,1.41,1.87,1.22,0,2-1.67,2-4.35A7.56,7.56,0,0,0,9.48,1.38,7.57,7.57,0,0,0,1.56,9.12c0,4.45,3.08,7.68,7.33,7.68A7.39,7.39,0,0,0,11,16.45L9.62,15.39A.29.29,0,0,1,9.55,15l.21-.31a.27.27,0,0,1,.18-.12h0a.27.27,0,0,1,.16.06l2.34,1.75h0l.3.22,0,0a.29.29,0,0,1,0,.34l-.21.31h0L11,19.71a.28.28,0,0,1-.18.12h0a.28.28,0,0,1-.17-.06l-.3-.22a.29.29,0,0,1-.07-.39l1.12-1.65A7.13,7.13,0,0,1,8.9,18,8.56,8.56,0,0,1,.23,9.12C.23,4,4.12.23,9.48.23m0,12.13a3.08,3.08,0,0,0,3.13-3.24,3.08,3.08,0,0,0-3.13-3.3,3.12,3.12,0,0,0-3.15,3.3,3.09,3.09,0,0,0,3.15,3.24M11.72,17l0,0h0v0M9.48,0C4,0,0,3.84,0,9.12a8.78,8.78,0,0,0,8.9,9.06,7.74,7.74,0,0,0,1.91-.24L10.07,19a.53.53,0,0,0,.12.71l.3.22a.51.51,0,0,0,.31.1h.09a.51.51,0,0,0,.34-.22l1.62-2.39h0l0,0,.21-.31a.52.52,0,0,0,0-.62.43.43,0,0,0-.08-.09l-.3-.22,0,0h0l-2.31-1.73a.5.5,0,0,0-.3-.1H9.9a.5.5,0,0,0-.34.22l-.21.31a.53.53,0,0,0,.12.71l1,.78a6.94,6.94,0,0,1-1.63.22c-4.11,0-7.1-3.13-7.1-7.45A7.35,7.35,0,0,1,9.48,1.61a7.34,7.34,0,0,1,7.66,7.51c0,2.5-.68,4.12-1.74,4.12-.7,0-1.18-.67-1.18-1.64l0-2.65A4.46,4.46,0,0,0,9.48,4.45,4.55,4.55,0,0,0,4.74,9.12,4.32,4.32,0,0,0,9,13.76a4.71,4.71,0,0,0,3.73-1.6,2.7,2.7,0,0,0,2.68,2.62c2.09,0,3.5-2.27,3.5-5.65A9,9,0,0,0,16.39,2.7,9.63,9.63,0,0,0,9.48,0Zm0,12.13a2.87,2.87,0,0,1-2.92-3A2.9,2.9,0,0,1,9.48,6.06a2.86,2.86,0,0,1,2.9,3.06,2.86,2.86,0,0,1-2.9,3Z"/></g></g></svg>