<svg xmlns="http://www.w3.org/2000/svg" viewBox="0 0 8.25 10.11"><defs><style>.cls-1{fill:#20d2a2;}</style></defs><title>11Asset 1up-arrow</title><g id="Layer_2" data-name="Layer 2"><g id="Layer_1-2" data-name="Layer 1"><path class="cls-1" d="M4,.2.2,4a.17.17,0,0,0,0,.24l.2.2a.17.17,0,0,0,.24,0L3.82,1.27V9.74A.22.22,0,0,0,4,10h.18a.22.22,0,0,0,.22-.22V1.27L7.61,4.45a.17.17,0,0,0,.24,0l.2-.2a.17.17,0,0,0,0-.24L4.25.2A.17.17,0,0,0,4,.2Z"/><path class="cls-1" d="M8.25,4.13h0a.32.32,0,0,1-.09.23l-.2.2a.32.32,0,0,1-.45,0L4.59,1.64v8.1a.37.37,0,0,1-.37.37H4a.37.37,0,0,1-.37-.37V1.64L.75,4.55a.32.32,0,0,1-.45,0l-.2-.2a.32.32,0,0,1,0-.45L3.9.09a.32.32,0,0,1,.45,0L8.16,3.9A.32.32,0,0,1,8.25,4.13ZM4,9.74A.07.07,0,0,0,4,9.81h.18a.07.07,0,0,0,.07-.07V.91L7.72,4.34h0l.2-.2v0L4.14.31h0L.31,4.11a0,0,0,0,0,0,0l.2.2h0L4,.91Z"/></g></g></svg>