<svg width="400" height="400" viewBox="0 0 400 400" fill="none" xmlns="http://www.w3.org/2000/svg">
<path fill-rule="evenodd" clip-rule="evenodd" d="M0 41C0 18.3563 18.3563 0 41 0H359C381.644 0 400 18.3563 400 41V359C400 381.644 381.644 400 359 400H41C18.3563 400 0 381.644 0 359V41ZM192.966 224C185.872 250.462 161.042 270 131.5 270C96.4299 270 68 242.466 68 208.5C68 174.534 96.4299 147 131.5 147C161.765 147 187.085 167.506 193.455 194.955L193 194.5H164.5L164.387 195.015C159.152 182.096 146.624 173 132 173C112.67 173 97 188.894 97 208.5C97 228.106 112.67 244 132 244C145.851 244 157.823 235.839 163.496 224H192.966ZM231.5 265.5H207.5V90H231.5V159.685C241.612 151.729 254.267 147 268 147C301.137 147 328 174.534 328 208.5C328 242.466 301.137 270 268 270C254.267 270 241.612 265.271 231.5 257.315V265.5ZM267.5 244C286.554 244 302 228.106 302 208.5C302 188.894 286.554 173 267.5 173C248.446 173 233 188.894 233 208.5C233 228.106 248.446 244 267.5 244Z" fill="black"/>
</svg>
