<svg xmlns="http://www.w3.org/2000/svg" viewBox="0 0 33.02 33.02"><defs><style>.cls-1{fill:#1a1e1e;}</style></defs><title>11Asset 16fb-icon</title><g id="Layer_2" data-name="Layer 2"><g id="Layer_1-2" data-name="Layer 1"><path class="cls-1" d="M30.69,0H2.33A2.33,2.33,0,0,0,0,2.33V30.69A2.33,2.33,0,0,0,2.33,33H16.88c0-.08,0-.16,0-.25q0-6.7,0-13.4V19H13.4c0-.1,0-.17,0-.24,0-1.44,0-2.89,0-4.33,0-.2.06-.25.25-.25h3c.21,0,.26-.07.26-.27,0-1.3,0-2.59,0-3.89a6.36,6.36,0,0,1,.67-2.71,3.66,3.66,0,0,1,2.21-1.89,7.77,7.77,0,0,1,2.33-.42h4.29c0,.09,0,.18,0,.27,0,1.44,0,2.87,0,4.31,0,.2-.06.25-.25.25-.78,0-1.56,0-2.34,0a4.83,4.83,0,0,0-.8.1,1.06,1.06,0,0,0-.87,1c0,1,0,2-.05,3,0,.18.12.15.23.15h4.11L25.94,19H22.12c0,.11,0,.21,0,.3q0,6.72,0,13.44c0,.08,0,.16,0,.25h8.59A2.33,2.33,0,0,0,33,30.69V2.33A2.33,2.33,0,0,0,30.69,0Z"/></g></g></svg>