<svg xmlns="http://www.w3.org/2000/svg" viewBox="0 0 33.17 33.11"><defs><style>.cls-1{fill:#1a1e1e;}</style></defs><title>11Asset 17insta-icon</title><g id="Layer_2" data-name="Layer 2"><g id="Layer_1-2" data-name="Layer 1"><path class="cls-1" d="M33.17,16.54c0,2.35-.09,4.71-.15,7.06a10.84,10.84,0,0,1-.77,3.85,8.35,8.35,0,0,1-6.88,5.35,37.2,37.2,0,0,1-5.28.31c-3.53,0-7.06,0-10.6-.1a10.1,10.1,0,0,1-5-1.31,8.33,8.33,0,0,1-4.2-6.31A40.17,40.17,0,0,1,0,20.06C0,16.55,0,13,.1,9.51A10.56,10.56,0,0,1,.81,5.79,8.35,8.35,0,0,1,7.75.31,36.81,36.81,0,0,1,13,0c3.52,0,7,0,10.55.09a10.18,10.18,0,0,1,5,1.32A8.28,8.28,0,0,1,32.8,7.72c.26,1.93.25,3.89.32,5.84,0,1,0,2,0,3ZM16.56,30.13c1.38,0,2.76,0,4.14,0A36.15,36.15,0,0,0,25,29.83a5.38,5.38,0,0,0,4.67-4,9.84,9.84,0,0,0,.4-2.51q.12-4.46.11-8.92c0-1.89-.05-3.78-.2-5.66a5.74,5.74,0,0,0-2.41-4.47,7,7,0,0,0-4.09-1.19Q16.56,3,9.68,3.09a7.23,7.23,0,0,0-3.74,1,5.7,5.7,0,0,0-2.76,4.7C3,10.61,3,12.47,3,14.33c0,3,0,6,.1,9.06a7.29,7.29,0,0,0,1.14,4.06,5.67,5.67,0,0,0,4.53,2.48C11.35,30.1,16.56,30.16,16.56,30.13Z"/><path class="cls-1" d="M25.08,16.62A8.52,8.52,0,1,1,16.68,8,8.51,8.51,0,0,1,25.08,16.62ZM16.57,11a5.51,5.51,0,1,0,5.5,5.5A5.51,5.51,0,0,0,16.57,11Z"/><path class="cls-1" d="M25.42,5.72a2,2,0,1,1-2,2A2,2,0,0,1,25.42,5.72Z"/></g></g></svg>