<svg xmlns="http://www.w3.org/2000/svg" viewBox="0 0 33.18 33.18"><defs><style>.cls-1{fill:#1a1e1e;}</style></defs><title>11Asset 18linkedin-icon</title><g id="Layer_2" data-name="Layer 2"><g id="Layer_1-2" data-name="Layer 1"><path class="cls-1" d="M30.84,0H2.34A2.34,2.34,0,0,0,0,2.34V30.84a2.34,2.34,0,0,0,2.34,2.34H30.84a2.34,2.34,0,0,0,2.34-2.34V2.34A2.34,2.34,0,0,0,30.84,0ZM10.67,27H6.24c-.17,0-.21-.05-.21-.21Q6,20,6,13.18c0-.16,0-.21.21-.21h4.43ZM11,9a2.18,2.18,0,0,1-1.52,1.89,8.33,8.33,0,0,1-1.08.24v0A2.49,2.49,0,0,1,6.14,10,2.37,2.37,0,0,1,7.45,6.38,2.83,2.83,0,0,1,10,6.72,2.27,2.27,0,0,1,11,9Zm16.47,18H22.78v-.22q0-3.56,0-7.12a5.37,5.37,0,0,0-.25-1.82,2.1,2.1,0,0,0-2.27-1.45A2.53,2.53,0,0,0,18,18.16a4.07,4.07,0,0,0-.11,1.12c0,2.47,0,4.94,0,7.41v.25H13.27V13H17.7c.16,0,.21,0,.21.21,0,.51,0,1,0,1.53v.18c.27-.32.52-.64.79-.92a4.21,4.21,0,0,1,2.58-1.27,5.89,5.89,0,0,1,2.85.29,4.55,4.55,0,0,1,2.47,2.14,7.67,7.67,0,0,1,.85,3.77c0,2.63,0,5.26,0,7.89C27.43,26.84,27.43,26.89,27.42,26.94Z"/></g></g></svg>