<svg xmlns="http://www.w3.org/2000/svg" viewBox="0 0 34.74 29.08"><defs><style>.cls-1{fill:#1a1e1e;}</style></defs><title>11Asset 20medium-icon</title><g id="Layer_2" data-name="Layer 2"><g id="Layer_1-2" data-name="Layer 1"><path class="cls-1" d="M22,28.48c2.85-1.73,2.54-4.46,2.5-7.17-.06-4.61.14-9.7.14-14.67l-9,22.45L5.86,7.55c-.16,0-.19,0-.19.73v6.9c0,.94,0,1.8,0,2.8,0,3.58.27,6.63,2.8,9.17a15.45,15.45,0,0,1,1.26,1.41H0a9.18,9.18,0,0,0,2.81-3.33,13,13,0,0,0,1.28-4.77c.19-4.2,0-8.42.11-12.62a7.65,7.65,0,0,0-2.06-6A15.32,15.32,0,0,1,.91.06C4.12.06,7,0,9.8.12c.44,0,1,.79,1.23,1.33,2.17,4.66,4.28,9.34,6.41,14,.3.66.62,1.31,1.1,2.32,1.18-2.9,2.23-5.47,3.27-8.05S24,4.3,25.05,1.55A2,2,0,0,1,27.21,0c2.44.09,4.88,0,7.34,0,0,.39,0,.57-.07.62C32.14,2.6,31.83,5.15,31.94,8c.18,4.47,0,9,0,13.43,0,4,0,4,2.75,7Z"/></g></g></svg>