<svg xmlns="http://www.w3.org/2000/svg" viewBox="0 0 29.96 24.53"><defs><style>.cls-1{fill:#1a1e1e;}</style></defs><title>11Asset 15twt-icon</title><g id="Layer_2" data-name="Layer 2"><g id="Layer_1-2" data-name="Layer 1"><path class="cls-1" d="M29.22.51A7.32,7.32,0,0,1,26.8,3.77,15.4,15.4,0,0,0,30,3c-.05.08-.1.17-.16.25A13.07,13.07,0,0,1,27.28,5.9a.61.61,0,0,0-.27.51,20.45,20.45,0,0,1-.43,4.15,17.8,17.8,0,0,1-7.47,11.15A15.62,15.62,0,0,1,12,24.37a18.67,18.67,0,0,1-7.84-.58,20.27,20.27,0,0,1-3.81-1.7A1.15,1.15,0,0,1,0,21.83a13,13,0,0,0,8.93-2.59,6.41,6.41,0,0,1-5.72-4.32,9.5,9.5,0,0,0,2.58-.12A6.32,6.32,0,0,1,1.06,8.69a7.73,7.73,0,0,0,2.66.71C1,7.1.47,4.38,1.86,1.14l1.5,1.47a17.27,17.27,0,0,0,11.08,5h.15c0-.53,0-1,0-1.54a6.12,6.12,0,0,1,5-5.92,5.93,5.93,0,0,1,5.31,1.46.9.9,0,0,0,1,.24l2.64-1C28.73.73,28.94.63,29.22.51Z"/></g></g></svg>